%TF.GenerationSoftware,KiCad,Pcbnew,8.0.6*%
%TF.CreationDate,2024-11-07T17:09:19-06:00*%
%TF.ProjectId,CameraAI_PCB,43616d65-7261-4414-995f-5043422e6b69,rev?*%
%TF.SameCoordinates,Original*%
%TF.FileFunction,Soldermask,Bot*%
%TF.FilePolarity,Negative*%
%FSLAX46Y46*%
G04 Gerber Fmt 4.6, Leading zero omitted, Abs format (unit mm)*
G04 Created by KiCad (PCBNEW 8.0.6) date 2024-11-07 17:09:19*
%MOMM*%
%LPD*%
G01*
G04 APERTURE LIST*
G04 Aperture macros list*
%AMRoundRect*
0 Rectangle with rounded corners*
0 $1 Rounding radius*
0 $2 $3 $4 $5 $6 $7 $8 $9 X,Y pos of 4 corners*
0 Add a 4 corners polygon primitive as box body*
4,1,4,$2,$3,$4,$5,$6,$7,$8,$9,$2,$3,0*
0 Add four circle primitives for the rounded corners*
1,1,$1+$1,$2,$3*
1,1,$1+$1,$4,$5*
1,1,$1+$1,$6,$7*
1,1,$1+$1,$8,$9*
0 Add four rect primitives between the rounded corners*
20,1,$1+$1,$2,$3,$4,$5,0*
20,1,$1+$1,$4,$5,$6,$7,0*
20,1,$1+$1,$6,$7,$8,$9,0*
20,1,$1+$1,$8,$9,$2,$3,0*%
G04 Aperture macros list end*
%ADD10R,1.700000X1.700000*%
%ADD11O,1.700000X1.700000*%
%ADD12RoundRect,0.250000X-0.350000X-0.350000X0.350000X-0.350000X0.350000X0.350000X-0.350000X0.350000X0*%
%ADD13C,1.200000*%
%ADD14O,1.200000X2.400000*%
%ADD15O,1.200000X2.100000*%
%ADD16RoundRect,0.250000X0.337500X0.475000X-0.337500X0.475000X-0.337500X-0.475000X0.337500X-0.475000X0*%
%ADD17RoundRect,0.250000X-0.337500X-0.475000X0.337500X-0.475000X0.337500X0.475000X-0.337500X0.475000X0*%
%ADD18RoundRect,0.250000X-0.450000X0.350000X-0.450000X-0.350000X0.450000X-0.350000X0.450000X0.350000X0*%
G04 APERTURE END LIST*
D10*
%TO.C,J1*%
X94460000Y-54920000D03*
D11*
X97000000Y-54920000D03*
X94460000Y-57460000D03*
X97000000Y-57460000D03*
X94460000Y-60000000D03*
X97000000Y-60000000D03*
X94460000Y-62540000D03*
X97000000Y-62540000D03*
X94460000Y-65080000D03*
X97000000Y-65080000D03*
X94460000Y-67620000D03*
X97000000Y-67620000D03*
X94460000Y-70160000D03*
X97000000Y-70160000D03*
X94460000Y-72700000D03*
X97000000Y-72700000D03*
X94460000Y-75240000D03*
X97000000Y-75240000D03*
%TD*%
D10*
%TO.C,J3*%
X163340000Y-68000000D03*
D11*
X165880000Y-68000000D03*
X168420000Y-68000000D03*
X170960000Y-68000000D03*
X173500000Y-68000000D03*
X176040000Y-68000000D03*
X178580000Y-68000000D03*
%TD*%
D10*
%TO.C,J6*%
X151920000Y-102000000D03*
D11*
X154460000Y-102000000D03*
X157000000Y-102000000D03*
X159540000Y-102000000D03*
%TD*%
D12*
%TO.C,J2*%
X96500000Y-92500000D03*
D13*
X99000000Y-92500000D03*
X101000000Y-92500000D03*
X103500000Y-92500000D03*
X104000000Y-91000000D03*
X102000000Y-91000000D03*
X100000000Y-91000000D03*
X98000000Y-91000000D03*
X96000000Y-91000000D03*
D14*
X93600000Y-91750000D03*
D15*
X93600000Y-100250000D03*
D14*
X106400000Y-91750000D03*
D15*
X106400000Y-100250000D03*
%TD*%
D10*
%TO.C,J7*%
X166500000Y-72000000D03*
D11*
X169040000Y-72000000D03*
X171580000Y-72000000D03*
%TD*%
D10*
%TO.C,J5*%
X121725000Y-70500000D03*
D11*
X124265000Y-70500000D03*
%TD*%
D10*
%TO.C,J8*%
X189500000Y-58960000D03*
D11*
X189500000Y-61500000D03*
X189500000Y-64040000D03*
X189500000Y-66580000D03*
X189500000Y-69120000D03*
X189500000Y-71660000D03*
X189500000Y-74200000D03*
X189500000Y-76740000D03*
%TD*%
D10*
%TO.C,J4*%
X189500000Y-87460000D03*
D11*
X189500000Y-90000000D03*
X189500000Y-92540000D03*
X189500000Y-95080000D03*
X189500000Y-97620000D03*
X189500000Y-100160000D03*
%TD*%
D16*
%TO.C,C11*%
X138037500Y-63490000D03*
X135962500Y-63490000D03*
%TD*%
D17*
%TO.C,C17*%
X131925000Y-66500000D03*
X134000000Y-66500000D03*
%TD*%
D16*
%TO.C,C13*%
X138037500Y-69510000D03*
X135962500Y-69510000D03*
%TD*%
%TO.C,C19*%
X134000000Y-72520000D03*
X131925000Y-72520000D03*
%TD*%
D18*
%TO.C,R2*%
X125500000Y-77500000D03*
X125500000Y-79500000D03*
%TD*%
D16*
%TO.C,C18*%
X134000000Y-69510000D03*
X131925000Y-69510000D03*
%TD*%
%TO.C,C8*%
X142037500Y-69500000D03*
X139962500Y-69500000D03*
%TD*%
%TO.C,C2*%
X146537500Y-76500000D03*
X144462500Y-76500000D03*
%TD*%
%TO.C,C7*%
X142037500Y-67000000D03*
X139962500Y-67000000D03*
%TD*%
%TO.C,C12*%
X138037500Y-66500000D03*
X135962500Y-66500000D03*
%TD*%
%TO.C,C16*%
X134000000Y-63490000D03*
X131925000Y-63490000D03*
%TD*%
%TO.C,C23*%
X156037500Y-64000000D03*
X153962500Y-64000000D03*
%TD*%
D18*
%TO.C,R3*%
X125500000Y-73500000D03*
X125500000Y-75500000D03*
%TD*%
D16*
%TO.C,C15*%
X138075000Y-75000000D03*
X136000000Y-75000000D03*
%TD*%
%TO.C,C6*%
X142037500Y-64490000D03*
X139962500Y-64490000D03*
%TD*%
D17*
%TO.C,C4*%
X143962500Y-72000000D03*
X146037500Y-72000000D03*
%TD*%
D16*
%TO.C,C10*%
X146190000Y-69490000D03*
X144115000Y-69490000D03*
%TD*%
%TO.C,C14*%
X138037500Y-72520000D03*
X135962500Y-72520000D03*
%TD*%
%TO.C,C5*%
X146037500Y-67000000D03*
X143962500Y-67000000D03*
%TD*%
%TO.C,C3*%
X134537500Y-78000000D03*
X132462500Y-78000000D03*
%TD*%
%TO.C,C9*%
X142037500Y-72000000D03*
X139962500Y-72000000D03*
%TD*%
%TO.C,C20*%
X133922500Y-75020000D03*
X131847500Y-75020000D03*
%TD*%
%TO.C,C1*%
X146037500Y-64500000D03*
X143962500Y-64500000D03*
%TD*%
M02*
