%TF.GenerationSoftware,KiCad,Pcbnew,8.0.6*%
%TF.CreationDate,2024-11-07T17:09:19-06:00*%
%TF.ProjectId,CameraAI_PCB,43616d65-7261-4414-995f-5043422e6b69,rev?*%
%TF.SameCoordinates,Original*%
%TF.FileFunction,Paste,Bot*%
%TF.FilePolarity,Positive*%
%FSLAX46Y46*%
G04 Gerber Fmt 4.6, Leading zero omitted, Abs format (unit mm)*
G04 Created by KiCad (PCBNEW 8.0.6) date 2024-11-07 17:09:19*
%MOMM*%
%LPD*%
G01*
G04 APERTURE LIST*
G04 Aperture macros list*
%AMRoundRect*
0 Rectangle with rounded corners*
0 $1 Rounding radius*
0 $2 $3 $4 $5 $6 $7 $8 $9 X,Y pos of 4 corners*
0 Add a 4 corners polygon primitive as box body*
4,1,4,$2,$3,$4,$5,$6,$7,$8,$9,$2,$3,0*
0 Add four circle primitives for the rounded corners*
1,1,$1+$1,$2,$3*
1,1,$1+$1,$4,$5*
1,1,$1+$1,$6,$7*
1,1,$1+$1,$8,$9*
0 Add four rect primitives between the rounded corners*
20,1,$1+$1,$2,$3,$4,$5,0*
20,1,$1+$1,$4,$5,$6,$7,0*
20,1,$1+$1,$6,$7,$8,$9,0*
20,1,$1+$1,$8,$9,$2,$3,0*%
G04 Aperture macros list end*
%ADD10RoundRect,0.250000X0.337500X0.475000X-0.337500X0.475000X-0.337500X-0.475000X0.337500X-0.475000X0*%
%ADD11RoundRect,0.250000X-0.337500X-0.475000X0.337500X-0.475000X0.337500X0.475000X-0.337500X0.475000X0*%
%ADD12RoundRect,0.250000X-0.450000X0.350000X-0.450000X-0.350000X0.450000X-0.350000X0.450000X0.350000X0*%
G04 APERTURE END LIST*
D10*
%TO.C,C11*%
X138037500Y-63490000D03*
X135962500Y-63490000D03*
%TD*%
D11*
%TO.C,C17*%
X131925000Y-66500000D03*
X134000000Y-66500000D03*
%TD*%
D10*
%TO.C,C13*%
X138037500Y-69510000D03*
X135962500Y-69510000D03*
%TD*%
%TO.C,C19*%
X134000000Y-72520000D03*
X131925000Y-72520000D03*
%TD*%
D12*
%TO.C,R2*%
X125500000Y-77500000D03*
X125500000Y-79500000D03*
%TD*%
D10*
%TO.C,C18*%
X134000000Y-69510000D03*
X131925000Y-69510000D03*
%TD*%
%TO.C,C8*%
X142037500Y-69500000D03*
X139962500Y-69500000D03*
%TD*%
%TO.C,C2*%
X146537500Y-76500000D03*
X144462500Y-76500000D03*
%TD*%
%TO.C,C7*%
X142037500Y-67000000D03*
X139962500Y-67000000D03*
%TD*%
%TO.C,C12*%
X138037500Y-66500000D03*
X135962500Y-66500000D03*
%TD*%
%TO.C,C16*%
X134000000Y-63490000D03*
X131925000Y-63490000D03*
%TD*%
%TO.C,C23*%
X156037500Y-64000000D03*
X153962500Y-64000000D03*
%TD*%
D12*
%TO.C,R3*%
X125500000Y-73500000D03*
X125500000Y-75500000D03*
%TD*%
D10*
%TO.C,C15*%
X138075000Y-75000000D03*
X136000000Y-75000000D03*
%TD*%
%TO.C,C6*%
X142037500Y-64490000D03*
X139962500Y-64490000D03*
%TD*%
D11*
%TO.C,C4*%
X143962500Y-72000000D03*
X146037500Y-72000000D03*
%TD*%
D10*
%TO.C,C10*%
X146190000Y-69490000D03*
X144115000Y-69490000D03*
%TD*%
%TO.C,C14*%
X138037500Y-72520000D03*
X135962500Y-72520000D03*
%TD*%
%TO.C,C5*%
X146037500Y-67000000D03*
X143962500Y-67000000D03*
%TD*%
%TO.C,C3*%
X134537500Y-78000000D03*
X132462500Y-78000000D03*
%TD*%
%TO.C,C9*%
X142037500Y-72000000D03*
X139962500Y-72000000D03*
%TD*%
%TO.C,C20*%
X133922500Y-75020000D03*
X131847500Y-75020000D03*
%TD*%
%TO.C,C1*%
X146037500Y-64500000D03*
X143962500Y-64500000D03*
%TD*%
M02*
