%TF.GenerationSoftware,KiCad,Pcbnew,8.0.6*%
%TF.CreationDate,2024-11-07T17:09:19-06:00*%
%TF.ProjectId,CameraAI_PCB,43616d65-7261-4414-995f-5043422e6b69,rev?*%
%TF.SameCoordinates,Original*%
%TF.FileFunction,Paste,Top*%
%TF.FilePolarity,Positive*%
%FSLAX46Y46*%
G04 Gerber Fmt 4.6, Leading zero omitted, Abs format (unit mm)*
G04 Created by KiCad (PCBNEW 8.0.6) date 2024-11-07 17:09:19*
%MOMM*%
%LPD*%
G01*
G04 APERTURE LIST*
G04 Aperture macros list*
%AMRoundRect*
0 Rectangle with rounded corners*
0 $1 Rounding radius*
0 $2 $3 $4 $5 $6 $7 $8 $9 X,Y pos of 4 corners*
0 Add a 4 corners polygon primitive as box body*
4,1,4,$2,$3,$4,$5,$6,$7,$8,$9,$2,$3,0*
0 Add four circle primitives for the rounded corners*
1,1,$1+$1,$2,$3*
1,1,$1+$1,$4,$5*
1,1,$1+$1,$6,$7*
1,1,$1+$1,$8,$9*
0 Add four rect primitives between the rounded corners*
20,1,$1+$1,$2,$3,$4,$5,0*
20,1,$1+$1,$4,$5,$6,$7,0*
20,1,$1+$1,$6,$7,$8,$9,0*
20,1,$1+$1,$8,$9,$2,$3,0*%
G04 Aperture macros list end*
%ADD10RoundRect,0.250000X-0.350000X-0.450000X0.350000X-0.450000X0.350000X0.450000X-0.350000X0.450000X0*%
%ADD11RoundRect,0.250000X0.475000X-0.337500X0.475000X0.337500X-0.475000X0.337500X-0.475000X-0.337500X0*%
%ADD12R,2.500000X1.000000*%
%ADD13RoundRect,0.250000X-0.337500X-0.475000X0.337500X-0.475000X0.337500X0.475000X-0.337500X0.475000X0*%
%ADD14RoundRect,0.075000X-0.662500X-0.075000X0.662500X-0.075000X0.662500X0.075000X-0.662500X0.075000X0*%
%ADD15RoundRect,0.075000X-0.075000X-0.662500X0.075000X-0.662500X0.075000X0.662500X-0.075000X0.662500X0*%
G04 APERTURE END LIST*
D10*
%TO.C,R1*%
X137000000Y-54500000D03*
X139000000Y-54500000D03*
%TD*%
D11*
%TO.C,C22*%
X146000000Y-86037500D03*
X146000000Y-83962500D03*
%TD*%
D12*
%TO.C,SW1*%
X118750000Y-96960000D03*
X125250000Y-102040000D03*
X118750000Y-102040000D03*
X125250000Y-96960000D03*
X118750000Y-99500000D03*
X125250000Y-99500000D03*
%TD*%
D13*
%TO.C,C24*%
X122962500Y-54000000D03*
X125037500Y-54000000D03*
%TD*%
D12*
%TO.C,SW2*%
X173750000Y-96960000D03*
X180250000Y-102040000D03*
X173750000Y-102040000D03*
X180250000Y-96960000D03*
X173750000Y-99500000D03*
X180250000Y-99500000D03*
%TD*%
D13*
%TO.C,C21*%
X132962500Y-54500000D03*
X135037500Y-54500000D03*
%TD*%
D14*
%TO.C,U1*%
X128500000Y-61912500D03*
X128500000Y-62412500D03*
X128500000Y-62912500D03*
X128500000Y-63412500D03*
X128500000Y-63912500D03*
X128500000Y-64412500D03*
X128500000Y-64912500D03*
X128500000Y-65412500D03*
X128500000Y-65912500D03*
X128500000Y-66412500D03*
X128500000Y-66912500D03*
X128500000Y-67412500D03*
X128500000Y-67912500D03*
X128500000Y-68412500D03*
X128500000Y-68912500D03*
X128500000Y-69412500D03*
X128500000Y-69912500D03*
X128500000Y-70412500D03*
X128500000Y-70912500D03*
X128500000Y-71412500D03*
X128500000Y-71912500D03*
X128500000Y-72412500D03*
X128500000Y-72912500D03*
X128500000Y-73412500D03*
X128500000Y-73912500D03*
X128500000Y-74412500D03*
X128500000Y-74912500D03*
X128500000Y-75412500D03*
X128500000Y-75912500D03*
X128500000Y-76412500D03*
X128500000Y-76912500D03*
X128500000Y-77412500D03*
X128500000Y-77912500D03*
X128500000Y-78412500D03*
X128500000Y-78912500D03*
X128500000Y-79412500D03*
D15*
X130412500Y-81325000D03*
X130912500Y-81325000D03*
X131412500Y-81325000D03*
X131912500Y-81325000D03*
X132412500Y-81325000D03*
X132912500Y-81325000D03*
X133412500Y-81325000D03*
X133912500Y-81325000D03*
X134412500Y-81325000D03*
X134912500Y-81325000D03*
X135412500Y-81325000D03*
X135912500Y-81325000D03*
X136412500Y-81325000D03*
X136912500Y-81325000D03*
X137412500Y-81325000D03*
X137912500Y-81325000D03*
X138412500Y-81325000D03*
X138912500Y-81325000D03*
X139412500Y-81325000D03*
X139912500Y-81325000D03*
X140412500Y-81325000D03*
X140912500Y-81325000D03*
X141412500Y-81325000D03*
X141912500Y-81325000D03*
X142412500Y-81325000D03*
X142912500Y-81325000D03*
X143412500Y-81325000D03*
X143912500Y-81325000D03*
X144412500Y-81325000D03*
X144912500Y-81325000D03*
X145412500Y-81325000D03*
X145912500Y-81325000D03*
X146412500Y-81325000D03*
X146912500Y-81325000D03*
X147412500Y-81325000D03*
X147912500Y-81325000D03*
D14*
X149825000Y-79412500D03*
X149825000Y-78912500D03*
X149825000Y-78412500D03*
X149825000Y-77912500D03*
X149825000Y-77412500D03*
X149825000Y-76912500D03*
X149825000Y-76412500D03*
X149825000Y-75912500D03*
X149825000Y-75412500D03*
X149825000Y-74912500D03*
X149825000Y-74412500D03*
X149825000Y-73912500D03*
X149825000Y-73412500D03*
X149825000Y-72912500D03*
X149825000Y-72412500D03*
X149825000Y-71912500D03*
X149825000Y-71412500D03*
X149825000Y-70912500D03*
X149825000Y-70412500D03*
X149825000Y-69912500D03*
X149825000Y-69412500D03*
X149825000Y-68912500D03*
X149825000Y-68412500D03*
X149825000Y-67912500D03*
X149825000Y-67412500D03*
X149825000Y-66912500D03*
X149825000Y-66412500D03*
X149825000Y-65912500D03*
X149825000Y-65412500D03*
X149825000Y-64912500D03*
X149825000Y-64412500D03*
X149825000Y-63912500D03*
X149825000Y-63412500D03*
X149825000Y-62912500D03*
X149825000Y-62412500D03*
X149825000Y-61912500D03*
D15*
X147912500Y-60000000D03*
X147412500Y-60000000D03*
X146912500Y-60000000D03*
X146412500Y-60000000D03*
X145912500Y-60000000D03*
X145412500Y-60000000D03*
X144912500Y-60000000D03*
X144412500Y-60000000D03*
X143912500Y-60000000D03*
X143412500Y-60000000D03*
X142912500Y-60000000D03*
X142412500Y-60000000D03*
X141912500Y-60000000D03*
X141412500Y-60000000D03*
X140912500Y-60000000D03*
X140412500Y-60000000D03*
X139912500Y-60000000D03*
X139412500Y-60000000D03*
X138912500Y-60000000D03*
X138412500Y-60000000D03*
X137912500Y-60000000D03*
X137412500Y-60000000D03*
X136912500Y-60000000D03*
X136412500Y-60000000D03*
X135912500Y-60000000D03*
X135412500Y-60000000D03*
X134912500Y-60000000D03*
X134412500Y-60000000D03*
X133912500Y-60000000D03*
X133412500Y-60000000D03*
X132912500Y-60000000D03*
X132412500Y-60000000D03*
X131912500Y-60000000D03*
X131412500Y-60000000D03*
X130912500Y-60000000D03*
X130412500Y-60000000D03*
%TD*%
M02*
