%TF.GenerationSoftware,KiCad,Pcbnew,8.0.6*%
%TF.CreationDate,2024-11-07T17:09:19-06:00*%
%TF.ProjectId,CameraAI_PCB,43616d65-7261-4414-995f-5043422e6b69,rev?*%
%TF.SameCoordinates,Original*%
%TF.FileFunction,Copper,L2,Bot*%
%TF.FilePolarity,Positive*%
%FSLAX46Y46*%
G04 Gerber Fmt 4.6, Leading zero omitted, Abs format (unit mm)*
G04 Created by KiCad (PCBNEW 8.0.6) date 2024-11-07 17:09:19*
%MOMM*%
%LPD*%
G01*
G04 APERTURE LIST*
G04 Aperture macros list*
%AMRoundRect*
0 Rectangle with rounded corners*
0 $1 Rounding radius*
0 $2 $3 $4 $5 $6 $7 $8 $9 X,Y pos of 4 corners*
0 Add a 4 corners polygon primitive as box body*
4,1,4,$2,$3,$4,$5,$6,$7,$8,$9,$2,$3,0*
0 Add four circle primitives for the rounded corners*
1,1,$1+$1,$2,$3*
1,1,$1+$1,$4,$5*
1,1,$1+$1,$6,$7*
1,1,$1+$1,$8,$9*
0 Add four rect primitives between the rounded corners*
20,1,$1+$1,$2,$3,$4,$5,0*
20,1,$1+$1,$4,$5,$6,$7,0*
20,1,$1+$1,$6,$7,$8,$9,0*
20,1,$1+$1,$8,$9,$2,$3,0*%
G04 Aperture macros list end*
%TA.AperFunction,ComponentPad*%
%ADD10R,1.700000X1.700000*%
%TD*%
%TA.AperFunction,ComponentPad*%
%ADD11O,1.700000X1.700000*%
%TD*%
%TA.AperFunction,ComponentPad*%
%ADD12RoundRect,0.250000X-0.350000X-0.350000X0.350000X-0.350000X0.350000X0.350000X-0.350000X0.350000X0*%
%TD*%
%TA.AperFunction,ComponentPad*%
%ADD13C,1.200000*%
%TD*%
%TA.AperFunction,ComponentPad*%
%ADD14O,1.200000X2.400000*%
%TD*%
%TA.AperFunction,ComponentPad*%
%ADD15O,1.200000X2.100000*%
%TD*%
%TA.AperFunction,SMDPad,CuDef*%
%ADD16RoundRect,0.250000X0.337500X0.475000X-0.337500X0.475000X-0.337500X-0.475000X0.337500X-0.475000X0*%
%TD*%
%TA.AperFunction,SMDPad,CuDef*%
%ADD17RoundRect,0.250000X-0.337500X-0.475000X0.337500X-0.475000X0.337500X0.475000X-0.337500X0.475000X0*%
%TD*%
%TA.AperFunction,SMDPad,CuDef*%
%ADD18RoundRect,0.250000X-0.450000X0.350000X-0.450000X-0.350000X0.450000X-0.350000X0.450000X0.350000X0*%
%TD*%
%TA.AperFunction,ViaPad*%
%ADD19C,0.600000*%
%TD*%
%TA.AperFunction,Conductor*%
%ADD20C,0.200000*%
%TD*%
G04 APERTURE END LIST*
D10*
%TO.P,J1,1,Pin_1*%
%TO.N,+3.3V*%
X94460000Y-54920000D03*
D11*
%TO.P,J1,2,Pin_2*%
%TO.N,OV_SCL*%
X97000000Y-54920000D03*
%TO.P,J1,3,Pin_3*%
%TO.N,OV_VS*%
X94460000Y-57460000D03*
%TO.P,J1,4,Pin_4*%
%TO.N,PIXCLK*%
X97000000Y-57460000D03*
%TO.P,J1,5,Pin_5*%
%TO.N,DCMI_D7*%
X94460000Y-60000000D03*
%TO.P,J1,6,Pin_6*%
%TO.N,DCMI_D5*%
X97000000Y-60000000D03*
%TO.P,J1,7,Pin_7*%
%TO.N,DCMI_D3*%
X94460000Y-62540000D03*
%TO.P,J1,8,Pin_8*%
%TO.N,DCMI_D1*%
X97000000Y-62540000D03*
%TO.P,J1,9,Pin_9*%
%TO.N,CAMERA_RESET*%
X94460000Y-65080000D03*
%TO.P,J1,10,Pin_10*%
%TO.N,CAMERA_PWDN*%
X97000000Y-65080000D03*
%TO.P,J1,11,Pin_11*%
%TO.N,DCMI_D0*%
X94460000Y-67620000D03*
%TO.P,J1,12,Pin_12*%
%TO.N,DCMI_D2*%
X97000000Y-67620000D03*
%TO.P,J1,13,Pin_13*%
%TO.N,DCMI_D4*%
X94460000Y-70160000D03*
%TO.P,J1,14,Pin_14*%
%TO.N,DCMI_D6*%
X97000000Y-70160000D03*
%TO.P,J1,15,Pin_15*%
%TO.N,MCLK*%
X94460000Y-72700000D03*
%TO.P,J1,16,Pin_16*%
%TO.N,OV_HS*%
X97000000Y-72700000D03*
%TO.P,J1,17,Pin_17*%
%TO.N,OV_SDA*%
X94460000Y-75240000D03*
%TO.P,J1,18,Pin_18*%
%TO.N,GND*%
X97000000Y-75240000D03*
%TD*%
D10*
%TO.P,J3,1,Pin_1*%
%TO.N,+5V*%
X163340000Y-68000000D03*
D11*
%TO.P,J3,2,Pin_2*%
%TO.N,ST_LINK_SWDIO*%
X165880000Y-68000000D03*
%TO.P,J3,3,Pin_3*%
%TO.N,ST_LINK_SWCLK*%
X168420000Y-68000000D03*
%TO.P,J3,4,Pin_4*%
%TO.N,+3.3V*%
X170960000Y-68000000D03*
%TO.P,J3,5,Pin_5*%
%TO.N,GND*%
X173500000Y-68000000D03*
%TO.P,J3,6,Pin_6*%
%TO.N,ST_LINK_RESET*%
X176040000Y-68000000D03*
%TO.P,J3,7,Pin_7*%
%TO.N,GND*%
X178580000Y-68000000D03*
%TD*%
D10*
%TO.P,J6,1,Pin_1*%
%TO.N,+3.3V*%
X151920000Y-102000000D03*
D11*
%TO.P,J6,2,Pin_2*%
%TO.N,UART4_TX*%
X154460000Y-102000000D03*
%TO.P,J6,3,Pin_3*%
%TO.N,UART4_RX*%
X157000000Y-102000000D03*
%TO.P,J6,4,Pin_4*%
%TO.N,GND*%
X159540000Y-102000000D03*
%TD*%
D12*
%TO.P,J2,1,VBUS*%
%TO.N,+5V*%
X96500000Y-92500000D03*
D13*
%TO.P,J2,2,D-*%
%TO.N,unconnected-(J2-D--Pad2)*%
X99000000Y-92500000D03*
%TO.P,J2,3,D+*%
%TO.N,unconnected-(J2-D+-Pad3)*%
X101000000Y-92500000D03*
%TO.P,J2,4,GND*%
%TO.N,GND*%
X103500000Y-92500000D03*
%TO.P,J2,5,Shield*%
%TO.N,unconnected-(J2-Shield-Pad5)*%
X104000000Y-91000000D03*
%TO.P,J2,6*%
%TO.N,N/C*%
X102000000Y-91000000D03*
%TO.P,J2,7*%
X100000000Y-91000000D03*
%TO.P,J2,8*%
X98000000Y-91000000D03*
%TO.P,J2,9*%
X96000000Y-91000000D03*
D14*
%TO.P,J2,10*%
X93600000Y-91750000D03*
D15*
X93600000Y-100250000D03*
D14*
X106400000Y-91750000D03*
D15*
X106400000Y-100250000D03*
%TD*%
D10*
%TO.P,J7,1,Pin_1*%
%TO.N,+5V*%
X166500000Y-72000000D03*
D11*
%TO.P,J7,2,Pin_2*%
%TO.N,+3.3V*%
X169040000Y-72000000D03*
%TO.P,J7,3,Pin_3*%
%TO.N,GND*%
X171580000Y-72000000D03*
%TD*%
D10*
%TO.P,J5,1,Pin_1*%
%TO.N,PH1*%
X121725000Y-70500000D03*
D11*
%TO.P,J5,2,Pin_2*%
%TO.N,PH0*%
X124265000Y-70500000D03*
%TD*%
D10*
%TO.P,J8,1,Pin_1*%
%TO.N,PD7*%
X189500000Y-58960000D03*
D11*
%TO.P,J8,2,Pin_2*%
%TO.N,PD6*%
X189500000Y-61500000D03*
%TO.P,J8,3,Pin_3*%
%TO.N,PD13*%
X189500000Y-64040000D03*
%TO.P,J8,4,Pin_4*%
%TO.N,PD12*%
X189500000Y-66580000D03*
%TO.P,J8,5,Pin_5*%
%TO.N,PD11*%
X189500000Y-69120000D03*
%TO.P,J8,6,Pin_6*%
%TO.N,PD10*%
X189500000Y-71660000D03*
%TO.P,J8,7,Pin_7*%
%TO.N,PD9*%
X189500000Y-74200000D03*
%TO.P,J8,8,Pin_8*%
%TO.N,PD8*%
X189500000Y-76740000D03*
%TD*%
D10*
%TO.P,J4,1,Pin_1*%
%TO.N,+3.3V*%
X189500000Y-87460000D03*
D11*
%TO.P,J4,2,Pin_2*%
%TO.N,SPI_NSS*%
X189500000Y-90000000D03*
%TO.P,J4,3,Pin_3*%
%TO.N,SPI_MOSI*%
X189500000Y-92540000D03*
%TO.P,J4,4,Pin_4*%
%TO.N,SPI_SCK*%
X189500000Y-95080000D03*
%TO.P,J4,5,Pin_5*%
%TO.N,SPI_MISO*%
X189500000Y-97620000D03*
%TO.P,J4,6,Pin_6*%
%TO.N,GND*%
X189500000Y-100160000D03*
%TD*%
D16*
%TO.P,C11,1*%
%TO.N,GND*%
X138037500Y-63490000D03*
%TO.P,C11,2*%
%TO.N,+3.3V*%
X135962500Y-63490000D03*
%TD*%
D17*
%TO.P,C17,1*%
%TO.N,GND*%
X131925000Y-66500000D03*
%TO.P,C17,2*%
%TO.N,+3.3V*%
X134000000Y-66500000D03*
%TD*%
D16*
%TO.P,C13,1*%
%TO.N,GND*%
X138037500Y-69510000D03*
%TO.P,C13,2*%
%TO.N,+3.3V*%
X135962500Y-69510000D03*
%TD*%
%TO.P,C19,1*%
%TO.N,+3.3V*%
X134000000Y-72520000D03*
%TO.P,C19,2*%
%TO.N,GND*%
X131925000Y-72520000D03*
%TD*%
D18*
%TO.P,R2,1*%
%TO.N,VREF+*%
X125500000Y-77500000D03*
%TO.P,R2,2*%
%TO.N,+3.3V*%
X125500000Y-79500000D03*
%TD*%
D16*
%TO.P,C18,1*%
%TO.N,+3.3V*%
X134000000Y-69510000D03*
%TO.P,C18,2*%
%TO.N,GND*%
X131925000Y-69510000D03*
%TD*%
%TO.P,C8,1*%
%TO.N,GND*%
X142037500Y-69500000D03*
%TO.P,C8,2*%
%TO.N,+3.3V*%
X139962500Y-69500000D03*
%TD*%
%TO.P,C2,1*%
%TO.N,GND*%
X146537500Y-76500000D03*
%TO.P,C2,2*%
%TO.N,+5V*%
X144462500Y-76500000D03*
%TD*%
%TO.P,C7,1*%
%TO.N,GND*%
X142037500Y-67000000D03*
%TO.P,C7,2*%
%TO.N,+3.3V*%
X139962500Y-67000000D03*
%TD*%
%TO.P,C12,1*%
%TO.N,GND*%
X138037500Y-66500000D03*
%TO.P,C12,2*%
%TO.N,+3.3V*%
X135962500Y-66500000D03*
%TD*%
%TO.P,C16,1*%
%TO.N,GND*%
X134000000Y-63490000D03*
%TO.P,C16,2*%
%TO.N,+3.3V*%
X131925000Y-63490000D03*
%TD*%
%TO.P,C23,1*%
%TO.N,GND*%
X156037500Y-64000000D03*
%TO.P,C23,2*%
%TO.N,VCAP2*%
X153962500Y-64000000D03*
%TD*%
D18*
%TO.P,R3,1*%
%TO.N,NRST*%
X125500000Y-73500000D03*
%TO.P,R3,2*%
%TO.N,+3.3V*%
X125500000Y-75500000D03*
%TD*%
D16*
%TO.P,C15,1*%
%TO.N,GND*%
X138075000Y-75000000D03*
%TO.P,C15,2*%
%TO.N,+3.3V*%
X136000000Y-75000000D03*
%TD*%
%TO.P,C6,1*%
%TO.N,GND*%
X142037500Y-64490000D03*
%TO.P,C6,2*%
%TO.N,+3.3V*%
X139962500Y-64490000D03*
%TD*%
D17*
%TO.P,C4,1*%
%TO.N,+3.3V*%
X143962500Y-72000000D03*
%TO.P,C4,2*%
%TO.N,GND*%
X146037500Y-72000000D03*
%TD*%
D16*
%TO.P,C10,1*%
%TO.N,GND*%
X146190000Y-69490000D03*
%TO.P,C10,2*%
%TO.N,+3.3V*%
X144115000Y-69490000D03*
%TD*%
%TO.P,C14,1*%
%TO.N,GND*%
X138037500Y-72520000D03*
%TO.P,C14,2*%
%TO.N,+3.3V*%
X135962500Y-72520000D03*
%TD*%
%TO.P,C5,1*%
%TO.N,GND*%
X146037500Y-67000000D03*
%TO.P,C5,2*%
%TO.N,+3.3V*%
X143962500Y-67000000D03*
%TD*%
%TO.P,C3,1*%
%TO.N,+3.3V*%
X134537500Y-78000000D03*
%TO.P,C3,2*%
%TO.N,GND*%
X132462500Y-78000000D03*
%TD*%
%TO.P,C9,1*%
%TO.N,GND*%
X142037500Y-72000000D03*
%TO.P,C9,2*%
%TO.N,+3.3V*%
X139962500Y-72000000D03*
%TD*%
%TO.P,C20,1*%
%TO.N,+3.3V*%
X133922500Y-75020000D03*
%TO.P,C20,2*%
%TO.N,GND*%
X131847500Y-75020000D03*
%TD*%
%TO.P,C1,1*%
%TO.N,GND*%
X146037500Y-64500000D03*
%TO.P,C1,2*%
%TO.N,NRST*%
X143962500Y-64500000D03*
%TD*%
D19*
%TO.N,GND*%
X139500000Y-58000000D03*
X118500000Y-51000000D03*
X148000000Y-86000000D03*
X118500000Y-54000000D03*
X93000000Y-82000000D03*
X186000000Y-102000000D03*
X93000000Y-85000000D03*
X133005000Y-62495000D03*
X130500000Y-78000000D03*
X150000000Y-85000000D03*
X186000000Y-104500000D03*
X167500000Y-104500000D03*
X147000000Y-79500000D03*
X156000000Y-59500000D03*
X154000000Y-87000000D03*
X167500000Y-101500000D03*
X149500000Y-90500000D03*
X138412500Y-61412500D03*
X147000000Y-75000000D03*
X131000000Y-65500000D03*
X135500000Y-78900000D03*
X139000000Y-56000000D03*
%TO.N,NRST*%
X143500000Y-65500000D03*
X127000000Y-73500000D03*
%TO.N,+5V*%
X148000000Y-73500000D03*
X142000000Y-76500000D03*
%TO.N,+3.3V*%
X130000000Y-77000000D03*
X148500000Y-82500000D03*
X131000000Y-61500000D03*
X122000000Y-65500000D03*
X152000000Y-63500000D03*
X137182410Y-61500000D03*
X128000000Y-80500000D03*
X130500000Y-71000000D03*
X130500002Y-54500000D03*
X130500000Y-68000000D03*
X140000000Y-79500000D03*
X139500000Y-62500000D03*
X149750000Y-80250000D03*
X124000000Y-57500000D03*
X148500000Y-78000000D03*
X152500000Y-69000000D03*
X119500000Y-68500000D03*
X133000000Y-79500000D03*
X123400000Y-61900000D03*
X130500000Y-66500000D03*
%TO.N,DCMI_D2*%
X147500000Y-78500000D03*
%TO.N,CAMERA_RESET*%
X143500000Y-79500000D03*
%TO.N,PIXCLK*%
X135000000Y-83500000D03*
X129000000Y-83500000D03*
%TO.N,DCMI_D3*%
X148000000Y-68000000D03*
%TO.N,DCMI_D1*%
X148000000Y-69000000D03*
%TO.N,DCMI_D5*%
X127000000Y-58500000D03*
X145500000Y-57000000D03*
%TO.N,OV_SDA*%
X136150000Y-56150000D03*
X92000000Y-75000000D03*
%TO.N,CAMERA_PWDN*%
X141500000Y-79500000D03*
%TO.N,OV_SCL*%
X133500000Y-58000000D03*
X137000000Y-58000000D03*
%TO.N,DCMI_D6*%
X125500000Y-63000000D03*
X122000000Y-63500000D03*
%TO.N,MCLK*%
X148000000Y-66500000D03*
%TO.N,DCMI_D4*%
X124500000Y-62500000D03*
X121000000Y-62500000D03*
%TO.N,OV_VS*%
X130500000Y-57000000D03*
X141000000Y-57000000D03*
%TO.N,OV_HS*%
X133000000Y-85000000D03*
X128500000Y-86000000D03*
%TO.N,DCMI_D0*%
X148483795Y-69983795D03*
%TO.N,PH1*%
X130000000Y-74412500D03*
%TO.N,PH0*%
X130000000Y-73500000D03*
%TO.N,VREF+*%
X127000000Y-77500000D03*
%TO.N,VCAP2*%
X153000000Y-64000000D03*
%TO.N,VCAP3*%
X131500000Y-58000000D03*
X128500000Y-57500000D03*
X122000000Y-57000000D03*
X126500000Y-54000000D03*
%TD*%
D20*
%TO.N,GND*%
X138037500Y-63490000D02*
X138037500Y-66500000D01*
X132462500Y-78000000D02*
X133487500Y-79025000D01*
X137360000Y-62465000D02*
X137012500Y-62465000D01*
X169500000Y-64000000D02*
X173500000Y-68000000D01*
X145012500Y-63475000D02*
X146037500Y-64500000D01*
X132462500Y-78000000D02*
X132462500Y-75635000D01*
X142037500Y-64462500D02*
X143025000Y-63475000D01*
X118500000Y-51000000D02*
X118500000Y-54000000D01*
X156000000Y-59500000D02*
X156000000Y-60000000D01*
X141600000Y-56600000D02*
X141000000Y-56000000D01*
X140848529Y-58000000D02*
X141600000Y-57248529D01*
X139500000Y-58000000D02*
X140848529Y-58000000D01*
X149000000Y-86000000D02*
X148000000Y-86000000D01*
X133005000Y-62495000D02*
X134000000Y-63490000D01*
X156000000Y-60000000D02*
X156037500Y-60037500D01*
X156037500Y-60037500D02*
X156037500Y-64000000D01*
X167500000Y-101500000D02*
X167500000Y-104500000D01*
X146037500Y-64500000D02*
X146037500Y-67000000D01*
X137012500Y-62465000D02*
X138037500Y-63490000D01*
X131000000Y-65500000D02*
X131000000Y-62500000D01*
X146190000Y-71847500D02*
X146037500Y-72000000D01*
X131925000Y-66425000D02*
X131000000Y-65500000D01*
X131035000Y-62465000D02*
X132975000Y-62465000D01*
X138037500Y-69510000D02*
X138037500Y-72520000D01*
X147000000Y-79500000D02*
X145600000Y-79500000D01*
X156037500Y-64000000D02*
X169500000Y-64000000D01*
X134000000Y-63490000D02*
X135025000Y-62465000D01*
X132462500Y-78000000D02*
X130500000Y-78000000D01*
X141400000Y-76251471D02*
X142176471Y-75475000D01*
X153000000Y-87000000D02*
X149500000Y-90500000D01*
X93000000Y-82000000D02*
X93000000Y-85000000D01*
X150000000Y-85000000D02*
X149000000Y-86000000D01*
X138075000Y-75000000D02*
X139037500Y-75000000D01*
X142037500Y-67000000D02*
X142037500Y-64490000D01*
X143200000Y-77100000D02*
X141751471Y-77100000D01*
X154000000Y-87000000D02*
X153000000Y-87000000D01*
X133487500Y-79025000D02*
X135375000Y-79025000D01*
X145600000Y-79500000D02*
X143200000Y-77100000D01*
X186000000Y-102000000D02*
X186000000Y-104500000D01*
X147000000Y-75000000D02*
X147000000Y-76037500D01*
X132975000Y-62465000D02*
X133005000Y-62495000D01*
X141400000Y-76748529D02*
X141400000Y-76251471D01*
X141000000Y-56000000D02*
X139000000Y-56000000D01*
X142037500Y-72000000D02*
X142037500Y-69500000D01*
X135025000Y-62465000D02*
X137012500Y-62465000D01*
X132462500Y-75635000D02*
X131847500Y-75020000D01*
X141600000Y-57248529D02*
X141600000Y-56600000D01*
X146037500Y-76000000D02*
X146537500Y-76500000D01*
X139037500Y-75000000D02*
X142037500Y-72000000D01*
X135375000Y-79025000D02*
X135500000Y-78900000D01*
X138037500Y-66500000D02*
X138037500Y-69510000D01*
X146037500Y-69337500D02*
X146190000Y-69490000D01*
X131925000Y-66500000D02*
X131925000Y-66425000D01*
X142037500Y-64490000D02*
X142037500Y-64462500D01*
X131847500Y-72597500D02*
X131925000Y-72520000D01*
X142037500Y-69500000D02*
X142037500Y-67000000D01*
X146037500Y-67000000D02*
X146037500Y-69337500D01*
X143025000Y-63475000D02*
X145012500Y-63475000D01*
X131000000Y-62500000D02*
X131035000Y-62465000D01*
X147000000Y-76037500D02*
X146537500Y-76500000D01*
X146190000Y-69490000D02*
X146190000Y-71847500D01*
X141751471Y-77100000D02*
X141400000Y-76748529D01*
X145512500Y-75475000D02*
X146537500Y-76500000D01*
X131925000Y-69510000D02*
X131925000Y-66500000D01*
X131847500Y-75020000D02*
X131847500Y-72597500D01*
X138037500Y-72520000D02*
X138037500Y-74962500D01*
X138412500Y-61412500D02*
X137360000Y-62465000D01*
X138037500Y-74962500D02*
X138075000Y-75000000D01*
X131925000Y-72520000D02*
X131925000Y-69510000D01*
X142176471Y-75475000D02*
X145512500Y-75475000D01*
%TO.N,NRST*%
X143962500Y-64500000D02*
X143962500Y-65037500D01*
X125500000Y-73500000D02*
X127000000Y-73500000D01*
X143962500Y-65037500D02*
X143500000Y-65500000D01*
%TO.N,+5V*%
X142000000Y-76500000D02*
X144462500Y-76500000D01*
X148600000Y-76748529D02*
X147823529Y-77525000D01*
X145487500Y-77525000D02*
X144462500Y-76500000D01*
X148000000Y-73500000D02*
X148000000Y-74000000D01*
X147823529Y-77525000D02*
X145487500Y-77525000D01*
X148000000Y-74000000D02*
X148600000Y-74600000D01*
X148600000Y-74600000D02*
X148600000Y-76748529D01*
%TO.N,+3.3V*%
X134000000Y-66500000D02*
X135962500Y-66500000D01*
X139500000Y-62500000D02*
X139500000Y-63000000D01*
X143962500Y-67000000D02*
X143962500Y-69337500D01*
X121000000Y-65500000D02*
X118000000Y-62500000D01*
X143962500Y-72000000D02*
X143962500Y-73537500D01*
X144115000Y-69490000D02*
X144115000Y-71847500D01*
X133922500Y-75020000D02*
X133922500Y-72597500D01*
X134000000Y-72520000D02*
X135962500Y-72520000D01*
X118000000Y-62500000D02*
X118600000Y-61900000D01*
X139962500Y-67000000D02*
X139962500Y-64490000D01*
X143962500Y-69337500D02*
X144115000Y-69490000D01*
X133922500Y-72597500D02*
X134000000Y-72520000D01*
X124000000Y-57500000D02*
X123000000Y-57500000D01*
X135962500Y-66500000D02*
X135962500Y-63490000D01*
X135962500Y-72520000D02*
X135962500Y-71472500D01*
X134537500Y-76462500D02*
X136000000Y-75000000D01*
X133942500Y-75000000D02*
X133922500Y-75020000D01*
X135962500Y-69510000D02*
X135962500Y-66500000D01*
X125500000Y-79500000D02*
X124000000Y-79500000D01*
X139962500Y-64490000D02*
X139962500Y-63537500D01*
X149750000Y-79250000D02*
X149750000Y-80250000D01*
X118600000Y-61900000D02*
X123400000Y-61900000D01*
X130000000Y-62500000D02*
X130000000Y-63000000D01*
X131000000Y-61500000D02*
X130000000Y-62500000D01*
X139962500Y-63462500D02*
X139962500Y-64490000D01*
X131925000Y-64425000D02*
X134000000Y-66500000D01*
X139500000Y-63000000D02*
X139962500Y-63462500D01*
X143962500Y-73537500D02*
X143500000Y-74000000D01*
X134537500Y-78000000D02*
X134537500Y-76462500D01*
X134537500Y-78000000D02*
X136000000Y-78000000D01*
X136000000Y-75000000D02*
X133942500Y-75000000D01*
X122000000Y-65500000D02*
X121000000Y-65500000D01*
X139962500Y-63537500D02*
X141000000Y-62500000D01*
X144115000Y-71847500D02*
X143962500Y-72000000D01*
X148500000Y-78000000D02*
X149750000Y-79250000D01*
X135962500Y-71472500D02*
X134000000Y-69510000D01*
X134000000Y-69510000D02*
X135962500Y-69510000D01*
X139962500Y-69500000D02*
X139962500Y-67000000D01*
X139962500Y-72000000D02*
X139962500Y-69500000D01*
X131925000Y-63490000D02*
X131925000Y-64425000D01*
%TO.N,DCMI_D2*%
X101500000Y-83000000D02*
X128651471Y-83000000D01*
X128651471Y-83000000D02*
X128751471Y-82900000D01*
X97000000Y-67620000D02*
X101500000Y-72120000D01*
X145000000Y-83000000D02*
X146500000Y-81500000D01*
X101500000Y-72120000D02*
X101500000Y-83000000D01*
X144500000Y-83000000D02*
X145000000Y-83000000D01*
X144400000Y-82900000D02*
X144500000Y-83000000D01*
X150000000Y-81500000D02*
X147500000Y-79000000D01*
X128751471Y-82900000D02*
X144400000Y-82900000D01*
X147500000Y-79000000D02*
X147500000Y-78500000D01*
X146500000Y-81500000D02*
X150000000Y-81500000D01*
%TO.N,CAMERA_RESET*%
X111500000Y-82500000D02*
X140500000Y-82500000D01*
X97476346Y-66470000D02*
X111000000Y-79993654D01*
X95850000Y-66470000D02*
X97476346Y-66470000D01*
X140500000Y-82500000D02*
X143500000Y-79500000D01*
X111000000Y-79993654D02*
X111000000Y-82000000D01*
X94460000Y-65080000D02*
X95850000Y-66470000D01*
X111000000Y-82000000D02*
X111500000Y-82500000D01*
%TO.N,PIXCLK*%
X129000000Y-83500000D02*
X135000000Y-83500000D01*
%TO.N,DCMI_D3*%
X95850000Y-61150000D02*
X129350000Y-61150000D01*
X130500000Y-60000000D02*
X144500000Y-60000000D01*
X144500000Y-60000000D02*
X147400000Y-62900000D01*
X147400000Y-62900000D02*
X147400000Y-67400000D01*
X129350000Y-61150000D02*
X130500000Y-60000000D01*
X94460000Y-62540000D02*
X95850000Y-61150000D01*
X147400000Y-67400000D02*
X148000000Y-68000000D01*
%TO.N,DCMI_D1*%
X144434314Y-60500000D02*
X147000000Y-63065686D01*
X147000000Y-63065686D02*
X147000000Y-68000000D01*
X147000000Y-68000000D02*
X148000000Y-69000000D01*
X101460000Y-67000000D02*
X124651471Y-67000000D01*
X97000000Y-62540000D02*
X101460000Y-67000000D01*
X131151471Y-60500000D02*
X144434314Y-60500000D01*
X124651471Y-67000000D02*
X131151471Y-60500000D01*
%TO.N,DCMI_D5*%
X127000000Y-58500000D02*
X127100000Y-58600000D01*
X127100000Y-58600000D02*
X143900000Y-58600000D01*
X143900000Y-58600000D02*
X145500000Y-57000000D01*
%TO.N,OV_SDA*%
X128251471Y-56400000D02*
X135900000Y-56400000D01*
X92190000Y-56310000D02*
X98700000Y-56310000D01*
X101000000Y-58610000D02*
X126041471Y-58610000D01*
X92000000Y-75000000D02*
X92000000Y-56500000D01*
X135900000Y-56400000D02*
X136150000Y-56150000D01*
X98700000Y-56310000D02*
X101000000Y-58610000D01*
X126041471Y-58610000D02*
X128251471Y-56400000D01*
X92000000Y-56500000D02*
X92190000Y-56310000D01*
%TO.N,CAMERA_PWDN*%
X113020000Y-81100000D02*
X139900000Y-81100000D01*
X139900000Y-81100000D02*
X141500000Y-79500000D01*
X97000000Y-65080000D02*
X113020000Y-81100000D01*
%TO.N,OV_SCL*%
X137000000Y-58000000D02*
X133500000Y-58000000D01*
%TO.N,DCMI_D6*%
X125000000Y-63500000D02*
X125500000Y-63000000D01*
X122000000Y-63500000D02*
X125000000Y-63500000D01*
%TO.N,MCLK*%
X93000000Y-61000000D02*
X93000000Y-71240000D01*
X93000000Y-59000000D02*
X93000000Y-61000000D01*
X97476346Y-58850000D02*
X93150000Y-58850000D01*
X98126346Y-59500000D02*
X97476346Y-58850000D01*
X93150000Y-58850000D02*
X93000000Y-59000000D01*
X93000000Y-71240000D02*
X94460000Y-72700000D01*
X148000000Y-59500000D02*
X98126346Y-59500000D01*
X148000000Y-66500000D02*
X148000000Y-59500000D01*
%TO.N,DCMI_D4*%
X121000000Y-62500000D02*
X124500000Y-62500000D01*
%TO.N,OV_VS*%
X130500000Y-57000000D02*
X141000000Y-57000000D01*
%TO.N,OV_HS*%
X132000000Y-86000000D02*
X133000000Y-85000000D01*
X128500000Y-86000000D02*
X132000000Y-86000000D01*
%TO.N,DCMI_D0*%
X94460000Y-67620000D02*
X95850000Y-69010000D01*
X95850000Y-77915685D02*
X102934315Y-85000000D01*
X102934315Y-85000000D02*
X104000000Y-85000000D01*
X147665686Y-84400000D02*
X150500000Y-81565686D01*
X95850000Y-69010000D02*
X95850000Y-77915685D01*
X150500000Y-72000000D02*
X148483795Y-69983795D01*
X104000000Y-85000000D02*
X104600000Y-84400000D01*
X104600000Y-84400000D02*
X147665686Y-84400000D01*
X150500000Y-81565686D02*
X150500000Y-72000000D01*
%TO.N,PH1*%
X127487500Y-71900000D02*
X123125000Y-71900000D01*
X130000000Y-74412500D02*
X127487500Y-71900000D01*
X123125000Y-71900000D02*
X121725000Y-70500000D01*
%TO.N,PH0*%
X130000000Y-73500000D02*
X128000000Y-71500000D01*
X128000000Y-71500000D02*
X125265000Y-71500000D01*
X125265000Y-71500000D02*
X124265000Y-70500000D01*
%TO.N,VREF+*%
X125500000Y-77500000D02*
X127000000Y-77500000D01*
%TO.N,VCAP2*%
X153000000Y-64000000D02*
X153962500Y-64000000D01*
%TO.N,VCAP3*%
X127000000Y-54500000D02*
X126500000Y-54000000D01*
X129000000Y-58000000D02*
X128500000Y-57500000D01*
X131500000Y-58000000D02*
X129000000Y-58000000D01*
X122000000Y-57000000D02*
X123500000Y-55500000D01*
X127000000Y-55000000D02*
X127000000Y-54500000D01*
X123500000Y-55500000D02*
X126500000Y-55500000D01*
X126500000Y-55500000D02*
X127000000Y-55000000D01*
%TD*%
%TA.AperFunction,Conductor*%
%TO.N,+3.3V*%
G36*
X148883628Y-82120185D02*
G01*
X148929383Y-82172989D01*
X148939327Y-82242147D01*
X148910302Y-82305703D01*
X148904270Y-82312181D01*
X147453270Y-83763181D01*
X147391947Y-83796666D01*
X147365589Y-83799500D01*
X145275950Y-83799500D01*
X145208911Y-83779815D01*
X145163156Y-83727011D01*
X145153212Y-83657853D01*
X145182237Y-83594297D01*
X145224746Y-83563644D01*
X145224745Y-83563642D01*
X145224767Y-83563629D01*
X145228498Y-83560939D01*
X145231782Y-83559578D01*
X145231782Y-83559577D01*
X145231785Y-83559577D01*
X145281904Y-83530639D01*
X145368716Y-83480520D01*
X145480520Y-83368716D01*
X145480520Y-83368714D01*
X145490728Y-83358507D01*
X145490729Y-83358504D01*
X146712416Y-82136819D01*
X146773739Y-82103334D01*
X146800097Y-82100500D01*
X148816589Y-82100500D01*
X148883628Y-82120185D01*
G37*
%TD.AperFunction*%
%TA.AperFunction,Conductor*%
G36*
X130320690Y-62282529D02*
G01*
X130376623Y-62324401D01*
X130401040Y-62389865D01*
X130400295Y-62414898D01*
X130399499Y-62420943D01*
X130399499Y-62589046D01*
X130399500Y-62589059D01*
X130399500Y-64917587D01*
X130379815Y-64984626D01*
X130372450Y-64994896D01*
X130370186Y-64997734D01*
X130274211Y-65150476D01*
X130214633Y-65320742D01*
X130214630Y-65320750D01*
X130194435Y-65499996D01*
X130194435Y-65500003D01*
X130214630Y-65679249D01*
X130214631Y-65679254D01*
X130274211Y-65849523D01*
X130315180Y-65914724D01*
X130370184Y-66002262D01*
X130497738Y-66129816D01*
X130650478Y-66225789D01*
X130753954Y-66261997D01*
X130810731Y-66302719D01*
X130836478Y-66367672D01*
X130837000Y-66379039D01*
X130837000Y-67025001D01*
X130837001Y-67025019D01*
X130847500Y-67127796D01*
X130847501Y-67127799D01*
X130879972Y-67225789D01*
X130902686Y-67294334D01*
X130994788Y-67443656D01*
X131118844Y-67567712D01*
X131265597Y-67658229D01*
X131312321Y-67710175D01*
X131324500Y-67763767D01*
X131324500Y-68246232D01*
X131304815Y-68313271D01*
X131265598Y-68351769D01*
X131207941Y-68387333D01*
X131118842Y-68442289D01*
X130994789Y-68566342D01*
X130902687Y-68715663D01*
X130902686Y-68715666D01*
X130847501Y-68882203D01*
X130847501Y-68882204D01*
X130847500Y-68882204D01*
X130837000Y-68984983D01*
X130837000Y-70035001D01*
X130837001Y-70035019D01*
X130847500Y-70137796D01*
X130847501Y-70137799D01*
X130889515Y-70264586D01*
X130902686Y-70304334D01*
X130994788Y-70453656D01*
X131118844Y-70577712D01*
X131265597Y-70668229D01*
X131312321Y-70720175D01*
X131324500Y-70773767D01*
X131324500Y-71256232D01*
X131304815Y-71323271D01*
X131265598Y-71361769D01*
X131191457Y-71407500D01*
X131118842Y-71452289D01*
X130994789Y-71576342D01*
X130902687Y-71725663D01*
X130902685Y-71725668D01*
X130888587Y-71768214D01*
X130847501Y-71892203D01*
X130847501Y-71892204D01*
X130847500Y-71892204D01*
X130837000Y-71994983D01*
X130837000Y-72905560D01*
X130817315Y-72972599D01*
X130764511Y-73018354D01*
X130695353Y-73028298D01*
X130631797Y-72999273D01*
X130625319Y-72993241D01*
X130502262Y-72870184D01*
X130349521Y-72774210D01*
X130179249Y-72714630D01*
X130092330Y-72704837D01*
X130027916Y-72677770D01*
X130018533Y-72669298D01*
X128487590Y-71138355D01*
X128487588Y-71138352D01*
X128368717Y-71019481D01*
X128368716Y-71019480D01*
X128272037Y-70963663D01*
X128272036Y-70963662D01*
X128231783Y-70940422D01*
X128175469Y-70925333D01*
X128079057Y-70899499D01*
X127920943Y-70899499D01*
X127913347Y-70899499D01*
X127913331Y-70899500D01*
X125717695Y-70899500D01*
X125650656Y-70879815D01*
X125604901Y-70827011D01*
X125594957Y-70757853D01*
X125597919Y-70743410D01*
X125598153Y-70742535D01*
X125600063Y-70735408D01*
X125620659Y-70500000D01*
X125600063Y-70264592D01*
X125538903Y-70036337D01*
X125439035Y-69822171D01*
X125426689Y-69804538D01*
X125303494Y-69628597D01*
X125136402Y-69461506D01*
X125136395Y-69461501D01*
X124942834Y-69325967D01*
X124942830Y-69325965D01*
X124942828Y-69325964D01*
X124728663Y-69226097D01*
X124728659Y-69226096D01*
X124728655Y-69226094D01*
X124500413Y-69164938D01*
X124500403Y-69164936D01*
X124265001Y-69144341D01*
X124264999Y-69144341D01*
X124029596Y-69164936D01*
X124029586Y-69164938D01*
X123801344Y-69226094D01*
X123801335Y-69226098D01*
X123587171Y-69325964D01*
X123587169Y-69325965D01*
X123393600Y-69461503D01*
X123271673Y-69583430D01*
X123210350Y-69616914D01*
X123140658Y-69611930D01*
X123084725Y-69570058D01*
X123067810Y-69539081D01*
X123018797Y-69407671D01*
X123018793Y-69407664D01*
X122932547Y-69292455D01*
X122932544Y-69292452D01*
X122817335Y-69206206D01*
X122817328Y-69206202D01*
X122682482Y-69155908D01*
X122682483Y-69155908D01*
X122622883Y-69149501D01*
X122622881Y-69149500D01*
X122622873Y-69149500D01*
X122622864Y-69149500D01*
X120827129Y-69149500D01*
X120827123Y-69149501D01*
X120767516Y-69155908D01*
X120632671Y-69206202D01*
X120632664Y-69206206D01*
X120517455Y-69292452D01*
X120517452Y-69292455D01*
X120431206Y-69407664D01*
X120431202Y-69407671D01*
X120380908Y-69542517D01*
X120374501Y-69602116D01*
X120374500Y-69602135D01*
X120374500Y-71397870D01*
X120374501Y-71397876D01*
X120380908Y-71457483D01*
X120431202Y-71592328D01*
X120431206Y-71592335D01*
X120517452Y-71707544D01*
X120517455Y-71707547D01*
X120632664Y-71793793D01*
X120632671Y-71793797D01*
X120767517Y-71844091D01*
X120767516Y-71844091D01*
X120774444Y-71844835D01*
X120827127Y-71850500D01*
X122174902Y-71850499D01*
X122241941Y-71870184D01*
X122262583Y-71886818D01*
X122640139Y-72264374D01*
X122640149Y-72264385D01*
X122644479Y-72268715D01*
X122644480Y-72268716D01*
X122756284Y-72380520D01*
X122779181Y-72393739D01*
X122843095Y-72430639D01*
X122843097Y-72430641D01*
X122881151Y-72452611D01*
X122893215Y-72459577D01*
X123045943Y-72500501D01*
X123045946Y-72500501D01*
X123211653Y-72500501D01*
X123211669Y-72500500D01*
X124346659Y-72500500D01*
X124413698Y-72520185D01*
X124459453Y-72572989D01*
X124469397Y-72642147D01*
X124452198Y-72689596D01*
X124365189Y-72830659D01*
X124365185Y-72830668D01*
X124344325Y-72893621D01*
X124310001Y-72997203D01*
X124310001Y-72997204D01*
X124310000Y-72997204D01*
X124299500Y-73099983D01*
X124299500Y-73900001D01*
X124299501Y-73900019D01*
X124310000Y-74002796D01*
X124310001Y-74002799D01*
X124348469Y-74118886D01*
X124365186Y-74169334D01*
X124449213Y-74305565D01*
X124457289Y-74318657D01*
X124551304Y-74412672D01*
X124584789Y-74473995D01*
X124579805Y-74543687D01*
X124551305Y-74588034D01*
X124457682Y-74681657D01*
X124365643Y-74830875D01*
X124365641Y-74830880D01*
X124310494Y-74997302D01*
X124310493Y-74997309D01*
X124300000Y-75100013D01*
X124300000Y-75250000D01*
X126699999Y-75250000D01*
X126699999Y-75100028D01*
X126699998Y-75100013D01*
X126689505Y-74997302D01*
X126634358Y-74830880D01*
X126634356Y-74830875D01*
X126542315Y-74681654D01*
X126448695Y-74588034D01*
X126415210Y-74526711D01*
X126420194Y-74457019D01*
X126448691Y-74412676D01*
X126542712Y-74318656D01*
X126556596Y-74296145D01*
X126608542Y-74249420D01*
X126677505Y-74238196D01*
X126703088Y-74244198D01*
X126746283Y-74259312D01*
X126820740Y-74285367D01*
X126820750Y-74285369D01*
X126999996Y-74305565D01*
X127000000Y-74305565D01*
X127000004Y-74305565D01*
X127179249Y-74285369D01*
X127179252Y-74285368D01*
X127179255Y-74285368D01*
X127349522Y-74225789D01*
X127502262Y-74129816D01*
X127629816Y-74002262D01*
X127725789Y-73849522D01*
X127785368Y-73679255D01*
X127789465Y-73642895D01*
X127805565Y-73500003D01*
X127805565Y-73499997D01*
X127790298Y-73364499D01*
X127802352Y-73295677D01*
X127849701Y-73244297D01*
X127917312Y-73226673D01*
X127983718Y-73248399D01*
X128001196Y-73262932D01*
X128587786Y-73849522D01*
X129169298Y-74431034D01*
X129202783Y-74492357D01*
X129204837Y-74504831D01*
X129214630Y-74591749D01*
X129274210Y-74762021D01*
X129370184Y-74914762D01*
X129497738Y-75042316D01*
X129564776Y-75084439D01*
X129599545Y-75106286D01*
X129650478Y-75138289D01*
X129767552Y-75179255D01*
X129820745Y-75197868D01*
X129820750Y-75197869D01*
X129999996Y-75218065D01*
X130000000Y-75218065D01*
X130000004Y-75218065D01*
X130179249Y-75197869D01*
X130179252Y-75197868D01*
X130179255Y-75197868D01*
X130349522Y-75138289D01*
X130502262Y-75042316D01*
X130547820Y-74996757D01*
X130609141Y-74963273D01*
X130678832Y-74968257D01*
X130734766Y-75010128D01*
X130759184Y-75075592D01*
X130759500Y-75084439D01*
X130759500Y-75545001D01*
X130759501Y-75545019D01*
X130770000Y-75647796D01*
X130770001Y-75647799D01*
X130815588Y-75785369D01*
X130825186Y-75814334D01*
X130917288Y-75963656D01*
X131041344Y-76087712D01*
X131190666Y-76179814D01*
X131357203Y-76234999D01*
X131459991Y-76245500D01*
X131738001Y-76245499D01*
X131805039Y-76265183D01*
X131850794Y-76317987D01*
X131862000Y-76369499D01*
X131862000Y-76736232D01*
X131842315Y-76803271D01*
X131803098Y-76841769D01*
X131707423Y-76900781D01*
X131656342Y-76932289D01*
X131532289Y-77056342D01*
X131440187Y-77205663D01*
X131440185Y-77205668D01*
X131430095Y-77236119D01*
X131417473Y-77274211D01*
X131404121Y-77314504D01*
X131364348Y-77371949D01*
X131299833Y-77398772D01*
X131286415Y-77399500D01*
X131082412Y-77399500D01*
X131015373Y-77379815D01*
X131005097Y-77372445D01*
X131002263Y-77370185D01*
X131002262Y-77370184D01*
X130945496Y-77334515D01*
X130849523Y-77274211D01*
X130679254Y-77214631D01*
X130679249Y-77214630D01*
X130500004Y-77194435D01*
X130499996Y-77194435D01*
X130320750Y-77214630D01*
X130320745Y-77214631D01*
X130150476Y-77274211D01*
X129997737Y-77370184D01*
X129870184Y-77497737D01*
X129774211Y-77650476D01*
X129714631Y-77820745D01*
X129714630Y-77820750D01*
X129694435Y-77999996D01*
X129694435Y-78000003D01*
X129714630Y-78179249D01*
X129714631Y-78179254D01*
X129774211Y-78349523D01*
X129821323Y-78424500D01*
X129870184Y-78502262D01*
X129997738Y-78629816D01*
X130076410Y-78679249D01*
X130143946Y-78721685D01*
X130150478Y-78725789D01*
X130281796Y-78771739D01*
X130320745Y-78785368D01*
X130320750Y-78785369D01*
X130499996Y-78805565D01*
X130500000Y-78805565D01*
X130500004Y-78805565D01*
X130679249Y-78785369D01*
X130679252Y-78785368D01*
X130679255Y-78785368D01*
X130849522Y-78725789D01*
X131002262Y-78629816D01*
X131002267Y-78629810D01*
X131005097Y-78627555D01*
X131007275Y-78626665D01*
X131008158Y-78626111D01*
X131008255Y-78626265D01*
X131069783Y-78601145D01*
X131082412Y-78600500D01*
X131286415Y-78600500D01*
X131353454Y-78620185D01*
X131399209Y-78672989D01*
X131404118Y-78685489D01*
X131423458Y-78743853D01*
X131440185Y-78794331D01*
X131440187Y-78794336D01*
X131462728Y-78830880D01*
X131532288Y-78943656D01*
X131656344Y-79067712D01*
X131805666Y-79159814D01*
X131972203Y-79214999D01*
X132074991Y-79225500D01*
X132787402Y-79225499D01*
X132854441Y-79245183D01*
X132875083Y-79261818D01*
X133002639Y-79389374D01*
X133002649Y-79389385D01*
X133006979Y-79393715D01*
X133006980Y-79393716D01*
X133118784Y-79505520D01*
X133205595Y-79555639D01*
X133205597Y-79555641D01*
X133243651Y-79577611D01*
X133255715Y-79584577D01*
X133408443Y-79625501D01*
X133408446Y-79625501D01*
X133574153Y-79625501D01*
X133574169Y-79625500D01*
X135128584Y-79625500D01*
X135169539Y-79632459D01*
X135320737Y-79685366D01*
X135320743Y-79685367D01*
X135320745Y-79685368D01*
X135320746Y-79685368D01*
X135320750Y-79685369D01*
X135499996Y-79705565D01*
X135500000Y-79705565D01*
X135500004Y-79705565D01*
X135679249Y-79685369D01*
X135679252Y-79685368D01*
X135679255Y-79685368D01*
X135849522Y-79625789D01*
X136002262Y-79529816D01*
X136129816Y-79402262D01*
X136225789Y-79249522D01*
X136285368Y-79079255D01*
X136300646Y-78943657D01*
X136305565Y-78900003D01*
X136305565Y-78899996D01*
X136285369Y-78720750D01*
X136285368Y-78720745D01*
X136273034Y-78685496D01*
X136225789Y-78550478D01*
X136129816Y-78397738D01*
X136002262Y-78270184D01*
X135997429Y-78267147D01*
X135849523Y-78174211D01*
X135679254Y-78114631D01*
X135679249Y-78114630D01*
X135500004Y-78094435D01*
X135499996Y-78094435D01*
X135320750Y-78114630D01*
X135320745Y-78114631D01*
X135150475Y-78174211D01*
X135060110Y-78230993D01*
X134994137Y-78250000D01*
X134411500Y-78250000D01*
X134344461Y-78230315D01*
X134298706Y-78177511D01*
X134287500Y-78126000D01*
X134287500Y-77750000D01*
X134787500Y-77750000D01*
X135624999Y-77750000D01*
X135624999Y-77475028D01*
X135624998Y-77475013D01*
X135614505Y-77372302D01*
X135559358Y-77205880D01*
X135559356Y-77205875D01*
X135467315Y-77056654D01*
X135343345Y-76932684D01*
X135194124Y-76840643D01*
X135194119Y-76840641D01*
X135027697Y-76785494D01*
X135027690Y-76785493D01*
X134924986Y-76775000D01*
X134787500Y-76775000D01*
X134787500Y-77750000D01*
X134287500Y-77750000D01*
X134287500Y-76775000D01*
X134150027Y-76775000D01*
X134150012Y-76775001D01*
X134047302Y-76785494D01*
X133880880Y-76840641D01*
X133880875Y-76840643D01*
X133731654Y-76932684D01*
X133607683Y-77056655D01*
X133607679Y-77056660D01*
X133605826Y-77059665D01*
X133604018Y-77061290D01*
X133603202Y-77062323D01*
X133603025Y-77062183D01*
X133553874Y-77106385D01*
X133484911Y-77117601D01*
X133420831Y-77089752D01*
X133394753Y-77059653D01*
X133394737Y-77059628D01*
X133392712Y-77056344D01*
X133268656Y-76932288D01*
X133121902Y-76841770D01*
X133075179Y-76789823D01*
X133063000Y-76736232D01*
X133063000Y-76276396D01*
X133082685Y-76209357D01*
X133135489Y-76163602D01*
X133204647Y-76153658D01*
X133252098Y-76170858D01*
X133265873Y-76179355D01*
X133265880Y-76179358D01*
X133432302Y-76234505D01*
X133432309Y-76234506D01*
X133535019Y-76244999D01*
X133672499Y-76244999D01*
X133672500Y-76244998D01*
X133672500Y-75270000D01*
X134172500Y-75270000D01*
X134172500Y-76244999D01*
X134309972Y-76244999D01*
X134309986Y-76244998D01*
X134412697Y-76234505D01*
X134579119Y-76179358D01*
X134579124Y-76179356D01*
X134728345Y-76087315D01*
X134852315Y-75963345D01*
X134861878Y-75947842D01*
X134913826Y-75901116D01*
X134982788Y-75889893D01*
X135046870Y-75917736D01*
X135064779Y-75938406D01*
X135065702Y-75937677D01*
X135070183Y-75943344D01*
X135194154Y-76067315D01*
X135343375Y-76159356D01*
X135343380Y-76159358D01*
X135509802Y-76214505D01*
X135509809Y-76214506D01*
X135612519Y-76224999D01*
X135749999Y-76224999D01*
X135750000Y-76224998D01*
X135750000Y-75250000D01*
X135039433Y-75250000D01*
X135007996Y-75267166D01*
X134981638Y-75270000D01*
X134172500Y-75270000D01*
X133672500Y-75270000D01*
X133672500Y-73868999D01*
X133692185Y-73801960D01*
X133700217Y-73795000D01*
X134172500Y-73795000D01*
X134172500Y-74770000D01*
X134883067Y-74770000D01*
X134914504Y-74752834D01*
X134940862Y-74750000D01*
X135750000Y-74750000D01*
X135750000Y-73788000D01*
X135748819Y-73786819D01*
X135715334Y-73725496D01*
X135712500Y-73699138D01*
X135712500Y-72770000D01*
X134250000Y-72770000D01*
X134250000Y-73671000D01*
X134230315Y-73738039D01*
X134207739Y-73757601D01*
X134208819Y-73758681D01*
X134172500Y-73795000D01*
X133700217Y-73795000D01*
X133714760Y-73782397D01*
X133713681Y-73781318D01*
X133750000Y-73744998D01*
X133750000Y-72270000D01*
X134250000Y-72270000D01*
X135712500Y-72270000D01*
X135712500Y-71295000D01*
X135575027Y-71295000D01*
X135575012Y-71295001D01*
X135472302Y-71305494D01*
X135305880Y-71360641D01*
X135305875Y-71360643D01*
X135156654Y-71452684D01*
X135068931Y-71540408D01*
X135007608Y-71573893D01*
X134937916Y-71568909D01*
X134893569Y-71540408D01*
X134805845Y-71452684D01*
X134656624Y-71360643D01*
X134656619Y-71360641D01*
X134490197Y-71305494D01*
X134490190Y-71305493D01*
X134387486Y-71295000D01*
X134250000Y-71295000D01*
X134250000Y-72270000D01*
X133750000Y-72270000D01*
X133750000Y-71295000D01*
X133612527Y-71295000D01*
X133612512Y-71295001D01*
X133509802Y-71305494D01*
X133343380Y-71360641D01*
X133343375Y-71360643D01*
X133194154Y-71452684D01*
X133070183Y-71576655D01*
X133070179Y-71576660D01*
X133068326Y-71579665D01*
X133066518Y-71581290D01*
X133065702Y-71582323D01*
X133065525Y-71582183D01*
X133016374Y-71626385D01*
X132947411Y-71637601D01*
X132883331Y-71609752D01*
X132857253Y-71579653D01*
X132857237Y-71579628D01*
X132855212Y-71576344D01*
X132731156Y-71452288D01*
X132584402Y-71361770D01*
X132537679Y-71309823D01*
X132525500Y-71256232D01*
X132525500Y-70773767D01*
X132545185Y-70706728D01*
X132584401Y-70668230D01*
X132731156Y-70577712D01*
X132855212Y-70453656D01*
X132857252Y-70450347D01*
X132859245Y-70448555D01*
X132859693Y-70447989D01*
X132859789Y-70448065D01*
X132909194Y-70403623D01*
X132978156Y-70392395D01*
X133042240Y-70420234D01*
X133068329Y-70450339D01*
X133070181Y-70453341D01*
X133070183Y-70453344D01*
X133194154Y-70577315D01*
X133343375Y-70669356D01*
X133343380Y-70669358D01*
X133509802Y-70724505D01*
X133509809Y-70724506D01*
X133612519Y-70734999D01*
X133749999Y-70734999D01*
X134250000Y-70734999D01*
X134387472Y-70734999D01*
X134387486Y-70734998D01*
X134490197Y-70724505D01*
X134656619Y-70669358D01*
X134656624Y-70669356D01*
X134805845Y-70577315D01*
X134893569Y-70489592D01*
X134954892Y-70456107D01*
X135024584Y-70461091D01*
X135068931Y-70489592D01*
X135156654Y-70577315D01*
X135305875Y-70669356D01*
X135305880Y-70669358D01*
X135472302Y-70724505D01*
X135472309Y-70724506D01*
X135575019Y-70734999D01*
X135712499Y-70734999D01*
X135712500Y-70734998D01*
X135712500Y-69760000D01*
X134250000Y-69760000D01*
X134250000Y-70734999D01*
X133749999Y-70734999D01*
X133750000Y-70734998D01*
X133750000Y-69260000D01*
X134250000Y-69260000D01*
X135712500Y-69260000D01*
X135712500Y-68285000D01*
X135575027Y-68285000D01*
X135575012Y-68285001D01*
X135472302Y-68295494D01*
X135305880Y-68350641D01*
X135305875Y-68350643D01*
X135156654Y-68442684D01*
X135068931Y-68530408D01*
X135007608Y-68563893D01*
X134937916Y-68558909D01*
X134893569Y-68530408D01*
X134805845Y-68442684D01*
X134656624Y-68350643D01*
X134656619Y-68350641D01*
X134490197Y-68295494D01*
X134490190Y-68295493D01*
X134387486Y-68285000D01*
X134250000Y-68285000D01*
X134250000Y-69260000D01*
X133750000Y-69260000D01*
X133750000Y-68285000D01*
X133612527Y-68285000D01*
X133612512Y-68285001D01*
X133509802Y-68295494D01*
X133343380Y-68350641D01*
X133343375Y-68350643D01*
X133194154Y-68442684D01*
X133070183Y-68566655D01*
X133070179Y-68566660D01*
X133068326Y-68569665D01*
X133066518Y-68571290D01*
X133065702Y-68572323D01*
X133065525Y-68572183D01*
X133016374Y-68616385D01*
X132947411Y-68627601D01*
X132883331Y-68599752D01*
X132857253Y-68569653D01*
X132857237Y-68569628D01*
X132855212Y-68566344D01*
X132731156Y-68442288D01*
X132584402Y-68351770D01*
X132537679Y-68299823D01*
X132525500Y-68246232D01*
X132525500Y-67763767D01*
X132545185Y-67696728D01*
X132584401Y-67658230D01*
X132731156Y-67567712D01*
X132855212Y-67443656D01*
X132857252Y-67440347D01*
X132859245Y-67438555D01*
X132859693Y-67437989D01*
X132859789Y-67438065D01*
X132909194Y-67393623D01*
X132978156Y-67382395D01*
X133042240Y-67410234D01*
X133068329Y-67440339D01*
X133070181Y-67443341D01*
X133070183Y-67443344D01*
X133194154Y-67567315D01*
X133343375Y-67659356D01*
X133343380Y-67659358D01*
X133509802Y-67714505D01*
X133509809Y-67714506D01*
X133612519Y-67724999D01*
X133749999Y-67724999D01*
X134250000Y-67724999D01*
X134387472Y-67724999D01*
X134387486Y-67724998D01*
X134490197Y-67714505D01*
X134656619Y-67659358D01*
X134656624Y-67659356D01*
X134805845Y-67567315D01*
X134893569Y-67479592D01*
X134954892Y-67446107D01*
X135024584Y-67451091D01*
X135068931Y-67479592D01*
X135156654Y-67567315D01*
X135305875Y-67659356D01*
X135305880Y-67659358D01*
X135472302Y-67714505D01*
X135472309Y-67714506D01*
X135575019Y-67724999D01*
X135712499Y-67724999D01*
X135712500Y-67724998D01*
X135712500Y-66750000D01*
X134250000Y-66750000D01*
X134250000Y-67724999D01*
X133749999Y-67724999D01*
X133750000Y-67724998D01*
X133750000Y-66250000D01*
X134250000Y-66250000D01*
X135712500Y-66250000D01*
X135712500Y-65275000D01*
X135575027Y-65275000D01*
X135575012Y-65275001D01*
X135472302Y-65285494D01*
X135305880Y-65340641D01*
X135305875Y-65340643D01*
X135156654Y-65432684D01*
X135068931Y-65520408D01*
X135007608Y-65553893D01*
X134937916Y-65548909D01*
X134893569Y-65520408D01*
X134805845Y-65432684D01*
X134656624Y-65340643D01*
X134656619Y-65340641D01*
X134490197Y-65285494D01*
X134490190Y-65285493D01*
X134387486Y-65275000D01*
X134250000Y-65275000D01*
X134250000Y-66250000D01*
X133750000Y-66250000D01*
X133750000Y-65275000D01*
X133612527Y-65275000D01*
X133612512Y-65275001D01*
X133509802Y-65285494D01*
X133343380Y-65340641D01*
X133343375Y-65340643D01*
X133194154Y-65432684D01*
X133070183Y-65556655D01*
X133070179Y-65556660D01*
X133068326Y-65559665D01*
X133066518Y-65561290D01*
X133065702Y-65562323D01*
X133065525Y-65562183D01*
X133016374Y-65606385D01*
X132947411Y-65617601D01*
X132883331Y-65589752D01*
X132857253Y-65559653D01*
X132857237Y-65559628D01*
X132855212Y-65556344D01*
X132731156Y-65432288D01*
X132581834Y-65340186D01*
X132415297Y-65285001D01*
X132415295Y-65285000D01*
X132312516Y-65274500D01*
X132312509Y-65274500D01*
X131857169Y-65274500D01*
X131790130Y-65254815D01*
X131744375Y-65202011D01*
X131740127Y-65191454D01*
X131725788Y-65150476D01*
X131680558Y-65078493D01*
X131629816Y-64997738D01*
X131629814Y-64997736D01*
X131629813Y-64997734D01*
X131627550Y-64994896D01*
X131626659Y-64992715D01*
X131626111Y-64991842D01*
X131626264Y-64991745D01*
X131601144Y-64930209D01*
X131600500Y-64917587D01*
X131600500Y-64838999D01*
X131620185Y-64771960D01*
X131641153Y-64753790D01*
X131638681Y-64751318D01*
X131675000Y-64714999D01*
X131675000Y-63364000D01*
X131694685Y-63296961D01*
X131747489Y-63251206D01*
X131799000Y-63240000D01*
X132051000Y-63240000D01*
X132118039Y-63259685D01*
X132163794Y-63312489D01*
X132175000Y-63364000D01*
X132175000Y-64714999D01*
X132312472Y-64714999D01*
X132312486Y-64714998D01*
X132415197Y-64704505D01*
X132581619Y-64649358D01*
X132581624Y-64649356D01*
X132730845Y-64557315D01*
X132854818Y-64433342D01*
X132856665Y-64430348D01*
X132858469Y-64428724D01*
X132859298Y-64427677D01*
X132859476Y-64427818D01*
X132908610Y-64383621D01*
X132977573Y-64372396D01*
X133041656Y-64400236D01*
X133067743Y-64430341D01*
X133069788Y-64433656D01*
X133193844Y-64557712D01*
X133343166Y-64649814D01*
X133509703Y-64704999D01*
X133612491Y-64715500D01*
X134387508Y-64715499D01*
X134387516Y-64715498D01*
X134387519Y-64715498D01*
X134443802Y-64709748D01*
X134490297Y-64704999D01*
X134656834Y-64649814D01*
X134806156Y-64557712D01*
X134893925Y-64469942D01*
X134955244Y-64436460D01*
X135024936Y-64441444D01*
X135069284Y-64469945D01*
X135156654Y-64557315D01*
X135305875Y-64649356D01*
X135305880Y-64649358D01*
X135472302Y-64704505D01*
X135472309Y-64704506D01*
X135575019Y-64714999D01*
X135712499Y-64714999D01*
X135712500Y-64714998D01*
X135712500Y-63364000D01*
X135732185Y-63296961D01*
X135784989Y-63251206D01*
X135836500Y-63240000D01*
X136088500Y-63240000D01*
X136155539Y-63259685D01*
X136201294Y-63312489D01*
X136212500Y-63364000D01*
X136212500Y-64714999D01*
X136349972Y-64714999D01*
X136349986Y-64714998D01*
X136452697Y-64704505D01*
X136619119Y-64649358D01*
X136619124Y-64649356D01*
X136768345Y-64557315D01*
X136892318Y-64433342D01*
X136894165Y-64430348D01*
X136895969Y-64428724D01*
X136896798Y-64427677D01*
X136896976Y-64427818D01*
X136946110Y-64383621D01*
X137015073Y-64372396D01*
X137079156Y-64400236D01*
X137105243Y-64430341D01*
X137107288Y-64433656D01*
X137231344Y-64557712D01*
X137378097Y-64648229D01*
X137424821Y-64700175D01*
X137437000Y-64753767D01*
X137437000Y-65236232D01*
X137417315Y-65303271D01*
X137378098Y-65341769D01*
X137292033Y-65394855D01*
X137231342Y-65432289D01*
X137107288Y-65556343D01*
X137107283Y-65556349D01*
X137105241Y-65559661D01*
X137103247Y-65561453D01*
X137102807Y-65562011D01*
X137102711Y-65561935D01*
X137053291Y-65606383D01*
X136984328Y-65617602D01*
X136920247Y-65589755D01*
X136894168Y-65559656D01*
X136892319Y-65556659D01*
X136892316Y-65556655D01*
X136768345Y-65432684D01*
X136619124Y-65340643D01*
X136619119Y-65340641D01*
X136452697Y-65285494D01*
X136452690Y-65285493D01*
X136349986Y-65275000D01*
X136212500Y-65275000D01*
X136212500Y-67724999D01*
X136349972Y-67724999D01*
X136349986Y-67724998D01*
X136452697Y-67714505D01*
X136619119Y-67659358D01*
X136619124Y-67659356D01*
X136768345Y-67567315D01*
X136892318Y-67443342D01*
X136894165Y-67440348D01*
X136895969Y-67438724D01*
X136896798Y-67437677D01*
X136896976Y-67437818D01*
X136946110Y-67393621D01*
X137015073Y-67382396D01*
X137079156Y-67410236D01*
X137105242Y-67440339D01*
X137107288Y-67443656D01*
X137231344Y-67567712D01*
X137378097Y-67658229D01*
X137424821Y-67710175D01*
X137437000Y-67763767D01*
X137437000Y-68246232D01*
X137417315Y-68313271D01*
X137378098Y-68351769D01*
X137320441Y-68387333D01*
X137231342Y-68442289D01*
X137107288Y-68566343D01*
X137107283Y-68566349D01*
X137105241Y-68569661D01*
X137103247Y-68571453D01*
X137102807Y-68572011D01*
X137102711Y-68571935D01*
X137053291Y-68616383D01*
X136984328Y-68627602D01*
X136920247Y-68599755D01*
X136894168Y-68569656D01*
X136892319Y-68566659D01*
X136892316Y-68566655D01*
X136768345Y-68442684D01*
X136619124Y-68350643D01*
X136619119Y-68350641D01*
X136452697Y-68295494D01*
X136452690Y-68295493D01*
X136349986Y-68285000D01*
X136212500Y-68285000D01*
X136212500Y-70734999D01*
X136349972Y-70734999D01*
X136349986Y-70734998D01*
X136452697Y-70724505D01*
X136619119Y-70669358D01*
X136619124Y-70669356D01*
X136768345Y-70577315D01*
X136892318Y-70453342D01*
X136894165Y-70450348D01*
X136895969Y-70448724D01*
X136896798Y-70447677D01*
X136896976Y-70447818D01*
X136946110Y-70403621D01*
X137015073Y-70392396D01*
X137079156Y-70420236D01*
X137105242Y-70450339D01*
X137107288Y-70453656D01*
X137231344Y-70577712D01*
X137378097Y-70668229D01*
X137424821Y-70720175D01*
X137437000Y-70773767D01*
X137437000Y-71256232D01*
X137417315Y-71323271D01*
X137378098Y-71361769D01*
X137303957Y-71407500D01*
X137231342Y-71452289D01*
X137107288Y-71576343D01*
X137107283Y-71576349D01*
X137105241Y-71579661D01*
X137103247Y-71581453D01*
X137102807Y-71582011D01*
X137102711Y-71581935D01*
X137053291Y-71626383D01*
X136984328Y-71637602D01*
X136920247Y-71609755D01*
X136894168Y-71579656D01*
X136892319Y-71576659D01*
X136892316Y-71576655D01*
X136768345Y-71452684D01*
X136619124Y-71360643D01*
X136619119Y-71360641D01*
X136452697Y-71305494D01*
X136452690Y-71305493D01*
X136349986Y-71295000D01*
X136212500Y-71295000D01*
X136212500Y-73732000D01*
X136213681Y-73733181D01*
X136247166Y-73794504D01*
X136250000Y-73820862D01*
X136250000Y-76224999D01*
X136387472Y-76224999D01*
X136387486Y-76224998D01*
X136490197Y-76214505D01*
X136656619Y-76159358D01*
X136656624Y-76159356D01*
X136805845Y-76067315D01*
X136929818Y-75943342D01*
X136931665Y-75940348D01*
X136933469Y-75938724D01*
X136934298Y-75937677D01*
X136934476Y-75937818D01*
X136983610Y-75893621D01*
X137052573Y-75882396D01*
X137116656Y-75910236D01*
X137142743Y-75940341D01*
X137144788Y-75943656D01*
X137268844Y-76067712D01*
X137418166Y-76159814D01*
X137584703Y-76214999D01*
X137687491Y-76225500D01*
X138462508Y-76225499D01*
X138462516Y-76225498D01*
X138462519Y-76225498D01*
X138518802Y-76219748D01*
X138565297Y-76214999D01*
X138731834Y-76159814D01*
X138881156Y-76067712D01*
X139005212Y-75943656D01*
X139097314Y-75794334D01*
X139144897Y-75650735D01*
X139184670Y-75593292D01*
X139230507Y-75569967D01*
X139269285Y-75559577D01*
X139329160Y-75525008D01*
X139406216Y-75480520D01*
X139518020Y-75368716D01*
X139518020Y-75368714D01*
X139528224Y-75358511D01*
X139528228Y-75358506D01*
X141624916Y-73261818D01*
X141686239Y-73228333D01*
X141712597Y-73225499D01*
X142425002Y-73225499D01*
X142425008Y-73225499D01*
X142527797Y-73214999D01*
X142694334Y-73159814D01*
X142843656Y-73067712D01*
X142912675Y-72998692D01*
X142973994Y-72965210D01*
X143043686Y-72970194D01*
X143088034Y-72998695D01*
X143156654Y-73067315D01*
X143305875Y-73159356D01*
X143305880Y-73159358D01*
X143472302Y-73214505D01*
X143472309Y-73214506D01*
X143575019Y-73224999D01*
X143712499Y-73224999D01*
X143712500Y-73224998D01*
X143712500Y-70838999D01*
X143732185Y-70771960D01*
X143784989Y-70726205D01*
X143836500Y-70714999D01*
X143864999Y-70714999D01*
X143865000Y-70714998D01*
X143865000Y-68268000D01*
X143836500Y-68268000D01*
X143769461Y-68248315D01*
X143723706Y-68195511D01*
X143712500Y-68144000D01*
X143712500Y-66874000D01*
X143732185Y-66806961D01*
X143784989Y-66761206D01*
X143836500Y-66750000D01*
X144088500Y-66750000D01*
X144155539Y-66769685D01*
X144201294Y-66822489D01*
X144212500Y-66874000D01*
X144212500Y-68222000D01*
X144241000Y-68222000D01*
X144308039Y-68241685D01*
X144353794Y-68294489D01*
X144365000Y-68346000D01*
X144365000Y-70651000D01*
X144345315Y-70718039D01*
X144292511Y-70763794D01*
X144241000Y-70775000D01*
X144212500Y-70775000D01*
X144212500Y-73224999D01*
X144349972Y-73224999D01*
X144349986Y-73224998D01*
X144452697Y-73214505D01*
X144619119Y-73159358D01*
X144619124Y-73159356D01*
X144768345Y-73067315D01*
X144892318Y-72943342D01*
X144894165Y-72940348D01*
X144895969Y-72938724D01*
X144896798Y-72937677D01*
X144896976Y-72937818D01*
X144946110Y-72893621D01*
X145015073Y-72882396D01*
X145079156Y-72910236D01*
X145105243Y-72940341D01*
X145107288Y-72943656D01*
X145231344Y-73067712D01*
X145380666Y-73159814D01*
X145547203Y-73214999D01*
X145649991Y-73225500D01*
X146425008Y-73225499D01*
X146425016Y-73225498D01*
X146425019Y-73225498D01*
X146481302Y-73219748D01*
X146527797Y-73214999D01*
X146694334Y-73159814D01*
X146843656Y-73067712D01*
X146967712Y-72943656D01*
X147059814Y-72794334D01*
X147114999Y-72627797D01*
X147125500Y-72525009D01*
X147125499Y-71474992D01*
X147123710Y-71457483D01*
X147114999Y-71372203D01*
X147114998Y-71372200D01*
X147100492Y-71328425D01*
X147059814Y-71205666D01*
X146967712Y-71056344D01*
X146843656Y-70932288D01*
X146837989Y-70927807D01*
X146839945Y-70925333D01*
X146802652Y-70883829D01*
X146790500Y-70830294D01*
X146790500Y-70753767D01*
X146810185Y-70686728D01*
X146849401Y-70648230D01*
X146996156Y-70557712D01*
X147120212Y-70433656D01*
X147212314Y-70284334D01*
X147267499Y-70117797D01*
X147278000Y-70015009D01*
X147277999Y-69709437D01*
X147297683Y-69642400D01*
X147350487Y-69596645D01*
X147419646Y-69586701D01*
X147483201Y-69615726D01*
X147489680Y-69621758D01*
X147497738Y-69629816D01*
X147624457Y-69709439D01*
X147637571Y-69717679D01*
X147683862Y-69770014D01*
X147694819Y-69836556D01*
X147678230Y-69983791D01*
X147678230Y-69983798D01*
X147698425Y-70163044D01*
X147698426Y-70163049D01*
X147758006Y-70333318D01*
X147831543Y-70450351D01*
X147853979Y-70486057D01*
X147981533Y-70613611D01*
X148134273Y-70709584D01*
X148304540Y-70769163D01*
X148391464Y-70778956D01*
X148455875Y-70806021D01*
X148465260Y-70814495D01*
X149863181Y-72212416D01*
X149896666Y-72273739D01*
X149899500Y-72300097D01*
X149899500Y-80250903D01*
X149879815Y-80317942D01*
X149827011Y-80363697D01*
X149757853Y-80373641D01*
X149694297Y-80344616D01*
X149687819Y-80338584D01*
X148273875Y-78924640D01*
X148240390Y-78863317D01*
X148244514Y-78796006D01*
X148285368Y-78679255D01*
X148290760Y-78631402D01*
X148305565Y-78500003D01*
X148305565Y-78499996D01*
X148285369Y-78320750D01*
X148285368Y-78320745D01*
X148225789Y-78150478D01*
X148212806Y-78129816D01*
X148209519Y-78124585D01*
X148190519Y-78057350D01*
X148210886Y-77990515D01*
X148226823Y-77970941D01*
X148304049Y-77893716D01*
X148304050Y-77893713D01*
X148958506Y-77239257D01*
X148958511Y-77239253D01*
X148968714Y-77229049D01*
X148968716Y-77229049D01*
X149080520Y-77117245D01*
X149133773Y-77025008D01*
X149159577Y-76980314D01*
X149200501Y-76827586D01*
X149200501Y-76669472D01*
X149200501Y-76661877D01*
X149200500Y-76661859D01*
X149200500Y-74520944D01*
X149200500Y-74520943D01*
X149194282Y-74497738D01*
X149159577Y-74368215D01*
X149111745Y-74285368D01*
X149090991Y-74249420D01*
X149080521Y-74231285D01*
X148964385Y-74115149D01*
X148964374Y-74115139D01*
X148773875Y-73924640D01*
X148740390Y-73863317D01*
X148744514Y-73796006D01*
X148784004Y-73683153D01*
X148785367Y-73679259D01*
X148785369Y-73679249D01*
X148805565Y-73500003D01*
X148805565Y-73499996D01*
X148785369Y-73320750D01*
X148785368Y-73320745D01*
X148768977Y-73273903D01*
X148725789Y-73150478D01*
X148724104Y-73147797D01*
X148640571Y-73014855D01*
X148629816Y-72997738D01*
X148502262Y-72870184D01*
X148462413Y-72845145D01*
X148349523Y-72774211D01*
X148179254Y-72714631D01*
X148179249Y-72714630D01*
X148000004Y-72694435D01*
X147999996Y-72694435D01*
X147820750Y-72714630D01*
X147820745Y-72714631D01*
X147650476Y-72774211D01*
X147497737Y-72870184D01*
X147370184Y-72997737D01*
X147274211Y-73150476D01*
X147214631Y-73320745D01*
X147214630Y-73320750D01*
X147194435Y-73499996D01*
X147194435Y-73500003D01*
X147214630Y-73679249D01*
X147214631Y-73679254D01*
X147274211Y-73849523D01*
X147370182Y-74002259D01*
X147372441Y-74005091D01*
X147373330Y-74007268D01*
X147373889Y-74008158D01*
X147373733Y-74008255D01*
X147398854Y-74069776D01*
X147399219Y-74076929D01*
X147399499Y-74079059D01*
X147401647Y-74087074D01*
X147399983Y-74156924D01*
X147360820Y-74214786D01*
X147296591Y-74242289D01*
X147240918Y-74236208D01*
X147179257Y-74214632D01*
X147179249Y-74214630D01*
X147000004Y-74194435D01*
X146999996Y-74194435D01*
X146820750Y-74214630D01*
X146820745Y-74214631D01*
X146650476Y-74274211D01*
X146497737Y-74370184D01*
X146432519Y-74435403D01*
X146370184Y-74497738D01*
X146355603Y-74520944D01*
X146274211Y-74650476D01*
X146214631Y-74820745D01*
X146214630Y-74820750D01*
X146194435Y-74999996D01*
X146194435Y-75006964D01*
X146191673Y-75006964D01*
X146181764Y-75063471D01*
X146134405Y-75114841D01*
X146066791Y-75132452D01*
X146000389Y-75110713D01*
X145982928Y-75096192D01*
X145881217Y-74994481D01*
X145881216Y-74994480D01*
X145788486Y-74940943D01*
X145788485Y-74940942D01*
X145744283Y-74915422D01*
X145688381Y-74900443D01*
X145591557Y-74874499D01*
X145433443Y-74874499D01*
X145425847Y-74874499D01*
X145425831Y-74874500D01*
X142263140Y-74874500D01*
X142263124Y-74874499D01*
X142255528Y-74874499D01*
X142097414Y-74874499D01*
X142017481Y-74895917D01*
X141944687Y-74915422D01*
X141900483Y-74940944D01*
X141900482Y-74940943D01*
X141807758Y-74994477D01*
X141807753Y-74994481D01*
X140919481Y-75882753D01*
X140919479Y-75882756D01*
X140909539Y-75899973D01*
X140874469Y-75960717D01*
X140840423Y-76019686D01*
X140799499Y-76172414D01*
X140799499Y-76172416D01*
X140799499Y-76340517D01*
X140799500Y-76340530D01*
X140799500Y-76661859D01*
X140799499Y-76661877D01*
X140799499Y-76827583D01*
X140799498Y-76827583D01*
X140840423Y-76980315D01*
X140840424Y-76980316D01*
X140866227Y-77025008D01*
X140909518Y-77099991D01*
X140919481Y-77117246D01*
X141038349Y-77236114D01*
X141038355Y-77236119D01*
X141266610Y-77464374D01*
X141266620Y-77464385D01*
X141270950Y-77468715D01*
X141270951Y-77468716D01*
X141382755Y-77580520D01*
X141462624Y-77626632D01*
X141519686Y-77659577D01*
X141672414Y-77700500D01*
X141830528Y-77700500D01*
X142899903Y-77700500D01*
X142966942Y-77720185D01*
X142987584Y-77736819D01*
X143751152Y-78500387D01*
X143784637Y-78561710D01*
X143779653Y-78631402D01*
X143737781Y-78687335D01*
X143672317Y-78711752D01*
X143649588Y-78711288D01*
X143500004Y-78694435D01*
X143499996Y-78694435D01*
X143320750Y-78714630D01*
X143320745Y-78714631D01*
X143150476Y-78774211D01*
X142997737Y-78870184D01*
X142870184Y-78997737D01*
X142774210Y-79150478D01*
X142714630Y-79320750D01*
X142704837Y-79407667D01*
X142677770Y-79472081D01*
X142669298Y-79481464D01*
X142512309Y-79638454D01*
X142450987Y-79671938D01*
X142381296Y-79666954D01*
X142325362Y-79625083D01*
X142300945Y-79559618D01*
X142301409Y-79536888D01*
X142305565Y-79500002D01*
X142305565Y-79499996D01*
X142285369Y-79320750D01*
X142285368Y-79320745D01*
X142271667Y-79281590D01*
X142225789Y-79150478D01*
X142129816Y-78997738D01*
X142002262Y-78870184D01*
X141969379Y-78849522D01*
X141849523Y-78774211D01*
X141679254Y-78714631D01*
X141679249Y-78714630D01*
X141500004Y-78694435D01*
X141499996Y-78694435D01*
X141320750Y-78714630D01*
X141320745Y-78714631D01*
X141150476Y-78774211D01*
X140997737Y-78870184D01*
X140870184Y-78997737D01*
X140774210Y-79150478D01*
X140714630Y-79320750D01*
X140704837Y-79407667D01*
X140677770Y-79472081D01*
X140669298Y-79481464D01*
X139687584Y-80463181D01*
X139626261Y-80496666D01*
X139599903Y-80499500D01*
X126652754Y-80499500D01*
X126585715Y-80479815D01*
X126539960Y-80427011D01*
X126530016Y-80357853D01*
X126547215Y-80310403D01*
X126634356Y-80169124D01*
X126634358Y-80169119D01*
X126689505Y-80002697D01*
X126689506Y-80002690D01*
X126699999Y-79899986D01*
X126700000Y-79899973D01*
X126700000Y-79750000D01*
X124300001Y-79750000D01*
X124300001Y-79899986D01*
X124310494Y-80002697D01*
X124365641Y-80169119D01*
X124365643Y-80169124D01*
X124452785Y-80310403D01*
X124471225Y-80377796D01*
X124450302Y-80444459D01*
X124396660Y-80489229D01*
X124347246Y-80499500D01*
X113320097Y-80499500D01*
X113253058Y-80479815D01*
X113232416Y-80463181D01*
X109869218Y-77099983D01*
X124299500Y-77099983D01*
X124299500Y-77900001D01*
X124299501Y-77900019D01*
X124310000Y-78002796D01*
X124310001Y-78002797D01*
X124365185Y-78169331D01*
X124365187Y-78169336D01*
X124385906Y-78202927D01*
X124449213Y-78305565D01*
X124457289Y-78318657D01*
X124551304Y-78412672D01*
X124584789Y-78473995D01*
X124579805Y-78543687D01*
X124551305Y-78588034D01*
X124457682Y-78681657D01*
X124365643Y-78830875D01*
X124365641Y-78830880D01*
X124310494Y-78997302D01*
X124310493Y-78997309D01*
X124300000Y-79100013D01*
X124300000Y-79250000D01*
X126699999Y-79250000D01*
X126699999Y-79100028D01*
X126699998Y-79100013D01*
X126689505Y-78997302D01*
X126634358Y-78830880D01*
X126634356Y-78830875D01*
X126542315Y-78681654D01*
X126448695Y-78588034D01*
X126415210Y-78526711D01*
X126420194Y-78457019D01*
X126448691Y-78412676D01*
X126542712Y-78318656D01*
X126556596Y-78296145D01*
X126608542Y-78249420D01*
X126677505Y-78238196D01*
X126703088Y-78244198D01*
X126746283Y-78259312D01*
X126820740Y-78285367D01*
X126820750Y-78285369D01*
X126999996Y-78305565D01*
X127000000Y-78305565D01*
X127000004Y-78305565D01*
X127179249Y-78285369D01*
X127179252Y-78285368D01*
X127179255Y-78285368D01*
X127349522Y-78225789D01*
X127502262Y-78129816D01*
X127629816Y-78002262D01*
X127725789Y-77849522D01*
X127785368Y-77679255D01*
X127785369Y-77679249D01*
X127805565Y-77500003D01*
X127805565Y-77499996D01*
X127785369Y-77320750D01*
X127785368Y-77320745D01*
X127769085Y-77274211D01*
X127725789Y-77150478D01*
X127629816Y-76997738D01*
X127502262Y-76870184D01*
X127395771Y-76803271D01*
X127349523Y-76774211D01*
X127179254Y-76714631D01*
X127179249Y-76714630D01*
X127000004Y-76694435D01*
X126999996Y-76694435D01*
X126820750Y-76714630D01*
X126820742Y-76714632D01*
X126703089Y-76755801D01*
X126633311Y-76759362D01*
X126572683Y-76724633D01*
X126556599Y-76703859D01*
X126542712Y-76681344D01*
X126448695Y-76587327D01*
X126415210Y-76526004D01*
X126420194Y-76456312D01*
X126448695Y-76411964D01*
X126542317Y-76318342D01*
X126634356Y-76169124D01*
X126634358Y-76169119D01*
X126689505Y-76002697D01*
X126689506Y-76002690D01*
X126699999Y-75899986D01*
X126700000Y-75899973D01*
X126700000Y-75750000D01*
X124300001Y-75750000D01*
X124300001Y-75899986D01*
X124310494Y-76002697D01*
X124365641Y-76169119D01*
X124365643Y-76169124D01*
X124457684Y-76318345D01*
X124551304Y-76411965D01*
X124584789Y-76473288D01*
X124579805Y-76542980D01*
X124551305Y-76587327D01*
X124457287Y-76681345D01*
X124365187Y-76830663D01*
X124365185Y-76830668D01*
X124361880Y-76840643D01*
X124310001Y-76997203D01*
X124310001Y-76997204D01*
X124310000Y-76997204D01*
X124299500Y-77099983D01*
X109869218Y-77099983D01*
X98332766Y-65563531D01*
X98299281Y-65502208D01*
X98300672Y-65443757D01*
X98303378Y-65433657D01*
X98335063Y-65315408D01*
X98355659Y-65080000D01*
X98353222Y-65052154D01*
X98366987Y-64983657D01*
X98415601Y-64933473D01*
X98483629Y-64917538D01*
X98549473Y-64940911D01*
X98564431Y-64953666D01*
X100975139Y-67364374D01*
X100975149Y-67364385D01*
X100979479Y-67368715D01*
X100979480Y-67368716D01*
X101091284Y-67480520D01*
X101091286Y-67480521D01*
X101091290Y-67480524D01*
X101187975Y-67536344D01*
X101228216Y-67559577D01*
X101340019Y-67589534D01*
X101380942Y-67600500D01*
X101380943Y-67600500D01*
X124564802Y-67600500D01*
X124564818Y-67600501D01*
X124572414Y-67600501D01*
X124730525Y-67600501D01*
X124730528Y-67600501D01*
X124883256Y-67559577D01*
X124933375Y-67530639D01*
X125020187Y-67480520D01*
X125131991Y-67368716D01*
X125131991Y-67368714D01*
X125142199Y-67358507D01*
X125142200Y-67358504D01*
X130189676Y-62311029D01*
X130250998Y-62277545D01*
X130320690Y-62282529D01*
G37*
%TD.AperFunction*%
%TA.AperFunction,Conductor*%
G36*
X144201256Y-61120185D02*
G01*
X144221898Y-61136819D01*
X146147898Y-63062819D01*
X146181383Y-63124142D01*
X146176399Y-63193834D01*
X146134527Y-63249767D01*
X146069063Y-63274184D01*
X146060217Y-63274500D01*
X145712597Y-63274500D01*
X145645558Y-63254815D01*
X145624916Y-63238181D01*
X145500090Y-63113355D01*
X145500088Y-63113352D01*
X145381217Y-62994481D01*
X145381209Y-62994475D01*
X145277380Y-62934530D01*
X145277377Y-62934529D01*
X145273497Y-62932289D01*
X145244285Y-62915423D01*
X145091557Y-62874499D01*
X144933443Y-62874499D01*
X144925847Y-62874499D01*
X144925831Y-62874500D01*
X143111669Y-62874500D01*
X143111653Y-62874499D01*
X143104057Y-62874499D01*
X142945943Y-62874499D01*
X142793215Y-62915423D01*
X142793214Y-62915423D01*
X142793212Y-62915424D01*
X142765895Y-62931195D01*
X142764003Y-62932289D01*
X142760123Y-62934529D01*
X142760120Y-62934530D01*
X142656290Y-62994475D01*
X142656282Y-62994481D01*
X142594422Y-63056342D01*
X142544480Y-63106284D01*
X142544478Y-63106286D01*
X142482167Y-63168597D01*
X142422582Y-63228182D01*
X142361259Y-63261666D01*
X142334901Y-63264500D01*
X141649998Y-63264500D01*
X141649980Y-63264501D01*
X141547203Y-63275000D01*
X141547200Y-63275001D01*
X141380668Y-63330185D01*
X141380663Y-63330187D01*
X141231342Y-63422289D01*
X141107288Y-63546343D01*
X141107283Y-63546349D01*
X141105241Y-63549661D01*
X141103247Y-63551453D01*
X141102807Y-63552011D01*
X141102711Y-63551935D01*
X141053291Y-63596383D01*
X140984328Y-63607602D01*
X140920247Y-63579755D01*
X140894168Y-63549656D01*
X140892319Y-63546659D01*
X140892316Y-63546655D01*
X140768345Y-63422684D01*
X140619124Y-63330643D01*
X140619119Y-63330641D01*
X140452697Y-63275494D01*
X140452690Y-63275493D01*
X140349986Y-63265000D01*
X140212500Y-63265000D01*
X140212500Y-72126000D01*
X140192815Y-72193039D01*
X140140011Y-72238794D01*
X140088500Y-72250000D01*
X139836500Y-72250000D01*
X139769461Y-72230315D01*
X139723706Y-72177511D01*
X139712500Y-72126000D01*
X139712500Y-63265000D01*
X139575027Y-63265000D01*
X139575012Y-63265001D01*
X139472302Y-63275494D01*
X139305872Y-63330644D01*
X139301899Y-63332497D01*
X139232821Y-63342986D01*
X139169038Y-63314464D01*
X139130801Y-63255985D01*
X139125499Y-63220113D01*
X139125499Y-62964998D01*
X139125498Y-62964981D01*
X139114999Y-62862203D01*
X139114998Y-62862200D01*
X139101261Y-62820745D01*
X139059814Y-62695666D01*
X138967712Y-62546344D01*
X138843656Y-62422288D01*
X138741834Y-62359484D01*
X138695111Y-62307537D01*
X138683888Y-62238574D01*
X138711732Y-62174492D01*
X138756719Y-62143331D01*
X138755747Y-62141312D01*
X138762016Y-62138292D01*
X138762019Y-62138289D01*
X138762022Y-62138289D01*
X138914762Y-62042316D01*
X139042316Y-61914762D01*
X139138289Y-61762022D01*
X139197868Y-61591755D01*
X139197869Y-61591749D01*
X139218065Y-61412503D01*
X139218065Y-61412496D01*
X139198448Y-61238383D01*
X139210503Y-61169561D01*
X139257852Y-61118182D01*
X139321668Y-61100500D01*
X144134217Y-61100500D01*
X144201256Y-61120185D01*
G37*
%TD.AperFunction*%
%TA.AperFunction,Conductor*%
G36*
X120385099Y-61770185D02*
G01*
X120430854Y-61822989D01*
X120440798Y-61892147D01*
X120411773Y-61955703D01*
X120405741Y-61962181D01*
X120370184Y-61997737D01*
X120274211Y-62150476D01*
X120214631Y-62320745D01*
X120214630Y-62320750D01*
X120194435Y-62499996D01*
X120194435Y-62500003D01*
X120214630Y-62679249D01*
X120214631Y-62679254D01*
X120274211Y-62849523D01*
X120308289Y-62903757D01*
X120370184Y-63002262D01*
X120497738Y-63129816D01*
X120576410Y-63179249D01*
X120642520Y-63220789D01*
X120650478Y-63225789D01*
X120788783Y-63274184D01*
X120820745Y-63285368D01*
X120820750Y-63285369D01*
X120999996Y-63305565D01*
X121000000Y-63305565D01*
X121000002Y-63305565D01*
X121029449Y-63302246D01*
X121064610Y-63298285D01*
X121133432Y-63310339D01*
X121184811Y-63357688D01*
X121202436Y-63425298D01*
X121201714Y-63435388D01*
X121194435Y-63499995D01*
X121194435Y-63500003D01*
X121214630Y-63679249D01*
X121214631Y-63679254D01*
X121274211Y-63849523D01*
X121368760Y-63999996D01*
X121370184Y-64002262D01*
X121497738Y-64129816D01*
X121650478Y-64225789D01*
X121792267Y-64275403D01*
X121820745Y-64285368D01*
X121820750Y-64285369D01*
X121999996Y-64305565D01*
X122000000Y-64305565D01*
X122000004Y-64305565D01*
X122179249Y-64285369D01*
X122179252Y-64285368D01*
X122179255Y-64285368D01*
X122349522Y-64225789D01*
X122502262Y-64129816D01*
X122502267Y-64129810D01*
X122505097Y-64127555D01*
X122507275Y-64126665D01*
X122508158Y-64126111D01*
X122508255Y-64126265D01*
X122569783Y-64101145D01*
X122582412Y-64100500D01*
X124913331Y-64100500D01*
X124913347Y-64100501D01*
X124920943Y-64100501D01*
X125079054Y-64100501D01*
X125079057Y-64100501D01*
X125231785Y-64059577D01*
X125281904Y-64030639D01*
X125368716Y-63980520D01*
X125480520Y-63868716D01*
X125480521Y-63868714D01*
X125499713Y-63849522D01*
X125518535Y-63830700D01*
X125579858Y-63797215D01*
X125592315Y-63795163D01*
X125679255Y-63785368D01*
X125849522Y-63725789D01*
X126002262Y-63629816D01*
X126129816Y-63502262D01*
X126225789Y-63349522D01*
X126285368Y-63179255D01*
X126288724Y-63149473D01*
X126305565Y-63000003D01*
X126305565Y-62999996D01*
X126285369Y-62820750D01*
X126285368Y-62820745D01*
X126269502Y-62775403D01*
X126225789Y-62650478D01*
X126129816Y-62497738D01*
X126002262Y-62370184D01*
X125929399Y-62324401D01*
X125849523Y-62274211D01*
X125679254Y-62214631D01*
X125679249Y-62214630D01*
X125500004Y-62194435D01*
X125499996Y-62194435D01*
X125347136Y-62211657D01*
X125278314Y-62199602D01*
X125228259Y-62154409D01*
X125191738Y-62096286D01*
X125129816Y-61997738D01*
X125094259Y-61962181D01*
X125060774Y-61900858D01*
X125065758Y-61831166D01*
X125107630Y-61775233D01*
X125173094Y-61750816D01*
X125181940Y-61750500D01*
X128752374Y-61750500D01*
X128819413Y-61770185D01*
X128865168Y-61822989D01*
X128875112Y-61892147D01*
X128846087Y-61955703D01*
X128840055Y-61962181D01*
X124439055Y-66363181D01*
X124377732Y-66396666D01*
X124351374Y-66399500D01*
X101760097Y-66399500D01*
X101693058Y-66379815D01*
X101672416Y-66363181D01*
X98332766Y-63023531D01*
X98299281Y-62962208D01*
X98300672Y-62903757D01*
X98308511Y-62874500D01*
X98335063Y-62775408D01*
X98355659Y-62540000D01*
X98335063Y-62304592D01*
X98273903Y-62076337D01*
X98204220Y-61926904D01*
X98193729Y-61857828D01*
X98222249Y-61794044D01*
X98280725Y-61755804D01*
X98316603Y-61750500D01*
X120318060Y-61750500D01*
X120385099Y-61770185D01*
G37*
%TD.AperFunction*%
%TA.AperFunction,Conductor*%
G36*
X137570371Y-61120185D02*
G01*
X137616126Y-61172989D01*
X137626552Y-61238384D01*
X137617337Y-61320168D01*
X137590270Y-61384582D01*
X137581798Y-61393965D01*
X137147585Y-61828180D01*
X137086262Y-61861665D01*
X137059904Y-61864499D01*
X136925847Y-61864499D01*
X136925831Y-61864500D01*
X135111669Y-61864500D01*
X135111653Y-61864499D01*
X135104057Y-61864499D01*
X134945943Y-61864499D01*
X134842761Y-61892147D01*
X134793214Y-61905423D01*
X134777042Y-61914761D01*
X134777039Y-61914762D01*
X134656290Y-61984475D01*
X134656282Y-61984481D01*
X134412583Y-62228181D01*
X134351260Y-62261666D01*
X134324902Y-62264500D01*
X133860419Y-62264500D01*
X133793380Y-62244815D01*
X133747625Y-62192011D01*
X133743377Y-62181453D01*
X133730789Y-62145478D01*
X133730789Y-62145477D01*
X133651619Y-62019480D01*
X133634816Y-61992738D01*
X133507262Y-61865184D01*
X133474528Y-61844616D01*
X133354523Y-61769211D01*
X133184254Y-61709631D01*
X133184249Y-61709630D01*
X133005004Y-61689435D01*
X133004996Y-61689435D01*
X132825750Y-61709630D01*
X132825745Y-61709631D01*
X132655477Y-61769211D01*
X132534075Y-61845494D01*
X132468103Y-61864500D01*
X130955937Y-61864500D01*
X130949888Y-61865296D01*
X130880854Y-61854526D01*
X130828600Y-61808143D01*
X130809719Y-61740873D01*
X130830204Y-61674074D01*
X130846020Y-61654685D01*
X131363887Y-61136819D01*
X131425210Y-61103334D01*
X131451568Y-61100500D01*
X137503332Y-61100500D01*
X137570371Y-61120185D01*
G37*
%TD.AperFunction*%
%TA.AperFunction,Conductor*%
G36*
X117718967Y-50520185D02*
G01*
X117764722Y-50572989D01*
X117774666Y-50642147D01*
X117768970Y-50665454D01*
X117714632Y-50820742D01*
X117714630Y-50820750D01*
X117694435Y-50999996D01*
X117694435Y-51000003D01*
X117714630Y-51179249D01*
X117714631Y-51179254D01*
X117774211Y-51349523D01*
X117870185Y-51502263D01*
X117872445Y-51505097D01*
X117873334Y-51507275D01*
X117873889Y-51508158D01*
X117873734Y-51508255D01*
X117898855Y-51569783D01*
X117899500Y-51582412D01*
X117899500Y-53417587D01*
X117879815Y-53484626D01*
X117872450Y-53494896D01*
X117870186Y-53497734D01*
X117774211Y-53650476D01*
X117714631Y-53820745D01*
X117714630Y-53820750D01*
X117694435Y-53999996D01*
X117694435Y-54000003D01*
X117714630Y-54179249D01*
X117714631Y-54179254D01*
X117774211Y-54349523D01*
X117819088Y-54420944D01*
X117870184Y-54502262D01*
X117997738Y-54629816D01*
X118150478Y-54725789D01*
X118320745Y-54785368D01*
X118320750Y-54785369D01*
X118499996Y-54805565D01*
X118500000Y-54805565D01*
X118500004Y-54805565D01*
X118679249Y-54785369D01*
X118679252Y-54785368D01*
X118679255Y-54785368D01*
X118849522Y-54725789D01*
X119002262Y-54629816D01*
X119129816Y-54502262D01*
X119225789Y-54349522D01*
X119285368Y-54179255D01*
X119285369Y-54179249D01*
X119305565Y-54000003D01*
X119305565Y-53999996D01*
X119285369Y-53820750D01*
X119285368Y-53820745D01*
X119259201Y-53745964D01*
X119225789Y-53650478D01*
X119223034Y-53646094D01*
X119184606Y-53584936D01*
X119129816Y-53497738D01*
X119129814Y-53497736D01*
X119129813Y-53497734D01*
X119127550Y-53494896D01*
X119126659Y-53492715D01*
X119126111Y-53491842D01*
X119126264Y-53491745D01*
X119101144Y-53430209D01*
X119100500Y-53417587D01*
X119100500Y-51582412D01*
X119120185Y-51515373D01*
X119127555Y-51505097D01*
X119129810Y-51502267D01*
X119129816Y-51502262D01*
X119225789Y-51349522D01*
X119285368Y-51179255D01*
X119305565Y-51000000D01*
X119285368Y-50820745D01*
X119285367Y-50820742D01*
X119231030Y-50665454D01*
X119227469Y-50595676D01*
X119262198Y-50535048D01*
X119324191Y-50502821D01*
X119348072Y-50500500D01*
X194375500Y-50500500D01*
X194442539Y-50520185D01*
X194488294Y-50572989D01*
X194499500Y-50624500D01*
X194499500Y-104875500D01*
X194479815Y-104942539D01*
X194427011Y-104988294D01*
X194375500Y-104999500D01*
X186848072Y-104999500D01*
X186781033Y-104979815D01*
X186735278Y-104927011D01*
X186725334Y-104857853D01*
X186731030Y-104834546D01*
X186785367Y-104679257D01*
X186785368Y-104679255D01*
X186805565Y-104500000D01*
X186785368Y-104320745D01*
X186725789Y-104150478D01*
X186629816Y-103997738D01*
X186629814Y-103997736D01*
X186629813Y-103997734D01*
X186627550Y-103994896D01*
X186626659Y-103992715D01*
X186626111Y-103991842D01*
X186626264Y-103991745D01*
X186601144Y-103930209D01*
X186600500Y-103917587D01*
X186600500Y-102582412D01*
X186620185Y-102515373D01*
X186627555Y-102505097D01*
X186629810Y-102502267D01*
X186629816Y-102502262D01*
X186725789Y-102349522D01*
X186785368Y-102179255D01*
X186785369Y-102179249D01*
X186805565Y-102000003D01*
X186805565Y-101999996D01*
X186785369Y-101820750D01*
X186785368Y-101820745D01*
X186750071Y-101719873D01*
X186725789Y-101650478D01*
X186719979Y-101641232D01*
X186648810Y-101527967D01*
X186629816Y-101497738D01*
X186502262Y-101370184D01*
X186482526Y-101357783D01*
X186349523Y-101274211D01*
X186179254Y-101214631D01*
X186179249Y-101214630D01*
X186000004Y-101194435D01*
X185999996Y-101194435D01*
X185820750Y-101214630D01*
X185820745Y-101214631D01*
X185650476Y-101274211D01*
X185497737Y-101370184D01*
X185370184Y-101497737D01*
X185274211Y-101650476D01*
X185214631Y-101820745D01*
X185214630Y-101820750D01*
X185194435Y-101999996D01*
X185194435Y-102000003D01*
X185214630Y-102179249D01*
X185214631Y-102179254D01*
X185274211Y-102349523D01*
X185370185Y-102502263D01*
X185372445Y-102505097D01*
X185373334Y-102507275D01*
X185373889Y-102508158D01*
X185373734Y-102508255D01*
X185398855Y-102569783D01*
X185399500Y-102582412D01*
X185399500Y-103917587D01*
X185379815Y-103984626D01*
X185372450Y-103994896D01*
X185370186Y-103997734D01*
X185274211Y-104150476D01*
X185214631Y-104320745D01*
X185214630Y-104320750D01*
X185194435Y-104499996D01*
X185194435Y-104500003D01*
X185214630Y-104679249D01*
X185214632Y-104679257D01*
X185268970Y-104834546D01*
X185272531Y-104904324D01*
X185237802Y-104964952D01*
X185175809Y-104997179D01*
X185151928Y-104999500D01*
X168348072Y-104999500D01*
X168281033Y-104979815D01*
X168235278Y-104927011D01*
X168225334Y-104857853D01*
X168231030Y-104834546D01*
X168285367Y-104679257D01*
X168285368Y-104679255D01*
X168305565Y-104500000D01*
X168285368Y-104320745D01*
X168225789Y-104150478D01*
X168129816Y-103997738D01*
X168129814Y-103997736D01*
X168129813Y-103997734D01*
X168127550Y-103994896D01*
X168126659Y-103992715D01*
X168126111Y-103991842D01*
X168126264Y-103991745D01*
X168101144Y-103930209D01*
X168100500Y-103917587D01*
X168100500Y-102082412D01*
X168120185Y-102015373D01*
X168127555Y-102005097D01*
X168129810Y-102002267D01*
X168129816Y-102002262D01*
X168225789Y-101849522D01*
X168285368Y-101679255D01*
X168285369Y-101679249D01*
X168305565Y-101500003D01*
X168305565Y-101499996D01*
X168285369Y-101320750D01*
X168285368Y-101320745D01*
X168225788Y-101150476D01*
X168175502Y-101070447D01*
X168129816Y-100997738D01*
X168002262Y-100870184D01*
X167849523Y-100774211D01*
X167679254Y-100714631D01*
X167679249Y-100714630D01*
X167500004Y-100694435D01*
X167499996Y-100694435D01*
X167320750Y-100714630D01*
X167320745Y-100714631D01*
X167150476Y-100774211D01*
X166997737Y-100870184D01*
X166870184Y-100997737D01*
X166774211Y-101150476D01*
X166714631Y-101320745D01*
X166714630Y-101320750D01*
X166694435Y-101499996D01*
X166694435Y-101500003D01*
X166714630Y-101679249D01*
X166714631Y-101679254D01*
X166774211Y-101849523D01*
X166827401Y-101934174D01*
X166868760Y-101999996D01*
X166870185Y-102002263D01*
X166872445Y-102005097D01*
X166873334Y-102007275D01*
X166873889Y-102008158D01*
X166873734Y-102008255D01*
X166898855Y-102069783D01*
X166899500Y-102082412D01*
X166899500Y-103917587D01*
X166879815Y-103984626D01*
X166872450Y-103994896D01*
X166870186Y-103997734D01*
X166774211Y-104150476D01*
X166714631Y-104320745D01*
X166714630Y-104320750D01*
X166694435Y-104499996D01*
X166694435Y-104500003D01*
X166714630Y-104679249D01*
X166714632Y-104679257D01*
X166768970Y-104834546D01*
X166772531Y-104904324D01*
X166737802Y-104964952D01*
X166675809Y-104997179D01*
X166651928Y-104999500D01*
X89624500Y-104999500D01*
X89557461Y-104979815D01*
X89511706Y-104927011D01*
X89500500Y-104875500D01*
X89500500Y-99713389D01*
X92499500Y-99713389D01*
X92499500Y-100786611D01*
X92526598Y-100957701D01*
X92580127Y-101122445D01*
X92658768Y-101276788D01*
X92760586Y-101416928D01*
X92883072Y-101539414D01*
X93023212Y-101641232D01*
X93177555Y-101719873D01*
X93342299Y-101773402D01*
X93513389Y-101800500D01*
X93513390Y-101800500D01*
X93686610Y-101800500D01*
X93686611Y-101800500D01*
X93857701Y-101773402D01*
X94022445Y-101719873D01*
X94176788Y-101641232D01*
X94316928Y-101539414D01*
X94439414Y-101416928D01*
X94541232Y-101276788D01*
X94619873Y-101122445D01*
X94673402Y-100957701D01*
X94700500Y-100786611D01*
X94700500Y-99713389D01*
X105299500Y-99713389D01*
X105299500Y-100786611D01*
X105326598Y-100957701D01*
X105380127Y-101122445D01*
X105458768Y-101276788D01*
X105560586Y-101416928D01*
X105683072Y-101539414D01*
X105823212Y-101641232D01*
X105977555Y-101719873D01*
X106142299Y-101773402D01*
X106313389Y-101800500D01*
X106313390Y-101800500D01*
X106486610Y-101800500D01*
X106486611Y-101800500D01*
X106657701Y-101773402D01*
X106822445Y-101719873D01*
X106976788Y-101641232D01*
X107116928Y-101539414D01*
X107239414Y-101416928D01*
X107341232Y-101276788D01*
X107419873Y-101122445D01*
X107426466Y-101102155D01*
X150570000Y-101102155D01*
X150570000Y-101750000D01*
X151486988Y-101750000D01*
X151454075Y-101807007D01*
X151420000Y-101934174D01*
X151420000Y-102065826D01*
X151454075Y-102192993D01*
X151486988Y-102250000D01*
X150570000Y-102250000D01*
X150570000Y-102897844D01*
X150576401Y-102957372D01*
X150576403Y-102957379D01*
X150626645Y-103092086D01*
X150626649Y-103092093D01*
X150712809Y-103207187D01*
X150712812Y-103207190D01*
X150827906Y-103293350D01*
X150827913Y-103293354D01*
X150962620Y-103343596D01*
X150962627Y-103343598D01*
X151022155Y-103349999D01*
X151022172Y-103350000D01*
X151670000Y-103350000D01*
X151670000Y-102433012D01*
X151727007Y-102465925D01*
X151854174Y-102500000D01*
X151985826Y-102500000D01*
X152112993Y-102465925D01*
X152170000Y-102433012D01*
X152170000Y-103350000D01*
X152817828Y-103350000D01*
X152817844Y-103349999D01*
X152877372Y-103343598D01*
X152877379Y-103343596D01*
X153012086Y-103293354D01*
X153012093Y-103293350D01*
X153127187Y-103207190D01*
X153127190Y-103207187D01*
X153213350Y-103092093D01*
X153213354Y-103092086D01*
X153262422Y-102960529D01*
X153304293Y-102904595D01*
X153369757Y-102880178D01*
X153438030Y-102895030D01*
X153466285Y-102916181D01*
X153588599Y-103038495D01*
X153665135Y-103092086D01*
X153782165Y-103174032D01*
X153782167Y-103174033D01*
X153782170Y-103174035D01*
X153996337Y-103273903D01*
X154224592Y-103335063D01*
X154395319Y-103350000D01*
X154459999Y-103355659D01*
X154460000Y-103355659D01*
X154460001Y-103355659D01*
X154524681Y-103350000D01*
X154695408Y-103335063D01*
X154923663Y-103273903D01*
X155137830Y-103174035D01*
X155331401Y-103038495D01*
X155498495Y-102871401D01*
X155628425Y-102685842D01*
X155683002Y-102642217D01*
X155752500Y-102635023D01*
X155814855Y-102666546D01*
X155831575Y-102685842D01*
X155961500Y-102871395D01*
X155961505Y-102871401D01*
X156128599Y-103038495D01*
X156205135Y-103092086D01*
X156322165Y-103174032D01*
X156322167Y-103174033D01*
X156322170Y-103174035D01*
X156536337Y-103273903D01*
X156764592Y-103335063D01*
X156935319Y-103350000D01*
X156999999Y-103355659D01*
X157000000Y-103355659D01*
X157000001Y-103355659D01*
X157064681Y-103350000D01*
X157235408Y-103335063D01*
X157463663Y-103273903D01*
X157677830Y-103174035D01*
X157871401Y-103038495D01*
X158038495Y-102871401D01*
X158168425Y-102685842D01*
X158223002Y-102642217D01*
X158292500Y-102635023D01*
X158354855Y-102666546D01*
X158371575Y-102685842D01*
X158501500Y-102871395D01*
X158501505Y-102871401D01*
X158668599Y-103038495D01*
X158745135Y-103092086D01*
X158862165Y-103174032D01*
X158862167Y-103174033D01*
X158862170Y-103174035D01*
X159076337Y-103273903D01*
X159304592Y-103335063D01*
X159475319Y-103350000D01*
X159539999Y-103355659D01*
X159540000Y-103355659D01*
X159540001Y-103355659D01*
X159604681Y-103350000D01*
X159775408Y-103335063D01*
X160003663Y-103273903D01*
X160217830Y-103174035D01*
X160411401Y-103038495D01*
X160578495Y-102871401D01*
X160714035Y-102677830D01*
X160813903Y-102463663D01*
X160875063Y-102235408D01*
X160895659Y-102000000D01*
X160875063Y-101764592D01*
X160828626Y-101591285D01*
X160813905Y-101536344D01*
X160813904Y-101536343D01*
X160813903Y-101536337D01*
X160714035Y-101322171D01*
X160708425Y-101314158D01*
X160578494Y-101128597D01*
X160411402Y-100961506D01*
X160411395Y-100961501D01*
X160405962Y-100957697D01*
X160334854Y-100907906D01*
X160217834Y-100825967D01*
X160217830Y-100825965D01*
X160133433Y-100786610D01*
X160003663Y-100726097D01*
X160003659Y-100726096D01*
X160003655Y-100726094D01*
X159775413Y-100664938D01*
X159775403Y-100664936D01*
X159540001Y-100644341D01*
X159539999Y-100644341D01*
X159304596Y-100664936D01*
X159304586Y-100664938D01*
X159076344Y-100726094D01*
X159076335Y-100726098D01*
X158862171Y-100825964D01*
X158862169Y-100825965D01*
X158668597Y-100961505D01*
X158501505Y-101128597D01*
X158371575Y-101314158D01*
X158316998Y-101357783D01*
X158247500Y-101364977D01*
X158185145Y-101333454D01*
X158168425Y-101314158D01*
X158038494Y-101128597D01*
X157871402Y-100961506D01*
X157871395Y-100961501D01*
X157865962Y-100957697D01*
X157794854Y-100907906D01*
X157677834Y-100825967D01*
X157677830Y-100825965D01*
X157593433Y-100786610D01*
X157463663Y-100726097D01*
X157463659Y-100726096D01*
X157463655Y-100726094D01*
X157235413Y-100664938D01*
X157235403Y-100664936D01*
X157000001Y-100644341D01*
X156999999Y-100644341D01*
X156764596Y-100664936D01*
X156764586Y-100664938D01*
X156536344Y-100726094D01*
X156536335Y-100726098D01*
X156322171Y-100825964D01*
X156322169Y-100825965D01*
X156128597Y-100961505D01*
X155961505Y-101128597D01*
X155831575Y-101314158D01*
X155776998Y-101357783D01*
X155707500Y-101364977D01*
X155645145Y-101333454D01*
X155628425Y-101314158D01*
X155498494Y-101128597D01*
X155331402Y-100961506D01*
X155331395Y-100961501D01*
X155325962Y-100957697D01*
X155254854Y-100907906D01*
X155137834Y-100825967D01*
X155137830Y-100825965D01*
X155053433Y-100786610D01*
X154923663Y-100726097D01*
X154923659Y-100726096D01*
X154923655Y-100726094D01*
X154695413Y-100664938D01*
X154695403Y-100664936D01*
X154460001Y-100644341D01*
X154459999Y-100644341D01*
X154224596Y-100664936D01*
X154224586Y-100664938D01*
X153996344Y-100726094D01*
X153996335Y-100726098D01*
X153782171Y-100825964D01*
X153782169Y-100825965D01*
X153588600Y-100961503D01*
X153466284Y-101083819D01*
X153404961Y-101117303D01*
X153335269Y-101112319D01*
X153279336Y-101070447D01*
X153262421Y-101039470D01*
X153213354Y-100907913D01*
X153213350Y-100907906D01*
X153127190Y-100792812D01*
X153127187Y-100792809D01*
X153012093Y-100706649D01*
X153012086Y-100706645D01*
X152877379Y-100656403D01*
X152877372Y-100656401D01*
X152817844Y-100650000D01*
X152170000Y-100650000D01*
X152170000Y-101566988D01*
X152112993Y-101534075D01*
X151985826Y-101500000D01*
X151854174Y-101500000D01*
X151727007Y-101534075D01*
X151670000Y-101566988D01*
X151670000Y-100650000D01*
X151022155Y-100650000D01*
X150962627Y-100656401D01*
X150962620Y-100656403D01*
X150827913Y-100706645D01*
X150827906Y-100706649D01*
X150712812Y-100792809D01*
X150712809Y-100792812D01*
X150626649Y-100907906D01*
X150626645Y-100907913D01*
X150576403Y-101042620D01*
X150576401Y-101042627D01*
X150570000Y-101102155D01*
X107426466Y-101102155D01*
X107473402Y-100957701D01*
X107500500Y-100786611D01*
X107500500Y-99713389D01*
X107473402Y-99542299D01*
X107419873Y-99377555D01*
X107341232Y-99223212D01*
X107239414Y-99083072D01*
X107116928Y-98960586D01*
X106976788Y-98858768D01*
X106822445Y-98780127D01*
X106657701Y-98726598D01*
X106657699Y-98726597D01*
X106657698Y-98726597D01*
X106526271Y-98705781D01*
X106486611Y-98699500D01*
X106313389Y-98699500D01*
X106273728Y-98705781D01*
X106142302Y-98726597D01*
X105977552Y-98780128D01*
X105823211Y-98858768D01*
X105811193Y-98867500D01*
X105683072Y-98960586D01*
X105683070Y-98960588D01*
X105683069Y-98960588D01*
X105560588Y-99083069D01*
X105560588Y-99083070D01*
X105560586Y-99083072D01*
X105532666Y-99121501D01*
X105458768Y-99223211D01*
X105380128Y-99377552D01*
X105326597Y-99542302D01*
X105302201Y-99696335D01*
X105299500Y-99713389D01*
X94700500Y-99713389D01*
X94673402Y-99542299D01*
X94619873Y-99377555D01*
X94541232Y-99223212D01*
X94439414Y-99083072D01*
X94316928Y-98960586D01*
X94176788Y-98858768D01*
X94022445Y-98780127D01*
X93857701Y-98726598D01*
X93857699Y-98726597D01*
X93857698Y-98726597D01*
X93726271Y-98705781D01*
X93686611Y-98699500D01*
X93513389Y-98699500D01*
X93473728Y-98705781D01*
X93342302Y-98726597D01*
X93177552Y-98780128D01*
X93023211Y-98858768D01*
X93011193Y-98867500D01*
X92883072Y-98960586D01*
X92883070Y-98960588D01*
X92883069Y-98960588D01*
X92760588Y-99083069D01*
X92760588Y-99083070D01*
X92760586Y-99083072D01*
X92732666Y-99121501D01*
X92658768Y-99223211D01*
X92580128Y-99377552D01*
X92526597Y-99542302D01*
X92502201Y-99696335D01*
X92499500Y-99713389D01*
X89500500Y-99713389D01*
X89500500Y-91063389D01*
X92499500Y-91063389D01*
X92499500Y-92436611D01*
X92526598Y-92607701D01*
X92580127Y-92772445D01*
X92658768Y-92926788D01*
X92760586Y-93066928D01*
X92883072Y-93189414D01*
X93023212Y-93291232D01*
X93177555Y-93369873D01*
X93342299Y-93423402D01*
X93513389Y-93450500D01*
X93513390Y-93450500D01*
X93686610Y-93450500D01*
X93686611Y-93450500D01*
X93857701Y-93423402D01*
X94022445Y-93369873D01*
X94176788Y-93291232D01*
X94316928Y-93189414D01*
X94439414Y-93066928D01*
X94541232Y-92926788D01*
X94619873Y-92772445D01*
X94673402Y-92607701D01*
X94700500Y-92436611D01*
X94700500Y-91343027D01*
X94720185Y-91275988D01*
X94772989Y-91230233D01*
X94842147Y-91220289D01*
X94905703Y-91249314D01*
X94943477Y-91308092D01*
X94943735Y-91308986D01*
X94961544Y-91371575D01*
X94969417Y-91399247D01*
X94969422Y-91399260D01*
X95060327Y-91581821D01*
X95183237Y-91744581D01*
X95333957Y-91881980D01*
X95350580Y-91892272D01*
X95397216Y-91944300D01*
X95408662Y-92010302D01*
X95399500Y-92099981D01*
X95399500Y-92900001D01*
X95399501Y-92900019D01*
X95410000Y-93002796D01*
X95410001Y-93002799D01*
X95465185Y-93169331D01*
X95465187Y-93169336D01*
X95477571Y-93189414D01*
X95557288Y-93318656D01*
X95681344Y-93442712D01*
X95830666Y-93534814D01*
X95997203Y-93589999D01*
X96099991Y-93600500D01*
X96900008Y-93600499D01*
X96900016Y-93600498D01*
X96900019Y-93600498D01*
X96956302Y-93594748D01*
X97002797Y-93589999D01*
X97169334Y-93534814D01*
X97318656Y-93442712D01*
X97442712Y-93318656D01*
X97534814Y-93169334D01*
X97589999Y-93002797D01*
X97600500Y-92900009D01*
X97600499Y-92194209D01*
X97620183Y-92127171D01*
X97672987Y-92081416D01*
X97742146Y-92071472D01*
X97747239Y-92072313D01*
X97832175Y-92088190D01*
X97894455Y-92119858D01*
X97929728Y-92180171D01*
X97928656Y-92244011D01*
X97913603Y-92296917D01*
X97913602Y-92296921D01*
X97894785Y-92499999D01*
X97894785Y-92500000D01*
X97913602Y-92703082D01*
X97969417Y-92899247D01*
X97969422Y-92899260D01*
X98060327Y-93081821D01*
X98183237Y-93244581D01*
X98333958Y-93381980D01*
X98333960Y-93381982D01*
X98400856Y-93423402D01*
X98507363Y-93489348D01*
X98697544Y-93563024D01*
X98898024Y-93600500D01*
X98898026Y-93600500D01*
X99101974Y-93600500D01*
X99101976Y-93600500D01*
X99302456Y-93563024D01*
X99492637Y-93489348D01*
X99666041Y-93381981D01*
X99816764Y-93244579D01*
X99901046Y-93132970D01*
X99957155Y-93091335D01*
X100026867Y-93086644D01*
X100088049Y-93120386D01*
X100098954Y-93132971D01*
X100183237Y-93244581D01*
X100333958Y-93381980D01*
X100333960Y-93381982D01*
X100400856Y-93423402D01*
X100507363Y-93489348D01*
X100697544Y-93563024D01*
X100898024Y-93600500D01*
X100898026Y-93600500D01*
X101101974Y-93600500D01*
X101101976Y-93600500D01*
X101302456Y-93563024D01*
X101492637Y-93489348D01*
X101666041Y-93381981D01*
X101816764Y-93244579D01*
X101939673Y-93081821D01*
X102030582Y-92899250D01*
X102086397Y-92703083D01*
X102105215Y-92500000D01*
X102086397Y-92296917D01*
X102071344Y-92244011D01*
X102071930Y-92174147D01*
X102110196Y-92115688D01*
X102167822Y-92088191D01*
X102293279Y-92064739D01*
X102362792Y-92071770D01*
X102417471Y-92115268D01*
X102439953Y-92181422D01*
X102435328Y-92220563D01*
X102413602Y-92296917D01*
X102394785Y-92499999D01*
X102394785Y-92500000D01*
X102413602Y-92703082D01*
X102469417Y-92899247D01*
X102469422Y-92899260D01*
X102560327Y-93081821D01*
X102683237Y-93244581D01*
X102833958Y-93381980D01*
X102833960Y-93381982D01*
X102900856Y-93423402D01*
X103007363Y-93489348D01*
X103197544Y-93563024D01*
X103398024Y-93600500D01*
X103398026Y-93600500D01*
X103601974Y-93600500D01*
X103601976Y-93600500D01*
X103802456Y-93563024D01*
X103992637Y-93489348D01*
X104166041Y-93381981D01*
X104316764Y-93244579D01*
X104439673Y-93081821D01*
X104530582Y-92899250D01*
X104586397Y-92703083D01*
X104605215Y-92500000D01*
X104586397Y-92296917D01*
X104530582Y-92100750D01*
X104530199Y-92099981D01*
X104529628Y-92098833D01*
X104529447Y-92097819D01*
X104528509Y-92095397D01*
X104528982Y-92095213D01*
X104517367Y-92030047D01*
X104544240Y-91965552D01*
X104575351Y-91938134D01*
X104666039Y-91881982D01*
X104666038Y-91881982D01*
X104666041Y-91881981D01*
X104816764Y-91744579D01*
X104939673Y-91581821D01*
X105030582Y-91399250D01*
X105056234Y-91309090D01*
X105093513Y-91249999D01*
X105156823Y-91220442D01*
X105226062Y-91229804D01*
X105279249Y-91275114D01*
X105299496Y-91341986D01*
X105299500Y-91343027D01*
X105299500Y-92436611D01*
X105326598Y-92607701D01*
X105380127Y-92772445D01*
X105458768Y-92926788D01*
X105560586Y-93066928D01*
X105683072Y-93189414D01*
X105823212Y-93291232D01*
X105977555Y-93369873D01*
X106142299Y-93423402D01*
X106313389Y-93450500D01*
X106313390Y-93450500D01*
X106486610Y-93450500D01*
X106486611Y-93450500D01*
X106657701Y-93423402D01*
X106822445Y-93369873D01*
X106976788Y-93291232D01*
X107116928Y-93189414D01*
X107239414Y-93066928D01*
X107341232Y-92926788D01*
X107419873Y-92772445D01*
X107473402Y-92607701D01*
X107500500Y-92436611D01*
X107500500Y-91063389D01*
X107473402Y-90892299D01*
X107419873Y-90727555D01*
X107341232Y-90573212D01*
X107288037Y-90499996D01*
X148694435Y-90499996D01*
X148694435Y-90500003D01*
X148714630Y-90679249D01*
X148714631Y-90679254D01*
X148774211Y-90849523D01*
X148843061Y-90959096D01*
X148870184Y-91002262D01*
X148997738Y-91129816D01*
X149059184Y-91168425D01*
X149146042Y-91223002D01*
X149150478Y-91225789D01*
X149276826Y-91270000D01*
X149320745Y-91285368D01*
X149320750Y-91285369D01*
X149499996Y-91305565D01*
X149500000Y-91305565D01*
X149500004Y-91305565D01*
X149679249Y-91285369D01*
X149679252Y-91285368D01*
X149679255Y-91285368D01*
X149849522Y-91225789D01*
X150002262Y-91129816D01*
X150129816Y-91002262D01*
X150225789Y-90849522D01*
X150285368Y-90679255D01*
X150295161Y-90592329D01*
X150322226Y-90527918D01*
X150330690Y-90518543D01*
X150849234Y-89999999D01*
X188144341Y-89999999D01*
X188144341Y-90000000D01*
X188164936Y-90235403D01*
X188164938Y-90235413D01*
X188226094Y-90463655D01*
X188226096Y-90463659D01*
X188226097Y-90463663D01*
X188256060Y-90527918D01*
X188325965Y-90677830D01*
X188325967Y-90677834D01*
X188409351Y-90796917D01*
X188446184Y-90849521D01*
X188461501Y-90871395D01*
X188461506Y-90871402D01*
X188628597Y-91038493D01*
X188628603Y-91038498D01*
X188814158Y-91168425D01*
X188857783Y-91223002D01*
X188864977Y-91292500D01*
X188833454Y-91354855D01*
X188814158Y-91371575D01*
X188628597Y-91501505D01*
X188461505Y-91668597D01*
X188325965Y-91862169D01*
X188325964Y-91862171D01*
X188226098Y-92076335D01*
X188226094Y-92076344D01*
X188164938Y-92304586D01*
X188164936Y-92304596D01*
X188144341Y-92539999D01*
X188144341Y-92540000D01*
X188164936Y-92775403D01*
X188164938Y-92775413D01*
X188226094Y-93003655D01*
X188226096Y-93003659D01*
X188226097Y-93003663D01*
X188303351Y-93169334D01*
X188325965Y-93217830D01*
X188325967Y-93217834D01*
X188461501Y-93411395D01*
X188461506Y-93411402D01*
X188628597Y-93578493D01*
X188628603Y-93578498D01*
X188814158Y-93708425D01*
X188857783Y-93763002D01*
X188864977Y-93832500D01*
X188833454Y-93894855D01*
X188814158Y-93911575D01*
X188628597Y-94041505D01*
X188461505Y-94208597D01*
X188325965Y-94402169D01*
X188325964Y-94402171D01*
X188226098Y-94616335D01*
X188226094Y-94616344D01*
X188164938Y-94844586D01*
X188164936Y-94844596D01*
X188144341Y-95079999D01*
X188144341Y-95080000D01*
X188164936Y-95315403D01*
X188164938Y-95315413D01*
X188226094Y-95543655D01*
X188226096Y-95543659D01*
X188226097Y-95543663D01*
X188325965Y-95757830D01*
X188325967Y-95757834D01*
X188461501Y-95951395D01*
X188461506Y-95951402D01*
X188628597Y-96118493D01*
X188628603Y-96118498D01*
X188814158Y-96248425D01*
X188857783Y-96303002D01*
X188864977Y-96372500D01*
X188833454Y-96434855D01*
X188814158Y-96451575D01*
X188628597Y-96581505D01*
X188461505Y-96748597D01*
X188325965Y-96942169D01*
X188325964Y-96942171D01*
X188226098Y-97156335D01*
X188226094Y-97156344D01*
X188164938Y-97384586D01*
X188164936Y-97384596D01*
X188144341Y-97619999D01*
X188144341Y-97620000D01*
X188164936Y-97855403D01*
X188164938Y-97855413D01*
X188226094Y-98083655D01*
X188226096Y-98083659D01*
X188226097Y-98083663D01*
X188325965Y-98297830D01*
X188325967Y-98297834D01*
X188461501Y-98491395D01*
X188461506Y-98491402D01*
X188628597Y-98658493D01*
X188628603Y-98658498D01*
X188814158Y-98788425D01*
X188857783Y-98843002D01*
X188864977Y-98912500D01*
X188833454Y-98974855D01*
X188814158Y-98991575D01*
X188628597Y-99121505D01*
X188461505Y-99288597D01*
X188325965Y-99482169D01*
X188325964Y-99482171D01*
X188226098Y-99696335D01*
X188226094Y-99696344D01*
X188164938Y-99924586D01*
X188164936Y-99924596D01*
X188144341Y-100159999D01*
X188144341Y-100160000D01*
X188164936Y-100395403D01*
X188164938Y-100395413D01*
X188226094Y-100623655D01*
X188226096Y-100623659D01*
X188226097Y-100623663D01*
X188296299Y-100774211D01*
X188325965Y-100837830D01*
X188325967Y-100837834D01*
X188412560Y-100961501D01*
X188461505Y-101031401D01*
X188628599Y-101198495D01*
X188725384Y-101266265D01*
X188822165Y-101334032D01*
X188822167Y-101334033D01*
X188822170Y-101334035D01*
X189036337Y-101433903D01*
X189264592Y-101495063D01*
X189452918Y-101511539D01*
X189499999Y-101515659D01*
X189500000Y-101515659D01*
X189500001Y-101515659D01*
X189539234Y-101512226D01*
X189735408Y-101495063D01*
X189963663Y-101433903D01*
X190177830Y-101334035D01*
X190371401Y-101198495D01*
X190538495Y-101031401D01*
X190674035Y-100837830D01*
X190773903Y-100623663D01*
X190835063Y-100395408D01*
X190855659Y-100160000D01*
X190835063Y-99924592D01*
X190773903Y-99696337D01*
X190674035Y-99482171D01*
X190600783Y-99377555D01*
X190538494Y-99288597D01*
X190371402Y-99121506D01*
X190371396Y-99121501D01*
X190185842Y-98991575D01*
X190142217Y-98936998D01*
X190135023Y-98867500D01*
X190166546Y-98805145D01*
X190185842Y-98788425D01*
X190274141Y-98726597D01*
X190371401Y-98658495D01*
X190538495Y-98491401D01*
X190674035Y-98297830D01*
X190773903Y-98083663D01*
X190835063Y-97855408D01*
X190855659Y-97620000D01*
X190835063Y-97384592D01*
X190773903Y-97156337D01*
X190674035Y-96942171D01*
X190538495Y-96748599D01*
X190538494Y-96748597D01*
X190371402Y-96581506D01*
X190371396Y-96581501D01*
X190185842Y-96451575D01*
X190142217Y-96396998D01*
X190135023Y-96327500D01*
X190166546Y-96265145D01*
X190185842Y-96248425D01*
X190208026Y-96232891D01*
X190371401Y-96118495D01*
X190538495Y-95951401D01*
X190674035Y-95757830D01*
X190773903Y-95543663D01*
X190835063Y-95315408D01*
X190855659Y-95080000D01*
X190835063Y-94844592D01*
X190773903Y-94616337D01*
X190674035Y-94402171D01*
X190538495Y-94208599D01*
X190538494Y-94208597D01*
X190371402Y-94041506D01*
X190371396Y-94041501D01*
X190185842Y-93911575D01*
X190142217Y-93856998D01*
X190135023Y-93787500D01*
X190166546Y-93725145D01*
X190185842Y-93708425D01*
X190208026Y-93692891D01*
X190371401Y-93578495D01*
X190538495Y-93411401D01*
X190674035Y-93217830D01*
X190773903Y-93003663D01*
X190835063Y-92775408D01*
X190855659Y-92540000D01*
X190835063Y-92304592D01*
X190773903Y-92076337D01*
X190674035Y-91862171D01*
X190538495Y-91668599D01*
X190538494Y-91668597D01*
X190371402Y-91501506D01*
X190371396Y-91501501D01*
X190185842Y-91371575D01*
X190142217Y-91316998D01*
X190135023Y-91247500D01*
X190166546Y-91185145D01*
X190185842Y-91168425D01*
X190240983Y-91129815D01*
X190371401Y-91038495D01*
X190538495Y-90871401D01*
X190674035Y-90677830D01*
X190773903Y-90463663D01*
X190835063Y-90235408D01*
X190855659Y-90000000D01*
X190835063Y-89764592D01*
X190773903Y-89536337D01*
X190674035Y-89322171D01*
X190538495Y-89128599D01*
X190416179Y-89006283D01*
X190382696Y-88944963D01*
X190387680Y-88875271D01*
X190429551Y-88819337D01*
X190460529Y-88802422D01*
X190592086Y-88753354D01*
X190592093Y-88753350D01*
X190707187Y-88667190D01*
X190707190Y-88667187D01*
X190793350Y-88552093D01*
X190793354Y-88552086D01*
X190843596Y-88417379D01*
X190843598Y-88417372D01*
X190849999Y-88357844D01*
X190850000Y-88357827D01*
X190850000Y-87710000D01*
X189933012Y-87710000D01*
X189965925Y-87652993D01*
X190000000Y-87525826D01*
X190000000Y-87394174D01*
X189965925Y-87267007D01*
X189933012Y-87210000D01*
X190850000Y-87210000D01*
X190850000Y-86562172D01*
X190849999Y-86562155D01*
X190843598Y-86502627D01*
X190843596Y-86502620D01*
X190793354Y-86367913D01*
X190793350Y-86367906D01*
X190707190Y-86252812D01*
X190707187Y-86252809D01*
X190592093Y-86166649D01*
X190592086Y-86166645D01*
X190457379Y-86116403D01*
X190457372Y-86116401D01*
X190397844Y-86110000D01*
X189750000Y-86110000D01*
X189750000Y-87026988D01*
X189692993Y-86994075D01*
X189565826Y-86960000D01*
X189434174Y-86960000D01*
X189307007Y-86994075D01*
X189250000Y-87026988D01*
X189250000Y-86110000D01*
X188602155Y-86110000D01*
X188542627Y-86116401D01*
X188542620Y-86116403D01*
X188407913Y-86166645D01*
X188407906Y-86166649D01*
X188292812Y-86252809D01*
X188292809Y-86252812D01*
X188206649Y-86367906D01*
X188206645Y-86367913D01*
X188156403Y-86502620D01*
X188156401Y-86502627D01*
X188150000Y-86562155D01*
X188150000Y-87210000D01*
X189066988Y-87210000D01*
X189034075Y-87267007D01*
X189000000Y-87394174D01*
X189000000Y-87525826D01*
X189034075Y-87652993D01*
X189066988Y-87710000D01*
X188150000Y-87710000D01*
X188150000Y-88357844D01*
X188156401Y-88417372D01*
X188156403Y-88417379D01*
X188206645Y-88552086D01*
X188206649Y-88552093D01*
X188292809Y-88667187D01*
X188292812Y-88667190D01*
X188407906Y-88753350D01*
X188407913Y-88753354D01*
X188539470Y-88802421D01*
X188595403Y-88844292D01*
X188619821Y-88909756D01*
X188604970Y-88978029D01*
X188583819Y-89006284D01*
X188461503Y-89128600D01*
X188325965Y-89322169D01*
X188325964Y-89322171D01*
X188226098Y-89536335D01*
X188226094Y-89536344D01*
X188164938Y-89764586D01*
X188164936Y-89764596D01*
X188144341Y-89999999D01*
X150849234Y-89999999D01*
X153212416Y-87636819D01*
X153273739Y-87603334D01*
X153300097Y-87600500D01*
X153417588Y-87600500D01*
X153484627Y-87620185D01*
X153494903Y-87627555D01*
X153497736Y-87629814D01*
X153497738Y-87629816D01*
X153650478Y-87725789D01*
X153820745Y-87785368D01*
X153820750Y-87785369D01*
X153999996Y-87805565D01*
X154000000Y-87805565D01*
X154000004Y-87805565D01*
X154179249Y-87785369D01*
X154179252Y-87785368D01*
X154179255Y-87785368D01*
X154349522Y-87725789D01*
X154502262Y-87629816D01*
X154629816Y-87502262D01*
X154725789Y-87349522D01*
X154785368Y-87179255D01*
X154805565Y-87000000D01*
X154804897Y-86994075D01*
X154785369Y-86820750D01*
X154785368Y-86820745D01*
X154725788Y-86650476D01*
X154686582Y-86588080D01*
X154629816Y-86497738D01*
X154502262Y-86370184D01*
X154469379Y-86349522D01*
X154349523Y-86274211D01*
X154179254Y-86214631D01*
X154179249Y-86214630D01*
X154000004Y-86194435D01*
X153999996Y-86194435D01*
X153820750Y-86214630D01*
X153820745Y-86214631D01*
X153650476Y-86274211D01*
X153497736Y-86370185D01*
X153494903Y-86372445D01*
X153492724Y-86373334D01*
X153491842Y-86373889D01*
X153491744Y-86373734D01*
X153430217Y-86398855D01*
X153417588Y-86399500D01*
X152920940Y-86399500D01*
X152880019Y-86410464D01*
X152880019Y-86410465D01*
X152842751Y-86420451D01*
X152768214Y-86440423D01*
X152768209Y-86440426D01*
X152631290Y-86519475D01*
X152631284Y-86519480D01*
X152519478Y-86631286D01*
X149481465Y-89669298D01*
X149420142Y-89702783D01*
X149407668Y-89704837D01*
X149320750Y-89714630D01*
X149150478Y-89774210D01*
X148997737Y-89870184D01*
X148870184Y-89997737D01*
X148774211Y-90150476D01*
X148714631Y-90320745D01*
X148714630Y-90320750D01*
X148694435Y-90499996D01*
X107288037Y-90499996D01*
X107239414Y-90433072D01*
X107116928Y-90310586D01*
X106976788Y-90208768D01*
X106822445Y-90130127D01*
X106657701Y-90076598D01*
X106657699Y-90076597D01*
X106657698Y-90076597D01*
X106526271Y-90055781D01*
X106486611Y-90049500D01*
X106313389Y-90049500D01*
X106273728Y-90055781D01*
X106142302Y-90076597D01*
X105977552Y-90130128D01*
X105823211Y-90208768D01*
X105759000Y-90255421D01*
X105683072Y-90310586D01*
X105683070Y-90310588D01*
X105683069Y-90310588D01*
X105560588Y-90433069D01*
X105560588Y-90433070D01*
X105560586Y-90433072D01*
X105538360Y-90463664D01*
X105458768Y-90573211D01*
X105380128Y-90727550D01*
X105332471Y-90874223D01*
X105293033Y-90931898D01*
X105228674Y-90959096D01*
X105159828Y-90947181D01*
X105108352Y-90899936D01*
X105091069Y-90847345D01*
X105086397Y-90796917D01*
X105030582Y-90600750D01*
X105016869Y-90573211D01*
X104980413Y-90499996D01*
X104939673Y-90418179D01*
X104816764Y-90255421D01*
X104816762Y-90255418D01*
X104666041Y-90118019D01*
X104666039Y-90118017D01*
X104492642Y-90010655D01*
X104492635Y-90010651D01*
X104397546Y-89973814D01*
X104302456Y-89936976D01*
X104101976Y-89899500D01*
X103898024Y-89899500D01*
X103697544Y-89936976D01*
X103697541Y-89936976D01*
X103697541Y-89936977D01*
X103507364Y-90010651D01*
X103507357Y-90010655D01*
X103333960Y-90118017D01*
X103333958Y-90118019D01*
X103183237Y-90255419D01*
X103098954Y-90367028D01*
X103042845Y-90408664D01*
X102973133Y-90413355D01*
X102911951Y-90379613D01*
X102901046Y-90367028D01*
X102816762Y-90255419D01*
X102666041Y-90118019D01*
X102666039Y-90118017D01*
X102492642Y-90010655D01*
X102492635Y-90010651D01*
X102397546Y-89973814D01*
X102302456Y-89936976D01*
X102101976Y-89899500D01*
X101898024Y-89899500D01*
X101697544Y-89936976D01*
X101697541Y-89936976D01*
X101697541Y-89936977D01*
X101507364Y-90010651D01*
X101507357Y-90010655D01*
X101333960Y-90118017D01*
X101333958Y-90118019D01*
X101183237Y-90255419D01*
X101098954Y-90367028D01*
X101042845Y-90408664D01*
X100973133Y-90413355D01*
X100911951Y-90379613D01*
X100901046Y-90367028D01*
X100816762Y-90255419D01*
X100666041Y-90118019D01*
X100666039Y-90118017D01*
X100492642Y-90010655D01*
X100492635Y-90010651D01*
X100397546Y-89973814D01*
X100302456Y-89936976D01*
X100101976Y-89899500D01*
X99898024Y-89899500D01*
X99697544Y-89936976D01*
X99697541Y-89936976D01*
X99697541Y-89936977D01*
X99507364Y-90010651D01*
X99507357Y-90010655D01*
X99333960Y-90118017D01*
X99333958Y-90118019D01*
X99183237Y-90255419D01*
X99098954Y-90367028D01*
X99042845Y-90408664D01*
X98973133Y-90413355D01*
X98911951Y-90379613D01*
X98901046Y-90367028D01*
X98816762Y-90255419D01*
X98666041Y-90118019D01*
X98666039Y-90118017D01*
X98492642Y-90010655D01*
X98492635Y-90010651D01*
X98397546Y-89973814D01*
X98302456Y-89936976D01*
X98101976Y-89899500D01*
X97898024Y-89899500D01*
X97697544Y-89936976D01*
X97697541Y-89936976D01*
X97697541Y-89936977D01*
X97507364Y-90010651D01*
X97507357Y-90010655D01*
X97333960Y-90118017D01*
X97333958Y-90118019D01*
X97183237Y-90255419D01*
X97098954Y-90367028D01*
X97042845Y-90408664D01*
X96973133Y-90413355D01*
X96911951Y-90379613D01*
X96901046Y-90367028D01*
X96816762Y-90255419D01*
X96666041Y-90118019D01*
X96666039Y-90118017D01*
X96492642Y-90010655D01*
X96492635Y-90010651D01*
X96397546Y-89973814D01*
X96302456Y-89936976D01*
X96101976Y-89899500D01*
X95898024Y-89899500D01*
X95697544Y-89936976D01*
X95697541Y-89936976D01*
X95697541Y-89936977D01*
X95507364Y-90010651D01*
X95507357Y-90010655D01*
X95333960Y-90118017D01*
X95333958Y-90118019D01*
X95183237Y-90255418D01*
X95060327Y-90418178D01*
X94969422Y-90600739D01*
X94969417Y-90600752D01*
X94913603Y-90796917D01*
X94908930Y-90847346D01*
X94883144Y-90912283D01*
X94826343Y-90952970D01*
X94756562Y-90956490D01*
X94695956Y-90921725D01*
X94667528Y-90874222D01*
X94666612Y-90871402D01*
X94619873Y-90727555D01*
X94541232Y-90573212D01*
X94439414Y-90433072D01*
X94316928Y-90310586D01*
X94176788Y-90208768D01*
X94022445Y-90130127D01*
X93857701Y-90076598D01*
X93857699Y-90076597D01*
X93857698Y-90076597D01*
X93726271Y-90055781D01*
X93686611Y-90049500D01*
X93513389Y-90049500D01*
X93473728Y-90055781D01*
X93342302Y-90076597D01*
X93177552Y-90130128D01*
X93023211Y-90208768D01*
X92959000Y-90255421D01*
X92883072Y-90310586D01*
X92883070Y-90310588D01*
X92883069Y-90310588D01*
X92760588Y-90433069D01*
X92760588Y-90433070D01*
X92760586Y-90433072D01*
X92738360Y-90463664D01*
X92658768Y-90573211D01*
X92580128Y-90727552D01*
X92526597Y-90892302D01*
X92503443Y-91038493D01*
X92499500Y-91063389D01*
X89500500Y-91063389D01*
X89500500Y-81999996D01*
X92194435Y-81999996D01*
X92194435Y-82000003D01*
X92214630Y-82179249D01*
X92214631Y-82179254D01*
X92274211Y-82349523D01*
X92370185Y-82502263D01*
X92372445Y-82505097D01*
X92373334Y-82507275D01*
X92373889Y-82508158D01*
X92373734Y-82508255D01*
X92398855Y-82569783D01*
X92399500Y-82582412D01*
X92399500Y-84417587D01*
X92379815Y-84484626D01*
X92372450Y-84494896D01*
X92370186Y-84497734D01*
X92274211Y-84650476D01*
X92214631Y-84820745D01*
X92214630Y-84820750D01*
X92194435Y-84999996D01*
X92194435Y-85000003D01*
X92214630Y-85179249D01*
X92214631Y-85179254D01*
X92274211Y-85349523D01*
X92356523Y-85480521D01*
X92370184Y-85502262D01*
X92497738Y-85629816D01*
X92650478Y-85725789D01*
X92820742Y-85785367D01*
X92820745Y-85785368D01*
X92820750Y-85785369D01*
X92999996Y-85805565D01*
X93000000Y-85805565D01*
X93000004Y-85805565D01*
X93179249Y-85785369D01*
X93179252Y-85785368D01*
X93179255Y-85785368D01*
X93349522Y-85725789D01*
X93502262Y-85629816D01*
X93629816Y-85502262D01*
X93725789Y-85349522D01*
X93785368Y-85179255D01*
X93797036Y-85075699D01*
X93805565Y-85000003D01*
X93805565Y-84999996D01*
X93785369Y-84820750D01*
X93785368Y-84820745D01*
X93725788Y-84650476D01*
X93629813Y-84497734D01*
X93627550Y-84494896D01*
X93626659Y-84492715D01*
X93626111Y-84491842D01*
X93626264Y-84491745D01*
X93601144Y-84430209D01*
X93600500Y-84417587D01*
X93600500Y-82582412D01*
X93620185Y-82515373D01*
X93627555Y-82505097D01*
X93629810Y-82502267D01*
X93629816Y-82502262D01*
X93725789Y-82349522D01*
X93785368Y-82179255D01*
X93786074Y-82172989D01*
X93805565Y-82000003D01*
X93805565Y-81999996D01*
X93785369Y-81820750D01*
X93785368Y-81820745D01*
X93767988Y-81771077D01*
X93725789Y-81650478D01*
X93722185Y-81644743D01*
X93629815Y-81497737D01*
X93502262Y-81370184D01*
X93349523Y-81274211D01*
X93179254Y-81214631D01*
X93179249Y-81214630D01*
X93000004Y-81194435D01*
X92999996Y-81194435D01*
X92820750Y-81214630D01*
X92820745Y-81214631D01*
X92650476Y-81274211D01*
X92497737Y-81370184D01*
X92370184Y-81497737D01*
X92274211Y-81650476D01*
X92214631Y-81820745D01*
X92214630Y-81820750D01*
X92194435Y-81999996D01*
X89500500Y-81999996D01*
X89500500Y-74999996D01*
X91194435Y-74999996D01*
X91194435Y-75000003D01*
X91214630Y-75179249D01*
X91214631Y-75179254D01*
X91274211Y-75349523D01*
X91364050Y-75492500D01*
X91370184Y-75502262D01*
X91497738Y-75629816D01*
X91650478Y-75725789D01*
X91779538Y-75770949D01*
X91820745Y-75785368D01*
X91820750Y-75785369D01*
X91999996Y-75805565D01*
X92000000Y-75805565D01*
X92000004Y-75805565D01*
X92179249Y-75785369D01*
X92179252Y-75785368D01*
X92179255Y-75785368D01*
X92349522Y-75725789D01*
X92502262Y-75629816D01*
X92629816Y-75502262D01*
X92725789Y-75349522D01*
X92785368Y-75179255D01*
X92789984Y-75138288D01*
X92805565Y-75000003D01*
X92805565Y-74999996D01*
X92785369Y-74820750D01*
X92785368Y-74820745D01*
X92769828Y-74776335D01*
X92725789Y-74650478D01*
X92629816Y-74497738D01*
X92629814Y-74497736D01*
X92629813Y-74497734D01*
X92627550Y-74494896D01*
X92626659Y-74492715D01*
X92626111Y-74491842D01*
X92626264Y-74491745D01*
X92601144Y-74430209D01*
X92600500Y-74417587D01*
X92600500Y-71989097D01*
X92620185Y-71922058D01*
X92672989Y-71876303D01*
X92742147Y-71866359D01*
X92805703Y-71895384D01*
X92812181Y-71901416D01*
X93127233Y-72216468D01*
X93160718Y-72277791D01*
X93159327Y-72336241D01*
X93124939Y-72464583D01*
X93124936Y-72464596D01*
X93104341Y-72699999D01*
X93104341Y-72700000D01*
X93124936Y-72935403D01*
X93124938Y-72935413D01*
X93186094Y-73163655D01*
X93186096Y-73163659D01*
X93186097Y-73163663D01*
X93279749Y-73364499D01*
X93285965Y-73377830D01*
X93285967Y-73377834D01*
X93421501Y-73571395D01*
X93421506Y-73571402D01*
X93588597Y-73738493D01*
X93588603Y-73738498D01*
X93774158Y-73868425D01*
X93817783Y-73923002D01*
X93824977Y-73992500D01*
X93793454Y-74054855D01*
X93774158Y-74071575D01*
X93588597Y-74201505D01*
X93421505Y-74368597D01*
X93285965Y-74562169D01*
X93285964Y-74562171D01*
X93186098Y-74776335D01*
X93186094Y-74776344D01*
X93124938Y-75004586D01*
X93124936Y-75004596D01*
X93104341Y-75239999D01*
X93104341Y-75240000D01*
X93124936Y-75475403D01*
X93124938Y-75475413D01*
X93186094Y-75703655D01*
X93186096Y-75703659D01*
X93186097Y-75703663D01*
X93237704Y-75814334D01*
X93285965Y-75917830D01*
X93285967Y-75917834D01*
X93357284Y-76019684D01*
X93421505Y-76111401D01*
X93588599Y-76278495D01*
X93645511Y-76318345D01*
X93782165Y-76414032D01*
X93782167Y-76414033D01*
X93782170Y-76414035D01*
X93996337Y-76513903D01*
X94224592Y-76575063D01*
X94412918Y-76591539D01*
X94459999Y-76595659D01*
X94460000Y-76595659D01*
X94460001Y-76595659D01*
X94499234Y-76592226D01*
X94695408Y-76575063D01*
X94923663Y-76513903D01*
X95073096Y-76444220D01*
X95142172Y-76433729D01*
X95205956Y-76462249D01*
X95244196Y-76520725D01*
X95249500Y-76556603D01*
X95249500Y-77829015D01*
X95249499Y-77829033D01*
X95249499Y-77994739D01*
X95249498Y-77994739D01*
X95249499Y-77994742D01*
X95290423Y-78147470D01*
X95303047Y-78169336D01*
X95305861Y-78174209D01*
X95305862Y-78174211D01*
X95369477Y-78284397D01*
X95369481Y-78284402D01*
X95488349Y-78403270D01*
X95488355Y-78403275D01*
X102449454Y-85364374D01*
X102449464Y-85364385D01*
X102453794Y-85368715D01*
X102453795Y-85368716D01*
X102565599Y-85480520D01*
X102565601Y-85480521D01*
X102565605Y-85480524D01*
X102702524Y-85559573D01*
X102702531Y-85559577D01*
X102814334Y-85589534D01*
X102855257Y-85600500D01*
X102855258Y-85600500D01*
X103913331Y-85600500D01*
X103913347Y-85600501D01*
X103920943Y-85600501D01*
X104079054Y-85600501D01*
X104079057Y-85600501D01*
X104231785Y-85559577D01*
X104281904Y-85530639D01*
X104368716Y-85480520D01*
X104480520Y-85368716D01*
X104480521Y-85368713D01*
X104812417Y-85036816D01*
X104873739Y-85003334D01*
X104900097Y-85000500D01*
X128202886Y-85000500D01*
X128269925Y-85020185D01*
X128315680Y-85072989D01*
X128325624Y-85142147D01*
X128296599Y-85205703D01*
X128243840Y-85241542D01*
X128150478Y-85274210D01*
X127997737Y-85370184D01*
X127870184Y-85497737D01*
X127774211Y-85650476D01*
X127714631Y-85820745D01*
X127714630Y-85820750D01*
X127694435Y-85999996D01*
X127694435Y-86000003D01*
X127714630Y-86179249D01*
X127714631Y-86179254D01*
X127774211Y-86349523D01*
X127867341Y-86497737D01*
X127870184Y-86502262D01*
X127997738Y-86629816D01*
X128150478Y-86725789D01*
X128320745Y-86785368D01*
X128320750Y-86785369D01*
X128499996Y-86805565D01*
X128500000Y-86805565D01*
X128500004Y-86805565D01*
X128679249Y-86785369D01*
X128679252Y-86785368D01*
X128679255Y-86785368D01*
X128849522Y-86725789D01*
X129002262Y-86629816D01*
X129002267Y-86629810D01*
X129005097Y-86627555D01*
X129007275Y-86626665D01*
X129008158Y-86626111D01*
X129008255Y-86626265D01*
X129069783Y-86601145D01*
X129082412Y-86600500D01*
X131913331Y-86600500D01*
X131913347Y-86600501D01*
X131920943Y-86600501D01*
X132079054Y-86600501D01*
X132079057Y-86600501D01*
X132231785Y-86559577D01*
X132301233Y-86519481D01*
X132368716Y-86480520D01*
X132480520Y-86368716D01*
X132480520Y-86368714D01*
X132490724Y-86358511D01*
X132490728Y-86358506D01*
X132849237Y-85999996D01*
X147194435Y-85999996D01*
X147194435Y-86000003D01*
X147214630Y-86179249D01*
X147214631Y-86179254D01*
X147274211Y-86349523D01*
X147367341Y-86497737D01*
X147370184Y-86502262D01*
X147497738Y-86629816D01*
X147650478Y-86725789D01*
X147820745Y-86785368D01*
X147820750Y-86785369D01*
X147999996Y-86805565D01*
X148000000Y-86805565D01*
X148000004Y-86805565D01*
X148179249Y-86785369D01*
X148179252Y-86785368D01*
X148179255Y-86785368D01*
X148349522Y-86725789D01*
X148502262Y-86629816D01*
X148502267Y-86629810D01*
X148505097Y-86627555D01*
X148507275Y-86626665D01*
X148508158Y-86626111D01*
X148508255Y-86626265D01*
X148569783Y-86601145D01*
X148582412Y-86600500D01*
X148913331Y-86600500D01*
X148913347Y-86600501D01*
X148920943Y-86600501D01*
X149079054Y-86600501D01*
X149079057Y-86600501D01*
X149231785Y-86559577D01*
X149301233Y-86519481D01*
X149368716Y-86480520D01*
X149480520Y-86368716D01*
X149480520Y-86368714D01*
X149490724Y-86358511D01*
X149490728Y-86358506D01*
X150018535Y-85830698D01*
X150079856Y-85797215D01*
X150092311Y-85795163D01*
X150179255Y-85785368D01*
X150349522Y-85725789D01*
X150502262Y-85629816D01*
X150629816Y-85502262D01*
X150725789Y-85349522D01*
X150785368Y-85179255D01*
X150797036Y-85075699D01*
X150805565Y-85000003D01*
X150805565Y-84999996D01*
X150785369Y-84820750D01*
X150785368Y-84820745D01*
X150725788Y-84650476D01*
X150629815Y-84497737D01*
X150502262Y-84370184D01*
X150349523Y-84274211D01*
X150179254Y-84214631D01*
X150179249Y-84214630D01*
X150000004Y-84194435D01*
X149999996Y-84194435D01*
X149820750Y-84214630D01*
X149820745Y-84214631D01*
X149650476Y-84274211D01*
X149497737Y-84370184D01*
X149370184Y-84497737D01*
X149274210Y-84650478D01*
X149214630Y-84820750D01*
X149204837Y-84907668D01*
X149177770Y-84972082D01*
X149169298Y-84981465D01*
X148787584Y-85363181D01*
X148726261Y-85396666D01*
X148699903Y-85399500D01*
X148582412Y-85399500D01*
X148515373Y-85379815D01*
X148505097Y-85372445D01*
X148502263Y-85370185D01*
X148502262Y-85370184D01*
X148445496Y-85334515D01*
X148349523Y-85274211D01*
X148179254Y-85214631D01*
X148179249Y-85214630D01*
X148000004Y-85194435D01*
X148000003Y-85194435D01*
X148000001Y-85194435D01*
X148000000Y-85194435D01*
X147975068Y-85197244D01*
X147953109Y-85199718D01*
X147884287Y-85187662D01*
X147832908Y-85140312D01*
X147816066Y-85075699D01*
X147825621Y-85142148D01*
X147796596Y-85205704D01*
X147743838Y-85241543D01*
X147650476Y-85274211D01*
X147497737Y-85370184D01*
X147370184Y-85497737D01*
X147274211Y-85650476D01*
X147214631Y-85820745D01*
X147214630Y-85820750D01*
X147194435Y-85999996D01*
X132849237Y-85999996D01*
X133018535Y-85830698D01*
X133079856Y-85797215D01*
X133092311Y-85795163D01*
X133179255Y-85785368D01*
X133349522Y-85725789D01*
X133502262Y-85629816D01*
X133629816Y-85502262D01*
X133725789Y-85349522D01*
X133785368Y-85179255D01*
X133793102Y-85110617D01*
X133820168Y-85046203D01*
X133877763Y-85006648D01*
X133916322Y-85000500D01*
X147579017Y-85000500D01*
X147579033Y-85000501D01*
X147702883Y-85000501D01*
X147769922Y-85020186D01*
X147815323Y-85072582D01*
X147837013Y-85006296D01*
X147891192Y-84962179D01*
X147891781Y-84961933D01*
X147897465Y-84959578D01*
X147897471Y-84959577D01*
X147947590Y-84930639D01*
X148034402Y-84880520D01*
X148146206Y-84768716D01*
X148146206Y-84768714D01*
X148156414Y-84758507D01*
X148156416Y-84758504D01*
X150858506Y-82056414D01*
X150858511Y-82056410D01*
X150868714Y-82046206D01*
X150868716Y-82046206D01*
X150980520Y-81934402D01*
X151033185Y-81843182D01*
X151059577Y-81797471D01*
X151100500Y-81644744D01*
X151100500Y-81486629D01*
X151100500Y-71920943D01*
X151100499Y-71920936D01*
X151100113Y-71919497D01*
X151100114Y-71919496D01*
X151100105Y-71919471D01*
X151095267Y-71901416D01*
X151081625Y-71850500D01*
X151059577Y-71768216D01*
X151024550Y-71707547D01*
X150980524Y-71631290D01*
X150980521Y-71631286D01*
X150980520Y-71631284D01*
X150868716Y-71519480D01*
X150868715Y-71519479D01*
X150864385Y-71515149D01*
X150864374Y-71515139D01*
X150451370Y-71102135D01*
X165149500Y-71102135D01*
X165149500Y-72897870D01*
X165149501Y-72897876D01*
X165155908Y-72957483D01*
X165206202Y-73092328D01*
X165206206Y-73092335D01*
X165292452Y-73207544D01*
X165292455Y-73207547D01*
X165407664Y-73293793D01*
X165407671Y-73293797D01*
X165542517Y-73344091D01*
X165542516Y-73344091D01*
X165549444Y-73344835D01*
X165602127Y-73350500D01*
X167397872Y-73350499D01*
X167457483Y-73344091D01*
X167592331Y-73293796D01*
X167707546Y-73207546D01*
X167793796Y-73092331D01*
X167843002Y-72960401D01*
X167884872Y-72904468D01*
X167950337Y-72880050D01*
X168018610Y-72894901D01*
X168046865Y-72916053D01*
X168168917Y-73038105D01*
X168362421Y-73173600D01*
X168576507Y-73273429D01*
X168576516Y-73273433D01*
X168790000Y-73330634D01*
X168790000Y-72433012D01*
X168847007Y-72465925D01*
X168974174Y-72500000D01*
X169105826Y-72500000D01*
X169232993Y-72465925D01*
X169290000Y-72433012D01*
X169290000Y-73330633D01*
X169503483Y-73273433D01*
X169503492Y-73273429D01*
X169717578Y-73173600D01*
X169911082Y-73038105D01*
X170078105Y-72871082D01*
X170208119Y-72685405D01*
X170262696Y-72641781D01*
X170332195Y-72634588D01*
X170394549Y-72666110D01*
X170411269Y-72685405D01*
X170541505Y-72871401D01*
X170708599Y-73038495D01*
X170796413Y-73099983D01*
X170902165Y-73174032D01*
X170902167Y-73174033D01*
X170902170Y-73174035D01*
X171116337Y-73273903D01*
X171344592Y-73335063D01*
X171521034Y-73350500D01*
X171579999Y-73355659D01*
X171580000Y-73355659D01*
X171580001Y-73355659D01*
X171638966Y-73350500D01*
X171815408Y-73335063D01*
X172043663Y-73273903D01*
X172257830Y-73174035D01*
X172451401Y-73038495D01*
X172618495Y-72871401D01*
X172754035Y-72677830D01*
X172853903Y-72463663D01*
X172915063Y-72235408D01*
X172935659Y-72000000D01*
X172915063Y-71764592D01*
X172865513Y-71579665D01*
X172853905Y-71536344D01*
X172853904Y-71536343D01*
X172853903Y-71536337D01*
X172754035Y-71322171D01*
X172748731Y-71314595D01*
X172618494Y-71128597D01*
X172451402Y-70961506D01*
X172451395Y-70961501D01*
X172257834Y-70825967D01*
X172257830Y-70825965D01*
X172248293Y-70821518D01*
X172043663Y-70726097D01*
X172043659Y-70726096D01*
X172043655Y-70726094D01*
X171815413Y-70664938D01*
X171815403Y-70664936D01*
X171580001Y-70644341D01*
X171579999Y-70644341D01*
X171344596Y-70664936D01*
X171344586Y-70664938D01*
X171116344Y-70726094D01*
X171116337Y-70726096D01*
X171116337Y-70726097D01*
X171115329Y-70726567D01*
X170902171Y-70825964D01*
X170902169Y-70825965D01*
X170708597Y-70961505D01*
X170541508Y-71128594D01*
X170411269Y-71314595D01*
X170356692Y-71358219D01*
X170287193Y-71365412D01*
X170224839Y-71333890D01*
X170208119Y-71314594D01*
X170078113Y-71128926D01*
X170078108Y-71128920D01*
X169911082Y-70961894D01*
X169717578Y-70826399D01*
X169503492Y-70726570D01*
X169503486Y-70726567D01*
X169290000Y-70669364D01*
X169290000Y-71566988D01*
X169232993Y-71534075D01*
X169105826Y-71500000D01*
X168974174Y-71500000D01*
X168847007Y-71534075D01*
X168790000Y-71566988D01*
X168790000Y-70669364D01*
X168789999Y-70669364D01*
X168576513Y-70726567D01*
X168576507Y-70726570D01*
X168362422Y-70826399D01*
X168362420Y-70826400D01*
X168168926Y-70961886D01*
X168046865Y-71083947D01*
X167985542Y-71117431D01*
X167915850Y-71112447D01*
X167859917Y-71070575D01*
X167843002Y-71039598D01*
X167841208Y-71034789D01*
X167813874Y-70961501D01*
X167793797Y-70907671D01*
X167793793Y-70907664D01*
X167707547Y-70792455D01*
X167707544Y-70792452D01*
X167592335Y-70706206D01*
X167592328Y-70706202D01*
X167457482Y-70655908D01*
X167457483Y-70655908D01*
X167397883Y-70649501D01*
X167397881Y-70649500D01*
X167397873Y-70649500D01*
X167397864Y-70649500D01*
X165602129Y-70649500D01*
X165602123Y-70649501D01*
X165542516Y-70655908D01*
X165407671Y-70706202D01*
X165407664Y-70706206D01*
X165292455Y-70792452D01*
X165292452Y-70792455D01*
X165206206Y-70907664D01*
X165206202Y-70907671D01*
X165155908Y-71042517D01*
X165149501Y-71102116D01*
X165149500Y-71102135D01*
X150451370Y-71102135D01*
X149314495Y-69965260D01*
X149281010Y-69903937D01*
X149278958Y-69891481D01*
X149269163Y-69804540D01*
X149209584Y-69634273D01*
X149113611Y-69481533D01*
X148986057Y-69353979D01*
X148986055Y-69353977D01*
X148846223Y-69266114D01*
X148799933Y-69213779D01*
X148788976Y-69147238D01*
X148805565Y-69000003D01*
X148805565Y-68999996D01*
X148785369Y-68820750D01*
X148785368Y-68820745D01*
X148725788Y-68650475D01*
X148672691Y-68565973D01*
X148653690Y-68498736D01*
X148672691Y-68434027D01*
X148725788Y-68349524D01*
X148732811Y-68329454D01*
X148785368Y-68179255D01*
X148785369Y-68179249D01*
X148805565Y-68000003D01*
X148805565Y-67999996D01*
X148785369Y-67820750D01*
X148785368Y-67820745D01*
X148765717Y-67764586D01*
X148725789Y-67650478D01*
X148705691Y-67618493D01*
X148668671Y-67559576D01*
X148629816Y-67497738D01*
X148502262Y-67370184D01*
X148478084Y-67354992D01*
X148431796Y-67302661D01*
X148421146Y-67233607D01*
X148449521Y-67169758D01*
X148478082Y-67145009D01*
X148502262Y-67129816D01*
X148629816Y-67002262D01*
X148725789Y-66849522D01*
X148785368Y-66679255D01*
X148785369Y-66679249D01*
X148805565Y-66500003D01*
X148805565Y-66499996D01*
X148785369Y-66320750D01*
X148785368Y-66320745D01*
X148725788Y-66150476D01*
X148668722Y-66059656D01*
X148629816Y-65997738D01*
X148629814Y-65997736D01*
X148629813Y-65997734D01*
X148627550Y-65994896D01*
X148626659Y-65992715D01*
X148626111Y-65991842D01*
X148626264Y-65991745D01*
X148601144Y-65930209D01*
X148600500Y-65917587D01*
X148600500Y-63999996D01*
X152194435Y-63999996D01*
X152194435Y-64000003D01*
X152214630Y-64179249D01*
X152214631Y-64179254D01*
X152274211Y-64349523D01*
X152328838Y-64436460D01*
X152370184Y-64502262D01*
X152497738Y-64629816D01*
X152529565Y-64649814D01*
X152637817Y-64717834D01*
X152650478Y-64725789D01*
X152782427Y-64771960D01*
X152820745Y-64785368D01*
X152820750Y-64785369D01*
X152883189Y-64792404D01*
X152947603Y-64819470D01*
X152974844Y-64850526D01*
X153032287Y-64943655D01*
X153032288Y-64943656D01*
X153156344Y-65067712D01*
X153305666Y-65159814D01*
X153472203Y-65214999D01*
X153574991Y-65225500D01*
X154350008Y-65225499D01*
X154350016Y-65225498D01*
X154350019Y-65225498D01*
X154406302Y-65219748D01*
X154452797Y-65214999D01*
X154619334Y-65159814D01*
X154768656Y-65067712D01*
X154892712Y-64943656D01*
X154894461Y-64940819D01*
X154896169Y-64939283D01*
X154897193Y-64937989D01*
X154897414Y-64938163D01*
X154946406Y-64894096D01*
X155015368Y-64882872D01*
X155079451Y-64910713D01*
X155105537Y-64940817D01*
X155107288Y-64943656D01*
X155231344Y-65067712D01*
X155380666Y-65159814D01*
X155547203Y-65214999D01*
X155649991Y-65225500D01*
X156425008Y-65225499D01*
X156425016Y-65225498D01*
X156425019Y-65225498D01*
X156481302Y-65219748D01*
X156527797Y-65214999D01*
X156694334Y-65159814D01*
X156843656Y-65067712D01*
X156967712Y-64943656D01*
X157059814Y-64794334D01*
X157095879Y-64685494D01*
X157135652Y-64628051D01*
X157200167Y-64601228D01*
X157213585Y-64600500D01*
X169199903Y-64600500D01*
X169266942Y-64620185D01*
X169287584Y-64636819D01*
X171173681Y-66522916D01*
X171207166Y-66584239D01*
X171210000Y-66610597D01*
X171210000Y-67566988D01*
X171152993Y-67534075D01*
X171025826Y-67500000D01*
X170894174Y-67500000D01*
X170767007Y-67534075D01*
X170710000Y-67566988D01*
X170710000Y-66669364D01*
X170709999Y-66669364D01*
X170496513Y-66726567D01*
X170496507Y-66726570D01*
X170282422Y-66826399D01*
X170282420Y-66826400D01*
X170088926Y-66961886D01*
X170088920Y-66961891D01*
X169921891Y-67128920D01*
X169921890Y-67128922D01*
X169791880Y-67314595D01*
X169737303Y-67358219D01*
X169667804Y-67365412D01*
X169605450Y-67333890D01*
X169588730Y-67314594D01*
X169458494Y-67128597D01*
X169291402Y-66961506D01*
X169291395Y-66961501D01*
X169097834Y-66825967D01*
X169097830Y-66825965D01*
X169075201Y-66815413D01*
X168883663Y-66726097D01*
X168883659Y-66726096D01*
X168883655Y-66726094D01*
X168655413Y-66664938D01*
X168655403Y-66664936D01*
X168420001Y-66644341D01*
X168419999Y-66644341D01*
X168184596Y-66664936D01*
X168184586Y-66664938D01*
X167956344Y-66726094D01*
X167956335Y-66726098D01*
X167742171Y-66825964D01*
X167742169Y-66825965D01*
X167548597Y-66961505D01*
X167381505Y-67128597D01*
X167251575Y-67314158D01*
X167196998Y-67357783D01*
X167127500Y-67364977D01*
X167065145Y-67333454D01*
X167048425Y-67314158D01*
X166918494Y-67128597D01*
X166751402Y-66961506D01*
X166751395Y-66961501D01*
X166557834Y-66825967D01*
X166557830Y-66825965D01*
X166535201Y-66815413D01*
X166343663Y-66726097D01*
X166343659Y-66726096D01*
X166343655Y-66726094D01*
X166115413Y-66664938D01*
X166115403Y-66664936D01*
X165880001Y-66644341D01*
X165879999Y-66644341D01*
X165644596Y-66664936D01*
X165644586Y-66664938D01*
X165416344Y-66726094D01*
X165416335Y-66726098D01*
X165202171Y-66825964D01*
X165202169Y-66825965D01*
X165008600Y-66961503D01*
X164886673Y-67083430D01*
X164825350Y-67116914D01*
X164755658Y-67111930D01*
X164699725Y-67070058D01*
X164682810Y-67039081D01*
X164633797Y-66907671D01*
X164633793Y-66907664D01*
X164547547Y-66792455D01*
X164547544Y-66792452D01*
X164432335Y-66706206D01*
X164432328Y-66706202D01*
X164297482Y-66655908D01*
X164297483Y-66655908D01*
X164237883Y-66649501D01*
X164237881Y-66649500D01*
X164237873Y-66649500D01*
X164237864Y-66649500D01*
X162442129Y-66649500D01*
X162442123Y-66649501D01*
X162382516Y-66655908D01*
X162247671Y-66706202D01*
X162247664Y-66706206D01*
X162132455Y-66792452D01*
X162132452Y-66792455D01*
X162046206Y-66907664D01*
X162046202Y-66907671D01*
X161995908Y-67042517D01*
X161989501Y-67102116D01*
X161989500Y-67102135D01*
X161989500Y-68897870D01*
X161989501Y-68897876D01*
X161995908Y-68957483D01*
X162046202Y-69092328D01*
X162046206Y-69092335D01*
X162132452Y-69207544D01*
X162132455Y-69207547D01*
X162247664Y-69293793D01*
X162247671Y-69293797D01*
X162382517Y-69344091D01*
X162382516Y-69344091D01*
X162389444Y-69344835D01*
X162442127Y-69350500D01*
X164237872Y-69350499D01*
X164297483Y-69344091D01*
X164432331Y-69293796D01*
X164547546Y-69207546D01*
X164633796Y-69092331D01*
X164682810Y-68960916D01*
X164724681Y-68904984D01*
X164790145Y-68880566D01*
X164858418Y-68895417D01*
X164886673Y-68916569D01*
X165008599Y-69038495D01*
X165105384Y-69106265D01*
X165202165Y-69174032D01*
X165202167Y-69174033D01*
X165202170Y-69174035D01*
X165416337Y-69273903D01*
X165644592Y-69335063D01*
X165821034Y-69350500D01*
X165879999Y-69355659D01*
X165880000Y-69355659D01*
X165880001Y-69355659D01*
X165938966Y-69350500D01*
X166115408Y-69335063D01*
X166343663Y-69273903D01*
X166557830Y-69174035D01*
X166751401Y-69038495D01*
X166918495Y-68871401D01*
X167048425Y-68685842D01*
X167103002Y-68642217D01*
X167172500Y-68635023D01*
X167234855Y-68666546D01*
X167251575Y-68685842D01*
X167381500Y-68871395D01*
X167381505Y-68871401D01*
X167548599Y-69038495D01*
X167645384Y-69106265D01*
X167742165Y-69174032D01*
X167742167Y-69174033D01*
X167742170Y-69174035D01*
X167956337Y-69273903D01*
X168184592Y-69335063D01*
X168361034Y-69350500D01*
X168419999Y-69355659D01*
X168420000Y-69355659D01*
X168420001Y-69355659D01*
X168478966Y-69350500D01*
X168655408Y-69335063D01*
X168883663Y-69273903D01*
X169097830Y-69174035D01*
X169291401Y-69038495D01*
X169458495Y-68871401D01*
X169588730Y-68685405D01*
X169643307Y-68641781D01*
X169712805Y-68634587D01*
X169775160Y-68666110D01*
X169791879Y-68685405D01*
X169921890Y-68871078D01*
X170088917Y-69038105D01*
X170282421Y-69173600D01*
X170496507Y-69273429D01*
X170496516Y-69273433D01*
X170710000Y-69330634D01*
X170710000Y-68433012D01*
X170767007Y-68465925D01*
X170894174Y-68500000D01*
X171025826Y-68500000D01*
X171152993Y-68465925D01*
X171210000Y-68433012D01*
X171210000Y-69330633D01*
X171423483Y-69273433D01*
X171423492Y-69273429D01*
X171637578Y-69173600D01*
X171831082Y-69038105D01*
X171998105Y-68871082D01*
X172128119Y-68685405D01*
X172182696Y-68641781D01*
X172252195Y-68634588D01*
X172314549Y-68666110D01*
X172331269Y-68685405D01*
X172461505Y-68871401D01*
X172628599Y-69038495D01*
X172725384Y-69106265D01*
X172822165Y-69174032D01*
X172822167Y-69174033D01*
X172822170Y-69174035D01*
X173036337Y-69273903D01*
X173264592Y-69335063D01*
X173441034Y-69350500D01*
X173499999Y-69355659D01*
X173500000Y-69355659D01*
X173500001Y-69355659D01*
X173558966Y-69350500D01*
X173735408Y-69335063D01*
X173963663Y-69273903D01*
X174177830Y-69174035D01*
X174371401Y-69038495D01*
X174538495Y-68871401D01*
X174668425Y-68685842D01*
X174723002Y-68642217D01*
X174792500Y-68635023D01*
X174854855Y-68666546D01*
X174871575Y-68685842D01*
X175001500Y-68871395D01*
X175001505Y-68871401D01*
X175168599Y-69038495D01*
X175265384Y-69106265D01*
X175362165Y-69174032D01*
X175362167Y-69174033D01*
X175362170Y-69174035D01*
X175576337Y-69273903D01*
X175804592Y-69335063D01*
X175981034Y-69350500D01*
X176039999Y-69355659D01*
X176040000Y-69355659D01*
X176040001Y-69355659D01*
X176098966Y-69350500D01*
X176275408Y-69335063D01*
X176503663Y-69273903D01*
X176717830Y-69174035D01*
X176911401Y-69038495D01*
X177078495Y-68871401D01*
X177208425Y-68685842D01*
X177263002Y-68642217D01*
X177332500Y-68635023D01*
X177394855Y-68666546D01*
X177411575Y-68685842D01*
X177541500Y-68871395D01*
X177541505Y-68871401D01*
X177708599Y-69038495D01*
X177805384Y-69106265D01*
X177902165Y-69174032D01*
X177902167Y-69174033D01*
X177902170Y-69174035D01*
X178116337Y-69273903D01*
X178344592Y-69335063D01*
X178521034Y-69350500D01*
X178579999Y-69355659D01*
X178580000Y-69355659D01*
X178580001Y-69355659D01*
X178638966Y-69350500D01*
X178815408Y-69335063D01*
X179043663Y-69273903D01*
X179257830Y-69174035D01*
X179451401Y-69038495D01*
X179618495Y-68871401D01*
X179754035Y-68677830D01*
X179853903Y-68463663D01*
X179915063Y-68235408D01*
X179935659Y-68000000D01*
X179915063Y-67764592D01*
X179853903Y-67536337D01*
X179754035Y-67322171D01*
X179748731Y-67314595D01*
X179618494Y-67128597D01*
X179451402Y-66961506D01*
X179451395Y-66961501D01*
X179257834Y-66825967D01*
X179257830Y-66825965D01*
X179235201Y-66815413D01*
X179043663Y-66726097D01*
X179043659Y-66726096D01*
X179043655Y-66726094D01*
X178815413Y-66664938D01*
X178815403Y-66664936D01*
X178580001Y-66644341D01*
X178579999Y-66644341D01*
X178344596Y-66664936D01*
X178344586Y-66664938D01*
X178116344Y-66726094D01*
X178116335Y-66726098D01*
X177902171Y-66825964D01*
X177902169Y-66825965D01*
X177708597Y-66961505D01*
X177541505Y-67128597D01*
X177411575Y-67314158D01*
X177356998Y-67357783D01*
X177287500Y-67364977D01*
X177225145Y-67333454D01*
X177208425Y-67314158D01*
X177078494Y-67128597D01*
X176911402Y-66961506D01*
X176911395Y-66961501D01*
X176717834Y-66825967D01*
X176717830Y-66825965D01*
X176695201Y-66815413D01*
X176503663Y-66726097D01*
X176503659Y-66726096D01*
X176503655Y-66726094D01*
X176275413Y-66664938D01*
X176275403Y-66664936D01*
X176040001Y-66644341D01*
X176039999Y-66644341D01*
X175804596Y-66664936D01*
X175804586Y-66664938D01*
X175576344Y-66726094D01*
X175576335Y-66726098D01*
X175362171Y-66825964D01*
X175362169Y-66825965D01*
X175168597Y-66961505D01*
X175001505Y-67128597D01*
X174871575Y-67314158D01*
X174816998Y-67357783D01*
X174747500Y-67364977D01*
X174685145Y-67333454D01*
X174668425Y-67314158D01*
X174538494Y-67128597D01*
X174371402Y-66961506D01*
X174371395Y-66961501D01*
X174177834Y-66825967D01*
X174177830Y-66825965D01*
X174155201Y-66815413D01*
X173963663Y-66726097D01*
X173963659Y-66726096D01*
X173963655Y-66726094D01*
X173735413Y-66664938D01*
X173735403Y-66664936D01*
X173500001Y-66644341D01*
X173499999Y-66644341D01*
X173264596Y-66664936D01*
X173264583Y-66664939D01*
X173136241Y-66699327D01*
X173066392Y-66697664D01*
X173016468Y-66667233D01*
X169987590Y-63638355D01*
X169987588Y-63638352D01*
X169868717Y-63519481D01*
X169868709Y-63519475D01*
X169766936Y-63460717D01*
X169766934Y-63460716D01*
X169731790Y-63440425D01*
X169731789Y-63440424D01*
X169712994Y-63435388D01*
X169579057Y-63399499D01*
X169420943Y-63399499D01*
X169413347Y-63399499D01*
X169413331Y-63399500D01*
X157213585Y-63399500D01*
X157146546Y-63379815D01*
X157100791Y-63327011D01*
X157095879Y-63314504D01*
X157095866Y-63314464D01*
X157059814Y-63205666D01*
X156967712Y-63056344D01*
X156843656Y-62932288D01*
X156696902Y-62841770D01*
X156650179Y-62789823D01*
X156638000Y-62736232D01*
X156638000Y-61499999D01*
X188144341Y-61499999D01*
X188144341Y-61500000D01*
X188164936Y-61735403D01*
X188164938Y-61735413D01*
X188226094Y-61963655D01*
X188226096Y-61963659D01*
X188226097Y-61963663D01*
X188304260Y-62131284D01*
X188325965Y-62177830D01*
X188325967Y-62177834D01*
X188461501Y-62371395D01*
X188461506Y-62371402D01*
X188628597Y-62538493D01*
X188628603Y-62538498D01*
X188814158Y-62668425D01*
X188857783Y-62723002D01*
X188864977Y-62792500D01*
X188833454Y-62854855D01*
X188814158Y-62871575D01*
X188628597Y-63001505D01*
X188461505Y-63168597D01*
X188325965Y-63362169D01*
X188325964Y-63362171D01*
X188226098Y-63576335D01*
X188226094Y-63576344D01*
X188164938Y-63804586D01*
X188164936Y-63804596D01*
X188144341Y-64039999D01*
X188144341Y-64040000D01*
X188164936Y-64275403D01*
X188164938Y-64275413D01*
X188226094Y-64503655D01*
X188226096Y-64503659D01*
X188226097Y-64503663D01*
X188283982Y-64627797D01*
X188325965Y-64717830D01*
X188325967Y-64717834D01*
X188461501Y-64911395D01*
X188461506Y-64911402D01*
X188628597Y-65078493D01*
X188628603Y-65078498D01*
X188814158Y-65208425D01*
X188857783Y-65263002D01*
X188864977Y-65332500D01*
X188833454Y-65394855D01*
X188814158Y-65411575D01*
X188628597Y-65541505D01*
X188461505Y-65708597D01*
X188325965Y-65902169D01*
X188325964Y-65902171D01*
X188226098Y-66116335D01*
X188226094Y-66116344D01*
X188164938Y-66344586D01*
X188164936Y-66344596D01*
X188144341Y-66579999D01*
X188144341Y-66580000D01*
X188164936Y-66815403D01*
X188164938Y-66815413D01*
X188226094Y-67043655D01*
X188226096Y-67043659D01*
X188226097Y-67043663D01*
X188265853Y-67128920D01*
X188325965Y-67257830D01*
X188325967Y-67257834D01*
X188413186Y-67382395D01*
X188455863Y-67443344D01*
X188461501Y-67451395D01*
X188461506Y-67451402D01*
X188628597Y-67618493D01*
X188628603Y-67618498D01*
X188814158Y-67748425D01*
X188857783Y-67803002D01*
X188864977Y-67872500D01*
X188833454Y-67934855D01*
X188814158Y-67951575D01*
X188628597Y-68081505D01*
X188461505Y-68248597D01*
X188325965Y-68442169D01*
X188325964Y-68442171D01*
X188226098Y-68656335D01*
X188226094Y-68656344D01*
X188164938Y-68884586D01*
X188164936Y-68884596D01*
X188144341Y-69119999D01*
X188144341Y-69120000D01*
X188164936Y-69355403D01*
X188164938Y-69355413D01*
X188226094Y-69583655D01*
X188226096Y-69583659D01*
X188226097Y-69583663D01*
X188288590Y-69717679D01*
X188325965Y-69797830D01*
X188325967Y-69797834D01*
X188391526Y-69891461D01*
X188456176Y-69983791D01*
X188461501Y-69991395D01*
X188461506Y-69991402D01*
X188628597Y-70158493D01*
X188628603Y-70158498D01*
X188814158Y-70288425D01*
X188857783Y-70343002D01*
X188864977Y-70412500D01*
X188833454Y-70474855D01*
X188814158Y-70491575D01*
X188628597Y-70621505D01*
X188461505Y-70788597D01*
X188325965Y-70982169D01*
X188325964Y-70982171D01*
X188226098Y-71196335D01*
X188226094Y-71196344D01*
X188164938Y-71424586D01*
X188164936Y-71424596D01*
X188144341Y-71659999D01*
X188144341Y-71660000D01*
X188164936Y-71895403D01*
X188164938Y-71895413D01*
X188226094Y-72123655D01*
X188226096Y-72123659D01*
X188226097Y-72123663D01*
X188278205Y-72235408D01*
X188325965Y-72337830D01*
X188325967Y-72337834D01*
X188415658Y-72465925D01*
X188453651Y-72520185D01*
X188461501Y-72531395D01*
X188461506Y-72531402D01*
X188628597Y-72698493D01*
X188628603Y-72698498D01*
X188814158Y-72828425D01*
X188857783Y-72883002D01*
X188864977Y-72952500D01*
X188833454Y-73014855D01*
X188814158Y-73031575D01*
X188628597Y-73161505D01*
X188461505Y-73328597D01*
X188325965Y-73522169D01*
X188325964Y-73522171D01*
X188250604Y-73683782D01*
X188226271Y-73735965D01*
X188226098Y-73736335D01*
X188226094Y-73736344D01*
X188164938Y-73964586D01*
X188164936Y-73964596D01*
X188144341Y-74199999D01*
X188144341Y-74200000D01*
X188164936Y-74435403D01*
X188164938Y-74435413D01*
X188226094Y-74663655D01*
X188226096Y-74663659D01*
X188226097Y-74663663D01*
X188304072Y-74830880D01*
X188325965Y-74877830D01*
X188325967Y-74877834D01*
X188416386Y-75006964D01*
X188455952Y-75063471D01*
X188461501Y-75071395D01*
X188461506Y-75071402D01*
X188628597Y-75238493D01*
X188628603Y-75238498D01*
X188814158Y-75368425D01*
X188857783Y-75423002D01*
X188864977Y-75492500D01*
X188833454Y-75554855D01*
X188814158Y-75571575D01*
X188628597Y-75701505D01*
X188461505Y-75868597D01*
X188325965Y-76062169D01*
X188325964Y-76062171D01*
X188226098Y-76276335D01*
X188226094Y-76276344D01*
X188164938Y-76504586D01*
X188164936Y-76504596D01*
X188144341Y-76739999D01*
X188144341Y-76740000D01*
X188164936Y-76975403D01*
X188164938Y-76975413D01*
X188226094Y-77203655D01*
X188226096Y-77203659D01*
X188226097Y-77203663D01*
X188280696Y-77320750D01*
X188325965Y-77417830D01*
X188325967Y-77417834D01*
X188381917Y-77497738D01*
X188461505Y-77611401D01*
X188628599Y-77778495D01*
X188725384Y-77846265D01*
X188822165Y-77914032D01*
X188822167Y-77914033D01*
X188822170Y-77914035D01*
X189036337Y-78013903D01*
X189264592Y-78075063D01*
X189452918Y-78091539D01*
X189499999Y-78095659D01*
X189500000Y-78095659D01*
X189500001Y-78095659D01*
X189539234Y-78092226D01*
X189735408Y-78075063D01*
X189963663Y-78013903D01*
X190177830Y-77914035D01*
X190371401Y-77778495D01*
X190538495Y-77611401D01*
X190674035Y-77417830D01*
X190773903Y-77203663D01*
X190835063Y-76975408D01*
X190855659Y-76740000D01*
X190835063Y-76504592D01*
X190773903Y-76276337D01*
X190674035Y-76062171D01*
X190644286Y-76019684D01*
X190538494Y-75868597D01*
X190371402Y-75701506D01*
X190371396Y-75701501D01*
X190185842Y-75571575D01*
X190142217Y-75516998D01*
X190135023Y-75447500D01*
X190166546Y-75385145D01*
X190185842Y-75368425D01*
X190287684Y-75297114D01*
X190371401Y-75238495D01*
X190538495Y-75071401D01*
X190674035Y-74877830D01*
X190773903Y-74663663D01*
X190835063Y-74435408D01*
X190855659Y-74200000D01*
X190835063Y-73964592D01*
X190773903Y-73736337D01*
X190674035Y-73522171D01*
X190650620Y-73488730D01*
X190538494Y-73328597D01*
X190371402Y-73161506D01*
X190371396Y-73161501D01*
X190185842Y-73031575D01*
X190142217Y-72976998D01*
X190135023Y-72907500D01*
X190166546Y-72845145D01*
X190185842Y-72828425D01*
X190208026Y-72812891D01*
X190371401Y-72698495D01*
X190538495Y-72531401D01*
X190674035Y-72337830D01*
X190773903Y-72123663D01*
X190835063Y-71895408D01*
X190855659Y-71660000D01*
X190835063Y-71424592D01*
X190773903Y-71196337D01*
X190674035Y-70982171D01*
X190661077Y-70963664D01*
X190538494Y-70788597D01*
X190371402Y-70621506D01*
X190371396Y-70621501D01*
X190185842Y-70491575D01*
X190142217Y-70436998D01*
X190135023Y-70367500D01*
X190166546Y-70305145D01*
X190185842Y-70288425D01*
X190219887Y-70264586D01*
X190371401Y-70158495D01*
X190538495Y-69991401D01*
X190674035Y-69797830D01*
X190773903Y-69583663D01*
X190835063Y-69355408D01*
X190855659Y-69120000D01*
X190835063Y-68884592D01*
X190776714Y-68666828D01*
X190773905Y-68656344D01*
X190773904Y-68656343D01*
X190773903Y-68656337D01*
X190674035Y-68442171D01*
X190667393Y-68432684D01*
X190538494Y-68248597D01*
X190371402Y-68081506D01*
X190371396Y-68081501D01*
X190185842Y-67951575D01*
X190142217Y-67896998D01*
X190135023Y-67827500D01*
X190166546Y-67765145D01*
X190185842Y-67748425D01*
X190234285Y-67714505D01*
X190371401Y-67618495D01*
X190538495Y-67451401D01*
X190674035Y-67257830D01*
X190773903Y-67043663D01*
X190835063Y-66815408D01*
X190855659Y-66580000D01*
X190835063Y-66344592D01*
X190773903Y-66116337D01*
X190674035Y-65902171D01*
X190653052Y-65872203D01*
X190538494Y-65708597D01*
X190371402Y-65541506D01*
X190371396Y-65541501D01*
X190185842Y-65411575D01*
X190142217Y-65356998D01*
X190135023Y-65287500D01*
X190166546Y-65225145D01*
X190185842Y-65208425D01*
X190210079Y-65191454D01*
X190371401Y-65078495D01*
X190538495Y-64911401D01*
X190674035Y-64717830D01*
X190773903Y-64503663D01*
X190835063Y-64275408D01*
X190855659Y-64040000D01*
X190835063Y-63804592D01*
X190773903Y-63576337D01*
X190674035Y-63362171D01*
X190665179Y-63349522D01*
X190538494Y-63168597D01*
X190371402Y-63001506D01*
X190371396Y-63001501D01*
X190185842Y-62871575D01*
X190142217Y-62816998D01*
X190135023Y-62747500D01*
X190166546Y-62685145D01*
X190185842Y-62668425D01*
X190299188Y-62589059D01*
X190371401Y-62538495D01*
X190538495Y-62371401D01*
X190674035Y-62177830D01*
X190773903Y-61963663D01*
X190835063Y-61735408D01*
X190855659Y-61500000D01*
X190835063Y-61264592D01*
X190773903Y-61036337D01*
X190674035Y-60822171D01*
X190538495Y-60628599D01*
X190416567Y-60506671D01*
X190383084Y-60445351D01*
X190388068Y-60375659D01*
X190429939Y-60319725D01*
X190460915Y-60302810D01*
X190592331Y-60253796D01*
X190707546Y-60167546D01*
X190793796Y-60052331D01*
X190844091Y-59917483D01*
X190850500Y-59857873D01*
X190850499Y-58062128D01*
X190844091Y-58002517D01*
X190839353Y-57989815D01*
X190793797Y-57867671D01*
X190793793Y-57867664D01*
X190707547Y-57752455D01*
X190707544Y-57752452D01*
X190592335Y-57666206D01*
X190592328Y-57666202D01*
X190457482Y-57615908D01*
X190457483Y-57615908D01*
X190397883Y-57609501D01*
X190397881Y-57609500D01*
X190397873Y-57609500D01*
X190397864Y-57609500D01*
X188602129Y-57609500D01*
X188602123Y-57609501D01*
X188542516Y-57615908D01*
X188407671Y-57666202D01*
X188407664Y-57666206D01*
X188292455Y-57752452D01*
X188292452Y-57752455D01*
X188206206Y-57867664D01*
X188206202Y-57867671D01*
X188155908Y-58002517D01*
X188149501Y-58062116D01*
X188149501Y-58062123D01*
X188149500Y-58062135D01*
X188149500Y-59857870D01*
X188149501Y-59857876D01*
X188155908Y-59917483D01*
X188206202Y-60052328D01*
X188206206Y-60052335D01*
X188292452Y-60167544D01*
X188292455Y-60167547D01*
X188407664Y-60253793D01*
X188407671Y-60253797D01*
X188539081Y-60302810D01*
X188595015Y-60344681D01*
X188619432Y-60410145D01*
X188604580Y-60478418D01*
X188583430Y-60506673D01*
X188461503Y-60628600D01*
X188325965Y-60822169D01*
X188325964Y-60822171D01*
X188226098Y-61036335D01*
X188226094Y-61036344D01*
X188164938Y-61264586D01*
X188164936Y-61264596D01*
X188144341Y-61499999D01*
X156638000Y-61499999D01*
X156638000Y-60126559D01*
X156638001Y-60126546D01*
X156638001Y-60024959D01*
X156657008Y-59958986D01*
X156725788Y-59849524D01*
X156785368Y-59679254D01*
X156785369Y-59679249D01*
X156805565Y-59500003D01*
X156805565Y-59499996D01*
X156785369Y-59320750D01*
X156785368Y-59320745D01*
X156725788Y-59150476D01*
X156629815Y-58997737D01*
X156502262Y-58870184D01*
X156349523Y-58774211D01*
X156179254Y-58714631D01*
X156179249Y-58714630D01*
X156000004Y-58694435D01*
X155999996Y-58694435D01*
X155820750Y-58714630D01*
X155820745Y-58714631D01*
X155650476Y-58774211D01*
X155497737Y-58870184D01*
X155370184Y-58997737D01*
X155274211Y-59150476D01*
X155214631Y-59320745D01*
X155214630Y-59320750D01*
X155194435Y-59499996D01*
X155194435Y-59500003D01*
X155214630Y-59679249D01*
X155214631Y-59679254D01*
X155274211Y-59849523D01*
X155370182Y-60002259D01*
X155372441Y-60005091D01*
X155373330Y-60007268D01*
X155373889Y-60008158D01*
X155373733Y-60008255D01*
X155398854Y-60069776D01*
X155399219Y-60076932D01*
X155399498Y-60079054D01*
X155421354Y-60160621D01*
X155424668Y-60172989D01*
X155432775Y-60203242D01*
X155437000Y-60235336D01*
X155437000Y-62736232D01*
X155417315Y-62803271D01*
X155378098Y-62841769D01*
X155325034Y-62874500D01*
X155231342Y-62932289D01*
X155107285Y-63056346D01*
X155105537Y-63059182D01*
X155103829Y-63060717D01*
X155102807Y-63062011D01*
X155102585Y-63061836D01*
X155053589Y-63105905D01*
X154984626Y-63117126D01*
X154920544Y-63089282D01*
X154894463Y-63059182D01*
X154892714Y-63056346D01*
X154768657Y-62932289D01*
X154768656Y-62932288D01*
X154661129Y-62865965D01*
X154619336Y-62840187D01*
X154619331Y-62840185D01*
X154617862Y-62839698D01*
X154452797Y-62785001D01*
X154452795Y-62785000D01*
X154350010Y-62774500D01*
X153574998Y-62774500D01*
X153574980Y-62774501D01*
X153472203Y-62785000D01*
X153472200Y-62785001D01*
X153305668Y-62840185D01*
X153305663Y-62840187D01*
X153156342Y-62932289D01*
X153032287Y-63056344D01*
X152974844Y-63149473D01*
X152922895Y-63196197D01*
X152883190Y-63207595D01*
X152820750Y-63214630D01*
X152650478Y-63274210D01*
X152497737Y-63370184D01*
X152370184Y-63497737D01*
X152274211Y-63650476D01*
X152214631Y-63820745D01*
X152214630Y-63820750D01*
X152194435Y-63999996D01*
X148600500Y-63999996D01*
X148600500Y-59420945D01*
X148600500Y-59420943D01*
X148559577Y-59268216D01*
X148491602Y-59150478D01*
X148480524Y-59131290D01*
X148480518Y-59131282D01*
X148368717Y-59019481D01*
X148368709Y-59019475D01*
X148231790Y-58940426D01*
X148231786Y-58940424D01*
X148231784Y-58940423D01*
X148079057Y-58899500D01*
X148079056Y-58899500D01*
X144749097Y-58899500D01*
X144682058Y-58879815D01*
X144636303Y-58827011D01*
X144626359Y-58757853D01*
X144655384Y-58694297D01*
X144661416Y-58687819D01*
X145058812Y-58290423D01*
X145518536Y-57830698D01*
X145579857Y-57797215D01*
X145592310Y-57795163D01*
X145679255Y-57785368D01*
X145849522Y-57725789D01*
X146002262Y-57629816D01*
X146129816Y-57502262D01*
X146225789Y-57349522D01*
X146285368Y-57179255D01*
X146285368Y-57179252D01*
X146285369Y-57179249D01*
X146305565Y-57000003D01*
X146305565Y-56999996D01*
X146285369Y-56820750D01*
X146285368Y-56820745D01*
X146225788Y-56650476D01*
X146180912Y-56579057D01*
X146129816Y-56497738D01*
X146002262Y-56370184D01*
X145933553Y-56327011D01*
X145849523Y-56274211D01*
X145679254Y-56214631D01*
X145679249Y-56214630D01*
X145500004Y-56194435D01*
X145499996Y-56194435D01*
X145320750Y-56214630D01*
X145320745Y-56214631D01*
X145150476Y-56274211D01*
X144997737Y-56370184D01*
X144870184Y-56497737D01*
X144774210Y-56650478D01*
X144714630Y-56820750D01*
X144704837Y-56907667D01*
X144677770Y-56972081D01*
X144669298Y-56981464D01*
X143687584Y-57963181D01*
X143626261Y-57996666D01*
X143599903Y-57999500D01*
X141997625Y-57999500D01*
X141930586Y-57979815D01*
X141884831Y-57927011D01*
X141874887Y-57857853D01*
X141903912Y-57794297D01*
X141909943Y-57787820D01*
X141932308Y-57765455D01*
X141958505Y-57739257D01*
X141958510Y-57739254D01*
X141968714Y-57729049D01*
X141968716Y-57729049D01*
X142080520Y-57617245D01*
X142159577Y-57480313D01*
X142200500Y-57327586D01*
X142200500Y-56520943D01*
X142184363Y-56460717D01*
X142159577Y-56368215D01*
X142157693Y-56364951D01*
X142122804Y-56304522D01*
X142080522Y-56231287D01*
X142080521Y-56231286D01*
X142080520Y-56231284D01*
X141968716Y-56119480D01*
X141968715Y-56119479D01*
X141964385Y-56115149D01*
X141964374Y-56115139D01*
X141487590Y-55638355D01*
X141487588Y-55638352D01*
X141368717Y-55519481D01*
X141368709Y-55519475D01*
X141266936Y-55460717D01*
X141266934Y-55460716D01*
X141231790Y-55440425D01*
X141231789Y-55440424D01*
X141219263Y-55437067D01*
X141079057Y-55399499D01*
X140920943Y-55399499D01*
X140913347Y-55399499D01*
X140913331Y-55399500D01*
X139582412Y-55399500D01*
X139515373Y-55379815D01*
X139505097Y-55372445D01*
X139502263Y-55370185D01*
X139502262Y-55370184D01*
X139422552Y-55320099D01*
X139349523Y-55274211D01*
X139179254Y-55214631D01*
X139179249Y-55214630D01*
X139000004Y-55194435D01*
X138999996Y-55194435D01*
X138820750Y-55214630D01*
X138820745Y-55214631D01*
X138650476Y-55274211D01*
X138497737Y-55370184D01*
X138370184Y-55497737D01*
X138274211Y-55650476D01*
X138214631Y-55820745D01*
X138214630Y-55820750D01*
X138194435Y-55999996D01*
X138194435Y-56000003D01*
X138214630Y-56179249D01*
X138214633Y-56179262D01*
X138233978Y-56234545D01*
X138237540Y-56304324D01*
X138202812Y-56364951D01*
X138140818Y-56397179D01*
X138116937Y-56399500D01*
X137066209Y-56399500D01*
X136999170Y-56379815D01*
X136953415Y-56327011D01*
X136942989Y-56261616D01*
X136955565Y-56150002D01*
X136955565Y-56149996D01*
X136935369Y-55970750D01*
X136935368Y-55970745D01*
X136917428Y-55919475D01*
X136875789Y-55800478D01*
X136875174Y-55799500D01*
X136806255Y-55689815D01*
X136779816Y-55647738D01*
X136652262Y-55520184D01*
X136651134Y-55519475D01*
X136499523Y-55424211D01*
X136329254Y-55364631D01*
X136329249Y-55364630D01*
X136150004Y-55344435D01*
X136149996Y-55344435D01*
X135970750Y-55364630D01*
X135970745Y-55364631D01*
X135800476Y-55424211D01*
X135647737Y-55520184D01*
X135520184Y-55647737D01*
X135461287Y-55741472D01*
X135408952Y-55787763D01*
X135356293Y-55799500D01*
X128338140Y-55799500D01*
X128338124Y-55799499D01*
X128330528Y-55799499D01*
X128172414Y-55799499D01*
X128019686Y-55840423D01*
X128019685Y-55840423D01*
X127970683Y-55868715D01*
X127970682Y-55868715D01*
X127882761Y-55919475D01*
X127882753Y-55919481D01*
X127821716Y-55980519D01*
X127770951Y-56031284D01*
X127770949Y-56031286D01*
X126782051Y-57020185D01*
X125829055Y-57973181D01*
X125767732Y-58006666D01*
X125741374Y-58009500D01*
X122268536Y-58009500D01*
X122201497Y-57989815D01*
X122155742Y-57937011D01*
X122145798Y-57867853D01*
X122174823Y-57804297D01*
X122227581Y-57768458D01*
X122256368Y-57758385D01*
X122349522Y-57725789D01*
X122502262Y-57629816D01*
X122629816Y-57502262D01*
X122725789Y-57349522D01*
X122785368Y-57179255D01*
X122795161Y-57092329D01*
X122822226Y-57027918D01*
X122830690Y-57018543D01*
X123712416Y-56136819D01*
X123773739Y-56103334D01*
X123800097Y-56100500D01*
X126413331Y-56100500D01*
X126413347Y-56100501D01*
X126420943Y-56100501D01*
X126579054Y-56100501D01*
X126579057Y-56100501D01*
X126731785Y-56059577D01*
X126781904Y-56030639D01*
X126868716Y-55980520D01*
X126980520Y-55868716D01*
X126980521Y-55868714D01*
X127480520Y-55368716D01*
X127559577Y-55231784D01*
X127600501Y-55079057D01*
X127600501Y-54920942D01*
X127600501Y-54913347D01*
X127600500Y-54913329D01*
X127600500Y-54589060D01*
X127600501Y-54589047D01*
X127600501Y-54420944D01*
X127600248Y-54420000D01*
X127559577Y-54268216D01*
X127508216Y-54179255D01*
X127480524Y-54131290D01*
X127480522Y-54131287D01*
X127480521Y-54131286D01*
X127480520Y-54131284D01*
X127330698Y-53981463D01*
X127297215Y-53920142D01*
X127295163Y-53907686D01*
X127285368Y-53820745D01*
X127225789Y-53650478D01*
X127129816Y-53497738D01*
X127002262Y-53370184D01*
X126849523Y-53274211D01*
X126679254Y-53214631D01*
X126679249Y-53214630D01*
X126500004Y-53194435D01*
X126499996Y-53194435D01*
X126320750Y-53214630D01*
X126320745Y-53214631D01*
X126150476Y-53274211D01*
X125997737Y-53370184D01*
X125870184Y-53497737D01*
X125774211Y-53650476D01*
X125714631Y-53820745D01*
X125714630Y-53820750D01*
X125694435Y-53999996D01*
X125694435Y-54000003D01*
X125714630Y-54179249D01*
X125714631Y-54179254D01*
X125774211Y-54349523D01*
X125819088Y-54420944D01*
X125870184Y-54502262D01*
X125997738Y-54629816D01*
X126062496Y-54670506D01*
X126108787Y-54722841D01*
X126119435Y-54791894D01*
X126091060Y-54855743D01*
X126032670Y-54894115D01*
X125996524Y-54899500D01*
X123420940Y-54899500D01*
X123380019Y-54910464D01*
X123380019Y-54910465D01*
X123342751Y-54920451D01*
X123268214Y-54940423D01*
X123268209Y-54940426D01*
X123131290Y-55019475D01*
X123131282Y-55019481D01*
X123019478Y-55131286D01*
X121981465Y-56169298D01*
X121920142Y-56202783D01*
X121907668Y-56204837D01*
X121820750Y-56214630D01*
X121650478Y-56274210D01*
X121497737Y-56370184D01*
X121370184Y-56497737D01*
X121274211Y-56650476D01*
X121214631Y-56820745D01*
X121214630Y-56820750D01*
X121194435Y-56999996D01*
X121194435Y-57000003D01*
X121214630Y-57179249D01*
X121214631Y-57179254D01*
X121274211Y-57349523D01*
X121356396Y-57480319D01*
X121370184Y-57502262D01*
X121497738Y-57629816D01*
X121650478Y-57725789D01*
X121726685Y-57752455D01*
X121772419Y-57768458D01*
X121829195Y-57809180D01*
X121854942Y-57874133D01*
X121841486Y-57942694D01*
X121793099Y-57993097D01*
X121731464Y-58009500D01*
X101300097Y-58009500D01*
X101233058Y-57989815D01*
X101212416Y-57973181D01*
X99187590Y-55948355D01*
X99187588Y-55948352D01*
X99068717Y-55829481D01*
X99068716Y-55829480D01*
X98962601Y-55768215D01*
X98962600Y-55768214D01*
X98931783Y-55750422D01*
X98875881Y-55735443D01*
X98779057Y-55709499D01*
X98620943Y-55709499D01*
X98613347Y-55709499D01*
X98613331Y-55709500D01*
X98316603Y-55709500D01*
X98249564Y-55689815D01*
X98203809Y-55637011D01*
X98193865Y-55567853D01*
X98204220Y-55533098D01*
X98273903Y-55383663D01*
X98335063Y-55155408D01*
X98355659Y-54920000D01*
X98335063Y-54684592D01*
X98273903Y-54456337D01*
X98174035Y-54242171D01*
X98129981Y-54179254D01*
X98038494Y-54048597D01*
X97871402Y-53881506D01*
X97871395Y-53881501D01*
X97677834Y-53745967D01*
X97677830Y-53745965D01*
X97606727Y-53712809D01*
X97463663Y-53646097D01*
X97463659Y-53646096D01*
X97463655Y-53646094D01*
X97235413Y-53584938D01*
X97235403Y-53584936D01*
X97000001Y-53564341D01*
X96999999Y-53564341D01*
X96764596Y-53584936D01*
X96764586Y-53584938D01*
X96536344Y-53646094D01*
X96536335Y-53646098D01*
X96322171Y-53745964D01*
X96322169Y-53745965D01*
X96128600Y-53881503D01*
X96006284Y-54003819D01*
X95944961Y-54037303D01*
X95875269Y-54032319D01*
X95819336Y-53990447D01*
X95802421Y-53959470D01*
X95753354Y-53827913D01*
X95753350Y-53827906D01*
X95667190Y-53712812D01*
X95667187Y-53712809D01*
X95552093Y-53626649D01*
X95552086Y-53626645D01*
X95417379Y-53576403D01*
X95417372Y-53576401D01*
X95357844Y-53570000D01*
X94710000Y-53570000D01*
X94710000Y-54486988D01*
X94652993Y-54454075D01*
X94525826Y-54420000D01*
X94394174Y-54420000D01*
X94267007Y-54454075D01*
X94210000Y-54486988D01*
X94210000Y-53570000D01*
X93562155Y-53570000D01*
X93502627Y-53576401D01*
X93502620Y-53576403D01*
X93367913Y-53626645D01*
X93367906Y-53626649D01*
X93252812Y-53712809D01*
X93252809Y-53712812D01*
X93166649Y-53827906D01*
X93166645Y-53827913D01*
X93116403Y-53962620D01*
X93116401Y-53962627D01*
X93110000Y-54022155D01*
X93110000Y-54670000D01*
X94026988Y-54670000D01*
X93994075Y-54727007D01*
X93960000Y-54854174D01*
X93960000Y-54985826D01*
X93994075Y-55112993D01*
X94026988Y-55170000D01*
X93110000Y-55170000D01*
X93110000Y-55585500D01*
X93090315Y-55652539D01*
X93037511Y-55698294D01*
X92986000Y-55709500D01*
X92276670Y-55709500D01*
X92276654Y-55709499D01*
X92269058Y-55709499D01*
X92110943Y-55709499D01*
X92034579Y-55729961D01*
X91958214Y-55750423D01*
X91958209Y-55750426D01*
X91821290Y-55829475D01*
X91821282Y-55829481D01*
X91519481Y-56131282D01*
X91519480Y-56131284D01*
X91483020Y-56194435D01*
X91440423Y-56268215D01*
X91399499Y-56420943D01*
X91399499Y-56420945D01*
X91399499Y-56589046D01*
X91399500Y-56589059D01*
X91399500Y-74417587D01*
X91379815Y-74484626D01*
X91372450Y-74494896D01*
X91370186Y-74497734D01*
X91274211Y-74650476D01*
X91214631Y-74820745D01*
X91214630Y-74820750D01*
X91194435Y-74999996D01*
X89500500Y-74999996D01*
X89500500Y-50624500D01*
X89520185Y-50557461D01*
X89572989Y-50511706D01*
X89624500Y-50500500D01*
X117651928Y-50500500D01*
X117718967Y-50520185D01*
G37*
%TD.AperFunction*%
%TD*%
M02*
