M48
; DRILL file {KiCad 8.0.6} date 2024-11-07T17:09:23-0600
; FORMAT={-:-/ absolute / inch / decimal}
; #@! TF.CreationDate,2024-11-07T17:09:23-06:00
; #@! TF.GenerationSoftware,Kicad,Pcbnew,8.0.6
; #@! TF.FileFunction,Plated,1,2,PTH
FMAT,2
INCH
; #@! TA.AperFunction,Plated,PTH,ViaDrill
T1C0.0118
; #@! TA.AperFunction,Plated,PTH,ComponentDrill
T2C0.0236
; #@! TA.AperFunction,Plated,PTH,ComponentDrill
T3C0.0276
; #@! TA.AperFunction,Plated,PTH,ComponentDrill
T4C0.0394
%
G90
G05
T1
X3.622Y-2.9528
X3.6614Y-3.2283
X3.6614Y-3.3465
X4.6654Y-2.0079
X4.6654Y-2.126
X4.7047Y-2.6969
X4.7638Y-2.4606
X4.8031Y-2.2441
X4.8031Y-2.5
X4.8031Y-2.5787
X4.8583Y-2.437
X4.8819Y-2.2638
X4.9016Y-2.4606
X4.9409Y-2.4803
X4.9803Y-2.126
X5.0Y-2.3031
X5.0Y-2.8937
X5.0Y-3.0512
X5.0394Y-3.1693
X5.0591Y-2.2638
X5.0591Y-3.3858
X5.0787Y-3.2874
X5.1181Y-2.8937
X5.1181Y-2.9296
X5.1181Y-3.0315
X5.1378Y-2.2441
X5.1378Y-2.6181
X5.1378Y-2.6772
X5.1378Y-2.7953
X5.1378Y-3.0709
X5.1378Y-2.1457
X5.1575Y-2.4213
X5.1575Y-2.5787
X5.1772Y-2.2835
X5.2362Y-3.1299
X5.2362Y-3.3465
X5.2364Y-2.4604
X5.2559Y-2.2835
X5.315Y-3.2874
X5.3346Y-3.1063
X5.3602Y-2.2106
X5.3937Y-2.2835
X5.4009Y-2.4213
X5.4493Y-2.4178
X5.4724Y-2.2047
X5.4921Y-2.2835
X5.4921Y-2.4606
X5.5118Y-3.1299
X5.5512Y-2.2441
X5.5709Y-3.1299
X5.5906Y-3.0118
X5.6496Y-2.5787
X5.6496Y-3.1299
X5.7283Y-2.2441
X5.7874Y-2.9528
X5.7874Y-3.1299
X5.8071Y-3.0906
X5.8268Y-2.6181
X5.8268Y-2.6772
X5.8268Y-2.7165
X5.8268Y-2.8937
X5.8268Y-3.3858
X5.8458Y-2.7553
X5.8465Y-3.0709
X5.8465Y-3.248
X5.8858Y-3.563
X5.8957Y-3.1594
X5.9055Y-3.3465
X5.9843Y-2.5
X6.0039Y-2.7165
X6.0236Y-2.5197
X6.063Y-3.4252
X6.1417Y-2.3425
X6.5945Y-3.9961
X6.5945Y-4.1142
X7.3228Y-4.0157
X7.3228Y-4.1142
T3
X3.7795Y-3.5827
X3.7992Y-3.6417
X3.8583Y-3.5827
X3.8976Y-3.6417
X3.937Y-3.5827
X3.9764Y-3.6417
X4.0157Y-3.5827
X4.0748Y-3.6417
X4.0945Y-3.5827
T4
X3.7189Y-2.1622
X3.7189Y-2.2622
X3.7189Y-2.3622
X3.7189Y-2.4622
X3.7189Y-2.5622
X3.7189Y-2.6622
X3.7189Y-2.7622
X3.7189Y-2.8622
X3.7189Y-2.9622
X3.8189Y-2.1622
X3.8189Y-2.2622
X3.8189Y-2.3622
X3.8189Y-2.4622
X3.8189Y-2.5622
X3.8189Y-2.6622
X3.8189Y-2.7622
X3.8189Y-2.8622
X3.8189Y-2.9622
X4.7923Y-2.7756
X4.8923Y-2.7756
X5.9811Y-4.0157
X6.0811Y-4.0157
X6.1811Y-4.0157
X6.2811Y-4.0157
X6.4307Y-2.6772
X6.5307Y-2.6772
X6.5551Y-2.8346
X6.6307Y-2.6772
X6.6551Y-2.8346
X6.7307Y-2.6772
X6.7551Y-2.8346
X6.8307Y-2.6772
X6.9307Y-2.6772
X7.0307Y-2.6772
X7.4606Y-2.3213
X7.4606Y-2.4213
X7.4606Y-2.5213
X7.4606Y-2.6213
X7.4606Y-2.7213
X7.4606Y-2.8213
X7.4606Y-2.9213
X7.4606Y-3.0213
X7.4606Y-3.4433
X7.4606Y-3.5433
X7.4606Y-3.6433
X7.4606Y-3.7433
X7.4606Y-3.8433
X7.4606Y-3.9433
T2
G00X3.685Y-3.5906
M15
G01X3.685Y-3.6339
M16
G05
G00X3.685Y-3.9311
M15
G01X3.685Y-3.9626
M16
G05
G00X4.189Y-3.5906
M15
G01X4.189Y-3.6339
M16
G05
G00X4.189Y-3.9311
M15
G01X4.189Y-3.9626
M16
G05
M30
